SplineFontDB: 3.2
FontName: Yas-Bold
FullName: Yas Bold
FamilyName: Yas
Weight: Bold
Copyright: Copyright (c) IRMUG (Iranian Mac User Group), 2007. All rights reserved.
Version: 4.00 April 9, 2010
ItalicAngle: 0
UnderlinePosition: -600
UnderlineWidth: 60
Ascent: 1638
Descent: 410
InvalidEm: 0
sfntRevision: 0x00040000
LayerCount: 2
Layer: 0 1 "Back" 1
Layer: 1 1 "Fore" 0
XUID: [1021 420 722297922 10038804]
StyleMap: 0x0020
FSType: 0
OS2Version: 2
OS2_WeightWidthSlopeOnly: 0
OS2_UseTypoMetrics: 0
CreationTime: 1194658560
ModificationTime: 1662231231
PfmFamily: 17
TTFWeight: 700
TTFWidth: 5
LineGap: 0
VLineGap: 0
Panose: 2 0 8 3 2 0 0 2 0 3
OS2TypoAscent: 2100
OS2TypoAOffset: 0
OS2TypoDescent: -1000
OS2TypoDOffset: 0
OS2TypoLinegap: 0
OS2WinAscent: 2100
OS2WinAOffset: 0
OS2WinDescent: 1000
OS2WinDOffset: 0
HheadAscent: 2100
HheadAOffset: 0
HheadDescent: -1000
HheadDOffset: 0
OS2SubXSize: 1434
OS2SubYSize: 1331
OS2SubXOff: 0
OS2SubYOff: 293
OS2SupXSize: 1434
OS2SupYSize: 1331
OS2SupXOff: 0
OS2SupYOff: 928
OS2StrikeYSize: 102
OS2StrikeYPos: 512
OS2CapHeight: 1384
OS2XHeight: 944
OS2Vendor: 'pars'
OS2CodePages: 20000051.41000000
OS2UnicodeRanges: 00002003.80000000.00000008.00000000
Lookup: 6 0 0 "'ccmp' Glyph Composition/Decomposition in Arabic lookup 0" { "'ccmp' Glyph Composition/Decomposition in Arabic lookup 0 contextual 0"  "'ccmp' Glyph Composition/Decomposition in Arabic lookup 0 contextual 1"  "'ccmp' Glyph Composition/Decomposition in Arabic lookup 0 contextual 2"  "'ccmp' Glyph Composition/Decomposition in Arabic lookup 0 contextual 3"  "'ccmp' Glyph Composition/Decomposition in Arabic lookup 0 contextual 4"  "'ccmp' Glyph Composition/Decomposition in Arabic lookup 0 contextual 5"  } ['ccmp' ('arab' <'ARA ' 'DRI ' 'FAR ' 'KUR ' 'PAS ' 'URD ' 'UYG ' 'UZB ' 'dflt' > ) ]

StartChar: .notdef
Encoding: 65536 -1 0
Width: 1122
GlyphClass: 2
Flags: W
LayerCount: 2
Fore
SplineSet
624 299 m 0,0,1
 624 269 624 269 602 246.5 c 128,-1,2
 580 224 580 224 548 224 c 0,3,4
 518 224 518 224 496.5 246.5 c 128,-1,5
 475 269 475 269 475 299 c 0,6,7
 475 331 475 331 496.5 352.5 c 128,-1,8
 518 374 518 374 551 374 c 0,9,10
 581 374 581 374 602.5 352.5 c 128,-1,11
 624 331 624 331 624 299 c 0,0,1
732 780 m 0,12,13
 732 737 732 737 708.5 710 c 128,-1,14
 685 683 685 683 648 683 c 0,15,16
 616 683 616 683 597 701.5 c 128,-1,17
 578 720 578 720 578 749 c 0,18,19
 578 770 578 770 588 785 c 128,-1,20
 598 800 598 800 610.5 810.5 c 128,-1,21
 623 821 623 821 633 829 c 128,-1,22
 643 837 643 837 643 843 c 0,23,24
 643 863 643 863 623.5 875 c 128,-1,25
 604 887 604 887 574 887 c 0,26,27
 536 887 536 887 512 866 c 128,-1,28
 488 845 488 845 488 813 c 0,29,30
 488 795 488 795 498.5 769 c 128,-1,31
 509 743 509 743 521.5 718 c 128,-1,32
 534 693 534 693 545.5 673 c 128,-1,33
 557 653 557 653 559 648 c 0,34,35
 570 619 570 619 576.5 583.5 c 128,-1,36
 583 548 583 548 583 513 c 0,37,38
 583 492 583 492 581.5 470.5 c 128,-1,39
 580 449 580 449 578 424 c 1,40,-1
 539 424 l 1,41,-1
 539 442 l 1,42,-1
 543 472 l 1,43,44
 543 505 543 505 498 544 c 0,45,46
 425 609 425 609 416 620 c 0,47,48
 371 673 371 673 371 740 c 0,49,50
 371 781 371 781 386 815.5 c 128,-1,51
 401 850 401 850 426.5 875.5 c 128,-1,52
 452 901 452 901 486.5 915 c 128,-1,53
 521 929 521 929 560 929 c 0,54,55
 595 929 595 929 626.5 918.5 c 128,-1,56
 658 908 658 908 681.5 888.5 c 128,-1,57
 705 869 705 869 718.5 841.5 c 128,-1,58
 732 814 732 814 732 780 c 0,12,13
132 31 m 1,59,-1
 992 31 l 1,60,-1
 992 1122 l 1,61,-1
 132 1122 l 1,62,-1
 132 31 l 1,59,-1
100 0 m 1,63,-1
 100 1154 l 1,64,-1
 1022 1154 l 1,65,-1
 1022 0 l 1,66,-1
 100 0 l 1,63,-1
EndSplineSet
PairPos2: "'kern' Horizontal Kerning in Arabic lookup 0 subtable" afii57509 dx=0 dy=0 dh=0 dv=0 dx=0 dy=0 dh=250 dv=0
PairPos2: "'kern' Horizontal Kerning in Arabic lookup 0 subtable" uni06AB dx=0 dy=0 dh=0 dv=0 dx=0 dy=0 dh=250 dv=0
PairPos2: "'kern' Horizontal Kerning in Arabic lookup 0 subtable" uni06A9 dx=0 dy=0 dh=0 dv=0 dx=0 dy=0 dh=250 dv=0
PairPos2: "'kern' Horizontal Kerning in Arabic lookup 0 subtable" uniFB94 dx=0 dy=0 dh=0 dv=0 dx=0 dy=0 dh=250 dv=0
PairPos2: "'kern' Horizontal Kerning in Arabic lookup 0 subtable" uniFBD5 dx=0 dy=0 dh=0 dv=0 dx=0 dy=0 dh=250 dv=0
PairPos2: "'kern' Horizontal Kerning in Arabic lookup 0 subtable" uni06AB.ini dx=0 dy=0 dh=0 dv=0 dx=0 dy=0 dh=250 dv=0
PairPos2: "'kern' Horizontal Kerning in Arabic lookup 0 subtable" uniFB90 dx=0 dy=0 dh=0 dv=0 dx=0 dy=0 dh=250 dv=0
PairPos2: "'kern' Horizontal Kerning in Arabic lookup 0 subtable" uniFEDB dx=0 dy=0 dh=0 dv=0 dx=0 dy=0 dh=250 dv=0
PairPos2: "'kern' Horizontal Kerning in Arabic lookup 0 subtable" uni0671 dx=0 dy=0 dh=0 dv=0 dx=0 dy=0 dh=200 dv=0
PairPos2: "'kern' Horizontal Kerning in Arabic lookup 0 subtable" afii57410 dx=0 dy=0 dh=0 dv=0 dx=0 dy=0 dh=200 dv=0
PairPos2: "'kern' Horizontal Kerning in Arabic lookup 0 subtable" afii57415 dx=0 dy=0 dh=0 dv=0 dx=0 dy=0 dh=50 dv=0
EndChar

StartChar: exclam
Encoding: 33 33 4
Width: 667
GlyphClass: 2
Flags: W
LayerCount: 2
Fore
SplineSet
259 398 m 0,0,1
 288 398 288 398 316 386.5 c 128,-1,2
 344 375 344 375 366.5 352.5 c 128,-1,3
 389 330 389 330 403 298 c 128,-1,4
 417 266 417 266 417 225 c 0,5,6
 417 186 417 186 403.5 153.5 c 128,-1,7
 390 121 390 121 367.5 98.5 c 128,-1,8
 345 76 345 76 317 63.5 c 128,-1,9
 289 51 289 51 259 51 c 0,10,11
 230 51 230 51 201.5 63 c 128,-1,12
 173 75 173 75 150.5 97.5 c 128,-1,13
 128 120 128 120 114 152 c 128,-1,14
 100 184 100 184 100 225 c 256,15,16
 100 266 100 266 114.5 298.5 c 128,-1,17
 129 331 129 331 151.5 353 c 128,-1,18
 174 375 174 375 202.5 386.5 c 128,-1,19
 231 398 231 398 259 398 c 0,0,1
259 1495 m 0,20,21
 288 1495 288 1495 316.5 1482.5 c 128,-1,22
 345 1470 345 1470 369 1448 c 0,23,24
 392 1428 392 1428 404.5 1388 c 128,-1,25
 417 1348 417 1348 417 1292 c 0,26,27
 417 1289 417 1289 410 1260.5 c 128,-1,28
 403 1232 403 1232 392 1188.5 c 128,-1,29
 381 1145 381 1145 368 1091 c 128,-1,30
 355 1037 355 1037 342.5 984.5 c 128,-1,31
 330 932 330 932 320.5 885.5 c 128,-1,32
 311 839 311 839 306 809 c 0,33,34
 301 777 301 777 294 712.5 c 128,-1,35
 287 648 287 648 276 557 c 1,36,-1
 245 557 l 1,37,38
 238 617 238 617 232.5 660 c 128,-1,39
 227 703 227 703 222.5 734 c 128,-1,40
 218 765 218 765 214.5 785.5 c 128,-1,41
 211 806 211 806 208 820 c 0,42,43
 206 830 206 830 197.5 864 c 128,-1,44
 189 898 189 898 176.5 944.5 c 128,-1,45
 164 991 164 991 150.5 1043.5 c 128,-1,46
 137 1096 137 1096 125.5 1144 c 128,-1,47
 114 1192 114 1192 106 1228.5 c 128,-1,48
 98 1265 98 1265 98 1279 c 0,49,50
 98 1345 98 1345 113 1386.5 c 128,-1,51
 128 1428 128 1428 151 1452 c 128,-1,52
 174 1476 174 1476 203 1485 c 128,-1,53
 232 1494 232 1494 259 1495 c 0,20,21
EndSplineSet
PairPos2: "'kern' Horizontal Kerning in Arabic lookup 0 subtable" afii57509 dx=0 dy=0 dh=0 dv=0 dx=0 dy=0 dh=250 dv=0
PairPos2: "'kern' Horizontal Kerning in Arabic lookup 0 subtable" uni06AB dx=0 dy=0 dh=0 dv=0 dx=0 dy=0 dh=250 dv=0
PairPos2: "'kern' Horizontal Kerning in Arabic lookup 0 subtable" uni06A9 dx=0 dy=0 dh=0 dv=0 dx=0 dy=0 dh=250 dv=0
PairPos2: "'kern' Horizontal Kerning in Arabic lookup 0 subtable" uniFB94 dx=0 dy=0 dh=0 dv=0 dx=0 dy=0 dh=250 dv=0
PairPos2: "'kern' Horizontal Kerning in Arabic lookup 0 subtable" uniFBD5 dx=0 dy=0 dh=0 dv=0 dx=0 dy=0 dh=250 dv=0
PairPos2: "'kern' Horizontal Kerning in Arabic lookup 0 subtable" uni06AB.ini dx=0 dy=0 dh=0 dv=0 dx=0 dy=0 dh=250 dv=0
PairPos2: "'kern' Horizontal Kerning in Arabic lookup 0 subtable" uniFB90 dx=0 dy=0 dh=0 dv=0 dx=0 dy=0 dh=250 dv=0
PairPos2: "'kern' Horizontal Kerning in Arabic lookup 0 subtable" uniFEDB dx=0 dy=0 dh=0 dv=0 dx=0 dy=0 dh=250 dv=0
PairPos2: "'kern' Horizontal Kerning in Arabic lookup 0 subtable" uni0671 dx=0 dy=0 dh=0 dv=0 dx=0 dy=0 dh=200 dv=0
PairPos2: "'kern' Horizontal Kerning in Arabic lookup 0 subtable" afii57410 dx=0 dy=0 dh=0 dv=0 dx=0 dy=0 dh=200 dv=0
PairPos2: "'kern' Horizontal Kerning in Arabic lookup 0 subtable" afii57415 dx=0 dy=0 dh=0 dv=0 dx=0 dy=0 dh=50 dv=0
EndChar

StartChar: quotedbl
Encoding: 34 34 5
Width: 1137
GlyphClass: 2
Flags: W
LayerCount: 2
Fore
SplineSet
473 1285 m 0,0,1
 473 1279 473 1279 472.5 1268 c 128,-1,2
 472 1257 472 1257 471 1245.5 c 128,-1,3
 470 1234 470 1234 468.5 1223.5 c 128,-1,4
 467 1213 467 1213 466 1207 c 0,5,6
 449 1099 449 1099 431.5 988 c 128,-1,7
 414 877 414 877 397 769 c 1,8,-1
 361 769 l 1,9,-1
 293 1207 l 2,10,11
 290 1225 290 1225 288 1245.5 c 128,-1,12
 286 1266 286 1266 286 1285 c 0,13,14
 286 1354 286 1354 313.5 1384.5 c 128,-1,15
 341 1415 341 1415 380 1415 c 0,16,17
 430 1415 430 1415 452 1375 c 1,18,-1
 452 1376 l 1,19,20
 473 1342 473 1342 473 1285 c 0,0,1
776 769 m 1,21,-1
 740 769 l 1,22,-1
 671 1207 l 2,23,24
 667 1238 667 1238 665 1257 c 128,-1,25
 663 1276 663 1276 663 1284 c 0,26,27
 663 1351 663 1351 689 1383 c 128,-1,28
 715 1415 715 1415 756 1415 c 256,29,30
 797 1415 797 1415 824.5 1385.5 c 128,-1,31
 852 1356 852 1356 852 1289 c 0,32,33
 852 1274 852 1274 849 1246.5 c 128,-1,34
 846 1219 846 1219 841 1178 c 2,35,-1
 776 769 l 1,21,-1
EndSplineSet
PairPos2: "'kern' Horizontal Kerning in Arabic lookup 0 subtable" afii57509 dx=0 dy=0 dh=0 dv=0 dx=0 dy=0 dh=250 dv=0
PairPos2: "'kern' Horizontal Kerning in Arabic lookup 0 subtable" uni06AB dx=0 dy=0 dh=0 dv=0 dx=0 dy=0 dh=250 dv=0
PairPos2: "'kern' Horizontal Kerning in Arabic lookup 0 subtable" uni06A9 dx=0 dy=0 dh=0 dv=0 dx=0 dy=0 dh=250 dv=0
PairPos2: "'kern' Horizontal Kerning in Arabic lookup 0 subtable" uniFB94 dx=0 dy=0 dh=0 dv=0 dx=0 dy=0 dh=250 dv=0
PairPos2: "'kern' Horizontal Kerning in Arabic lookup 0 subtable" uniFBD5 dx=0 dy=0 dh=0 dv=0 dx=0 dy=0 dh=250 dv=0
PairPos2: "'kern' Horizontal Kerning in Arabic lookup 0 subtable" uni06AB.ini dx=0 dy=0 dh=0 dv=0 dx=0 dy=0 dh=250 dv=0
PairPos2: "'kern' Horizontal Kerning in Arabic lookup 0 subtable" uniFB90 dx=0 dy=0 dh=0 dv=0 dx=0 dy=0 dh=250 dv=0
PairPos2: "'kern' Horizontal Kerning in Arabic lookup 0 subtable" uniFEDB dx=0 dy=0 dh=0 dv=0 dx=0 dy=0 dh=250 dv=0
PairPos2: "'kern' Horizontal Kerning in Arabic lookup 0 subtable" uni0671 dx=0 dy=0 dh=0 dv=0 dx=0 dy=0 dh=200 dv=0
PairPos2: "'kern' Horizontal Kerning in Arabic lookup 0 subtable" afii57410 dx=0 dy=0 dh=0 dv=0 dx=0 dy=0 dh=200 dv=0
PairPos2: "'kern' Horizontal Kerning in Arabic lookup 0 subtable" afii57415 dx=0 dy=0 dh=0 dv=0 dx=0 dy=0 dh=50 dv=0
EndChar

StartChar: numbersign
Encoding: 35 35 6
Width: 1024
GlyphClass: 2
Flags: W
LayerCount: 2
Fore
SplineSet
358 520 m 1,0,-1
 570 520 l 1,1,2
 572 528 572 528 579 554 c 128,-1,3
 586 580 586 580 595 615.5 c 128,-1,4
 604 651 604 651 614 691 c 128,-1,5
 624 731 624 731 633 766 c 128,-1,6
 642 801 642 801 648.5 827 c 128,-1,7
 655 853 655 853 657 861 c 1,8,-1
 447 861 l 1,9,10
 436 819 436 819 424.5 776 c 128,-1,11
 413 733 413 733 402 691 c 2,12,-1
 358 520 l 1,0,-1
25 520 m 1,13,-1
 220 520 l 1,14,15
 231 561 231 561 242.5 605.5 c 128,-1,16
 254 650 254 650 265 691 c 2,17,-1
 310 861 l 1,18,-1
 118 861 l 1,19,-1
 137 970 l 1,20,-1
 333 970 l 1,21,22
 337 986 337 986 346 1018 c 128,-1,23
 355 1050 355 1050 366.5 1090.5 c 128,-1,24
 378 1131 378 1131 390.5 1175.5 c 128,-1,25
 403 1220 403 1220 414.5 1260.5 c 128,-1,26
 426 1301 426 1301 435 1333.5 c 128,-1,27
 444 1366 444 1366 448 1381 c 1,28,-1
 585 1381 l 1,29,-1
 471 970 l 1,30,-1
 682 970 l 1,31,32
 686 986 686 986 695 1018 c 128,-1,33
 704 1050 704 1050 715.5 1090.5 c 128,-1,34
 727 1131 727 1131 740 1175.5 c 128,-1,35
 753 1220 753 1220 764.5 1260.5 c 128,-1,36
 776 1301 776 1301 785 1333.5 c 128,-1,37
 794 1366 794 1366 798 1381 c 1,38,-1
 934 1381 l 1,39,-1
 818 970 l 1,40,-1
 1011 970 l 1,41,-1
 992 861 l 1,42,-1
 795 861 l 1,43,44
 784 819 784 819 772.5 776 c 128,-1,45
 761 733 761 733 750 691 c 2,46,-1
 705 520 l 1,47,-1
 899 520 l 1,48,-1
 881 411 l 1,49,-1
 674 411 l 1,50,51
 670 396 670 396 662 364 c 128,-1,52
 654 332 654 332 643.5 291.5 c 128,-1,53
 633 251 633 251 621.5 206 c 128,-1,54
 610 161 610 161 599.5 120 c 128,-1,55
 589 79 589 79 580.5 47 c 128,-1,56
 572 15 572 15 568 0 c 1,57,-1
 432 0 l 1,58,-1
 541 411 l 1,59,-1
 330 411 l 1,60,61
 317 362 317 362 302 310 c 128,-1,62
 287 258 287 258 273 207 c 2,63,-1
 216 0 l 1,64,-1
 81 0 l 1,65,-1
 193 411 l 1,66,-1
 6 411 l 1,67,-1
 25 520 l 1,13,-1
EndSplineSet
PairPos2: "'kern' Horizontal Kerning in Arabic lookup 0 subtable" afii57509 dx=0 dy=0 dh=0 dv=0 dx=0 dy=0 dh=250 dv=0
PairPos2: "'kern' Horizontal Kerning in Arabic lookup 0 subtable" uni06AB dx=0 dy=0 dh=0 dv=0 dx=0 dy=0 dh=250 dv=0
PairPos2: "'kern' Horizontal Kerning in Arabic lookup 0 subtable" uni06A9 dx=0 dy=0 dh=0 dv=0 dx=0 dy=0 dh=250 dv=0
PairPos2: "'kern' Horizontal Kerning in Arabic lookup 0 subtable" uniFB94 dx=0 dy=0 dh=0 dv=0 dx=0 dy=0 dh=250 dv=0
PairPos2: "'kern' Horizontal Kerning in Arabic lookup 0 subtable" uniFBD5 dx=0 dy=0 dh=0 dv=0 dx=0 dy=0 dh=250 dv=0
PairPos2: "'kern' Horizontal Kerning in Arabic lookup 0 subtable" uni06AB.ini dx=0 dy=0 dh=0 dv=0 dx=0 dy=0 dh=250 dv=0
PairPos2: "'kern' Horizontal Kerning in Arabic lookup 0 subtable" uniFB90 dx=0 dy=0 dh=0 dv=0 dx=0 dy=0 dh=250 dv=0
PairPos2: "'kern' Horizontal Kerning in Arabic lookup 0 subtable" uniFEDB dx=0 dy=0 dh=0 dv=0 dx=0 dy=0 dh=250 dv=0
PairPos2: "'kern' Horizontal Kerning in Arabic lookup 0 subtable" uni0671 dx=0 dy=0 dh=0 dv=0 dx=0 dy=0 dh=200 dv=0
PairPos2: "'kern' Horizontal Kerning in Arabic lookup 0 subtable" afii57410 dx=0 dy=0 dh=0 dv=0 dx=0 dy=0 dh=200 dv=0
PairPos2: "'kern' Horizontal Kerning in Arabic lookup 0 subtable" afii57415 dx=0 dy=0 dh=0 dv=0 dx=0 dy=0 dh=50 dv=0
EndChar

StartChar: dollar
Encoding: 36 36 7
Width: 1024
GlyphClass: 2
Flags: W
LayerCount: 2
Fore
SplineSet
449 1315 m 1,0,-1
 433 1315 l 1,1,2
 391 1309 391 1309 355.5 1294 c 128,-1,3
 320 1279 320 1279 294 1255 c 128,-1,4
 268 1231 268 1231 253.5 1199.5 c 128,-1,5
 239 1168 239 1168 239 1130 c 0,6,7
 239 1071 239 1071 285 1019.5 c 128,-1,8
 331 968 331 968 430 930 c 1,9,-1
 449 930 l 1,10,-1
 449 1315 l 1,0,-1
754 288 m 0,11,12
 754 357 754 357 703.5 409.5 c 128,-1,13
 653 462 653 462 555 511 c 1,14,-1
 534 511 l 1,15,-1
 534 63 l 1,16,-1
 550 63 l 1,17,18
 652 77 652 77 703 136 c 128,-1,19
 754 195 754 195 754 288 c 0,11,12
124 404 m 1,20,21
 144 338 144 338 173.5 278 c 128,-1,22
 203 218 203 218 242 171.5 c 128,-1,23
 281 125 281 125 329 96 c 128,-1,24
 377 67 377 67 434 63 c 1,25,-1
 449 63 l 1,26,-1
 449 575 l 1,27,-1
 442 575 l 1,28,29
 366 613 366 613 305.5 652 c 128,-1,30
 245 691 245 691 205 726 c 0,31,32
 142 783 142 783 108 856 c 128,-1,33
 74 929 74 929 73 1007 c 0,34,35
 73 1091 73 1091 103.5 1157.5 c 128,-1,36
 134 1224 134 1224 184.5 1271 c 128,-1,37
 235 1318 235 1318 301 1345 c 128,-1,38
 367 1372 367 1372 438 1377 c 1,39,-1
 451 1377 l 1,40,-1
 451 1536 l 1,41,-1
 534 1536 l 1,42,-1
 534 1379 l 1,43,-1
 546 1379 l 1,44,45
 656 1364 656 1364 730 1339 c 0,46,47
 764 1328 764 1328 797 1311.5 c 128,-1,48
 830 1295 830 1295 862 1276 c 1,49,-1
 862 985 l 1,50,-1
 846 985 l 1,51,52
 807 1105 807 1105 761 1173 c 0,53,54
 724 1229 724 1229 670.5 1263 c 128,-1,55
 617 1297 617 1297 551 1311 c 1,56,-1
 534 1311 l 1,57,-1
 534 873 l 1,58,-1
 541 873 l 1,59,60
 638 825 638 825 708.5 781.5 c 128,-1,61
 779 738 779 738 820 701 c 0,62,63
 885 641 885 641 920 565.5 c 128,-1,64
 955 490 955 490 955 402 c 0,65,66
 955 320 955 320 929 251 c 128,-1,67
 903 182 903 182 851.5 130.5 c 128,-1,68
 800 79 800 79 723.5 45.5 c 128,-1,69
 647 12 647 12 546 0 c 1,70,-1
 534 0 l 1,71,-1
 534 -204 l 1,72,-1
 451 -204 l 1,73,-1
 451 0 l 1,74,-1
 438 0 l 1,75,76
 359 4 359 4 306 15 c 0,77,78
 265 23 265 23 216 40 c 128,-1,79
 167 57 167 57 108 83 c 1,80,-1
 108 406 l 1,81,-1
 124 404 l 1,20,21
EndSplineSet
PairPos2: "'kern' Horizontal Kerning in Arabic lookup 0 subtable" afii57509 dx=0 dy=0 dh=0 dv=0 dx=0 dy=0 dh=250 dv=0
PairPos2: "'kern' Horizontal Kerning in Arabic lookup 0 subtable" uni06AB dx=0 dy=0 dh=0 dv=0 dx=0 dy=0 dh=250 dv=0
PairPos2: "'kern' Horizontal Kerning in Arabic lookup 0 subtable" uni06A9 dx=0 dy=0 dh=0 dv=0 dx=0 dy=0 dh=250 dv=0
PairPos2: "'kern' Horizontal Kerning in Arabic lookup 0 subtable" uniFB94 dx=0 dy=0 dh=0 dv=0 dx=0 dy=0 dh=250 dv=0
PairPos2: "'kern' Horizontal Kerning in Arabic lookup 0 subtable" uniFBD5 dx=0 dy=0 dh=0 dv=0 dx=0 dy=0 dh=250 dv=0
PairPos2: "'kern' Horizontal Kerning in Arabic lookup 0 subtable" uni06AB.ini dx=0 dy=0 dh=0 dv=0 dx=0 dy=0 dh=250 dv=0
PairPos2: "'kern' Horizontal Kerning in Arabic lookup 0 subtable" uniFB90 dx=0 dy=0 dh=0 dv=0 dx=0 dy=0 dh=250 dv=0
PairPos2: "'kern' Horizontal Kerning in Arabic lookup 0 subtable" uniFEDB dx=0 dy=0 dh=0 dv=0 dx=0 dy=0 dh=250 dv=0
PairPos2: "'kern' Horizontal Kerning in Arabic lookup 0 subtable" uni0671 dx=0 dy=0 dh=0 dv=0 dx=0 dy=0 dh=200 dv=0
PairPos2: "'kern' Horizontal Kerning in Arabic lookup 0 subtable" afii57410 dx=0 dy=0 dh=0 dv=0 dx=0 dy=0 dh=200 dv=0
PairPos2: "'kern' Horizontal Kerning in Arabic lookup 0 subtable" afii57415 dx=0 dy=0 dh=0 dv=0 dx=0 dy=0 dh=50 dv=0
EndChar

StartChar: percent
Encoding: 37 37 8
Width: 2048
GlyphClass: 2
Flags: W
LayerCount: 2
Fore
SplineSet
895 1164 m 0,0,1
 895 1184 895 1184 893 1198.5 c 128,-1,2
 891 1213 891 1213 889 1220 c 2,3,-1
 889 1219 l 2,4,5
 886 1224 886 1224 880 1227 c 128,-1,6
 874 1230 874 1230 864 1234.5 c 128,-1,7
 854 1239 854 1239 839 1247 c 128,-1,8
 824 1255 824 1255 803 1270 c 0,9,10
 789 1280 789 1280 778 1284.5 c 128,-1,11
 767 1289 767 1289 759 1289 c 0,12,13
 711 1289 711 1289 662.5 1239.5 c 128,-1,14
 614 1190 614 1190 568 1099 c 0,15,16
 522 1003 522 1003 497.5 930.5 c 128,-1,17
 473 858 473 858 473 810 c 0,18,19
 473 759 473 759 501 728 c 128,-1,20
 529 697 529 697 586 697 c 0,21,22
 711 697 711 697 802 857 c 0,23,24
 895 1021 895 1021 895 1164 c 0,0,1
1740 542 m 0,25,26
 1740 575 1740 575 1732 603 c 128,-1,27
 1724 631 1724 631 1708.5 651.5 c 128,-1,28
 1693 672 1693 672 1669.5 683.5 c 128,-1,29
 1646 695 1646 695 1616 695 c 0,30,31
 1557 695 1557 695 1505 646 c 128,-1,32
 1453 597 1453 597 1408 503 c 0,33,34
 1364 409 1364 409 1341.5 337.5 c 128,-1,35
 1319 266 1319 266 1318 223 c 0,36,37
 1318 163 1318 163 1351 134.5 c 128,-1,38
 1384 106 1384 106 1435 106 c 0,39,40
 1559 106 1559 106 1648 264 c 0,41,42
 1740 427 1740 427 1740 542 c 0,25,26
1780 549 m 0,43,44
 1780 377 1780 377 1665 195 c 0,45,46
 1548 9 1548 9 1363 9 c 0,47,48
 1316 9 1316 9 1270 28.5 c 128,-1,49
 1224 48 1224 48 1187.5 85 c 128,-1,50
 1151 122 1151 122 1128.5 176 c 128,-1,51
 1106 230 1106 230 1106 299 c 0,52,53
 1106 484 1106 484 1246 641 c 0,54,55
 1392 802 1392 802 1557 802 c 0,56,57
 1607 802 1607 802 1648 786 c 128,-1,58
 1689 770 1689 770 1718.5 738 c 128,-1,59
 1748 706 1748 706 1764 658.5 c 128,-1,60
 1780 611 1780 611 1780 549 c 0,43,44
940 1154 m 1,61,62
 938 1071 938 1071 913 985 c 128,-1,63
 888 899 888 899 838 814 c 0,64,65
 712 602 712 602 533 602 c 0,66,67
 482 602 482 602 433.5 621.5 c 128,-1,68
 385 641 385 641 347.5 678.5 c 128,-1,69
 310 716 310 716 287.5 772 c 128,-1,70
 265 828 265 828 265 901 c 0,71,72
 265 994 265 994 300.5 1076.5 c 128,-1,73
 336 1159 336 1159 406 1234 c 0,74,75
 552 1389 552 1389 707 1389 c 0,76,77
 775 1389 775 1389 862 1332 c 0,78,79
 948 1275 948 1275 1061 1275 c 0,80,81
 1118 1275 1118 1275 1170.5 1287.5 c 128,-1,82
 1223 1300 1223 1300 1269 1320 c 128,-1,83
 1315 1340 1315 1340 1353 1365.5 c 128,-1,84
 1391 1391 1391 1391 1419 1417 c 1,85,-1
 1477 1417 l 1,86,-1
 671 -19 l 1,87,-1
 581 -19 l 1,88,-1
 1289 1247 l 1,89,-1
 1272 1247 l 1,90,91
 1245 1235 1245 1235 1213.5 1226 c 128,-1,92
 1182 1217 1182 1217 1150 1210 c 128,-1,93
 1118 1203 1118 1203 1087.5 1199.5 c 128,-1,94
 1057 1196 1057 1196 1031 1196 c 0,95,96
 1026 1196 1026 1196 1021.5 1196.5 c 128,-1,97
 1017 1197 1017 1197 1009.5 1198 c 128,-1,98
 1002 1199 1002 1199 989 1201 c 128,-1,99
 976 1203 976 1203 953 1206 c 2,100,-1
 937 1206 l 1,101,-1
 940 1154 l 1,61,62
EndSplineSet
Ligature2: "<17013,16013> Roman in Arabic lookup 72 subtable" zero fraction zero
Ligature2: "<17013,16013> Roman in Arabic lookup 72 subtable" zero slash zero
Ligature2: "Ligature Substitution lookup 42 subtable" zero fraction zero
Ligature2: "Ligature Substitution lookup 42 subtable" zero slash zero
PairPos2: "'kern' Horizontal Kerning in Arabic lookup 0 subtable" afii57509 dx=0 dy=0 dh=0 dv=0 dx=0 dy=0 dh=250 dv=0
PairPos2: "'kern' Horizontal Kerning in Arabic lookup 0 subtable" uni06AB dx=0 dy=0 dh=0 dv=0 dx=0 dy=0 dh=250 dv=0
PairPos2: "'kern' Horizontal Kerning in Arabic lookup 0 subtable" uni06A9 dx=0 dy=0 dh=0 dv=0 dx=0 dy=0 dh=250 dv=0
PairPos2: "'kern' Horizontal Kerning in Arabic lookup 0 subtable" uniFB94 dx=0 dy=0 dh=0 dv=0 dx=0 dy=0 dh=250 dv=0
PairPos2: "'kern' Horizontal Kerning in Arabic lookup 0 subtable" uniFBD5 dx=0 dy=0 dh=0 dv=0 dx=0 dy=0 dh=250 dv=0
PairPos2: "'kern' Horizontal Kerning in Arabic lookup 0 subtable" uni06AB.ini dx=0 dy=0 dh=0 dv=0 dx=0 dy=0 dh=250 dv=0
PairPos2: "'kern' Horizontal Kerning in Arabic lookup 0 subtable" uniFB90 dx=0 dy=0 dh=0 dv=0 dx=0 dy=0 dh=250 dv=0
PairPos2: "'kern' Horizontal Kerning in Arabic lookup 0 subtable" uniFEDB dx=0 dy=0 dh=0 dv=0 dx=0 dy=0 dh=250 dv=0
PairPos2: "'kern' Horizontal Kerning in Arabic lookup 0 subtable" uni0671 dx=0 dy=0 dh=0 dv=0 dx=0 dy=0 dh=200 dv=0
PairPos2: "'kern' Horizontal Kerning in Arabic lookup 0 subtable" afii57410 dx=0 dy=0 dh=0 dv=0 dx=0 dy=0 dh=200 dv=0
PairPos2: "'kern' Horizontal Kerning in Arabic lookup 0 subtable" afii57415 dx=0 dy=0 dh=0 dv=0 dx=0 dy=0 dh=50 dv=0
EndChar

StartChar: ampersand
Encoding: 38 38 9
Width: 1706
GlyphClass: 2
Flags: W
LayerCount: 2
Fore
SplineSet
891 977 m 0,0,1
 949 1027 949 1027 949 1096 c 0,2,3
 949 1133 949 1133 936 1176 c 128,-1,4
 923 1219 923 1219 897 1263 c 0,5,6
 873 1305 873 1305 834 1327 c 128,-1,7
 795 1349 795 1349 746 1349 c 0,8,9
 719 1349 719 1349 696.5 1339.5 c 128,-1,10
 674 1330 674 1330 658.5 1314 c 128,-1,11
 643 1298 643 1298 634 1276.5 c 128,-1,12
 625 1255 625 1255 625 1231 c 0,13,14
 625 1203 625 1203 631.5 1176 c 128,-1,15
 638 1149 638 1149 655.5 1115 c 128,-1,16
 673 1081 673 1081 703 1037 c 128,-1,17
 733 993 733 993 779 930 c 1,18,-1
 795 930 l 1,19,20
 828 942 828 942 852.5 954 c 128,-1,21
 877 966 877 966 891 977 c 0,0,1
821 154 m 0,22,23
 838 163 838 163 860.5 177 c 128,-1,24
 883 191 883 191 912 210 c 1,25,-1
 914 210 l 1,26,27
 905 223 905 223 888.5 245.5 c 128,-1,28
 872 268 872 268 853 295 c 128,-1,29
 834 322 834 322 813.5 351 c 128,-1,30
 793 380 793 380 775 405 c 128,-1,31
 757 430 757 430 743.5 449.5 c 128,-1,32
 730 469 730 469 725 477 c 0,33,34
 710 500 710 500 691.5 528 c 128,-1,35
 673 556 673 556 651 589 c 2,36,-1
 553 736 l 1,37,-1
 534 736 l 1,38,39
 448 684 448 684 423 656 c 0,40,41
 376 603 376 603 376 533 c 0,42,43
 376 413 376 413 480 270 c 0,44,45
 582 130 582 130 714 130 c 0,46,47
 772 130 772 130 821 154 c 0,22,23
413 1094 m 0,48,49
 413 1169 413 1169 440 1229 c 128,-1,50
 467 1289 467 1289 517 1331 c 128,-1,51
 567 1373 567 1373 640 1396 c 128,-1,52
 713 1419 713 1419 804 1419 c 0,53,54
 879 1419 879 1419 938.5 1400.5 c 128,-1,55
 998 1382 998 1382 1040 1349 c 128,-1,56
 1082 1316 1082 1316 1104 1270 c 128,-1,57
 1126 1224 1126 1224 1126 1169 c 0,58,59
 1126 1117 1126 1117 1105.5 1072.5 c 128,-1,60
 1085 1028 1085 1028 1046 991 c 128,-1,61
 1007 954 1007 954 951.5 923.5 c 128,-1,62
 896 893 896 893 826 868 c 1,63,-1
 821 868 l 1,64,65
 830 856 830 856 853.5 822 c 128,-1,66
 877 788 877 788 908 744 c 128,-1,67
 939 700 939 700 974 650 c 128,-1,68
 1009 600 1009 600 1040 556 c 128,-1,69
 1071 512 1071 512 1094.5 478.5 c 128,-1,70
 1118 445 1118 445 1127 432 c 1,71,-1
 1149 432 l 1,72,73
 1191 486 1191 486 1221 527 c 128,-1,74
 1251 568 1251 568 1263 588 c 0,75,76
 1284 623 1284 623 1296 659.5 c 128,-1,77
 1308 696 1308 696 1308 722 c 0,78,79
 1308 745 1308 745 1299.5 761.5 c 128,-1,80
 1291 778 1291 778 1277 786 c 0,81,82
 1255 799 1255 799 1173 810 c 1,83,-1
 1173 863 l 1,84,-1
 1567 863 l 1,85,-1
 1567 810 l 1,86,87
 1529 805 1529 805 1501 796 c 128,-1,88
 1473 787 1473 787 1459 775 c 0,89,90
 1441 759 1441 759 1413 716 c 128,-1,91
 1385 673 1385 673 1347 609 c 1,92,-1
 1347 610 l 1,93,94
 1339 596 1339 596 1333 585.5 c 128,-1,95
 1327 575 1327 575 1319 563.5 c 128,-1,96
 1311 552 1311 552 1300.5 537 c 128,-1,97
 1290 522 1290 522 1273.5 499 c 128,-1,98
 1257 476 1257 476 1233 443.5 c 128,-1,99
 1209 411 1209 411 1175 365 c 1,100,101
 1210 320 1210 320 1240.5 285.5 c 128,-1,102
 1271 251 1271 251 1300 227 c 128,-1,103
 1329 203 1329 203 1360 191 c 128,-1,104
 1391 179 1391 179 1427 179 c 0,105,106
 1452 179 1452 179 1473.5 186 c 128,-1,107
 1495 193 1495 193 1511.5 203.5 c 128,-1,108
 1528 214 1528 214 1539.5 226 c 128,-1,109
 1551 238 1551 238 1556 248 c 1,110,-1
 1576 236 l 1,111,112
 1527 128 1527 128 1481 78 c 0,113,114
 1382 -30 1382 -30 1259 -30 c 0,115,116
 1215 -30 1215 -30 1171 -14 c 128,-1,117
 1127 2 1127 2 1084 32 c 0,118,119
 1063 47 1063 47 1030.5 78.5 c 128,-1,120
 998 110 998 110 961 151 c 1,121,-1
 943 151 l 1,122,123
 888 111 888 111 838 79.5 c 128,-1,124
 788 48 788 48 753 33 c 0,125,126
 689 4 689 4 621 -12.5 c 128,-1,127
 553 -29 553 -29 489 -29 c 0,128,129
 423 -29 423 -29 357 -5.5 c 128,-1,130
 291 18 291 18 238.5 63 c 128,-1,131
 186 108 186 108 153 173.5 c 128,-1,132
 120 239 120 239 120 323 c 0,133,134
 120 513 120 513 262 642 c 0,135,136
 305 680 305 680 367 720 c 128,-1,137
 429 760 429 760 512 799 c 1,138,-1
 517 799 l 1,139,140
 490 847 490 847 470 887 c 128,-1,141
 450 927 450 927 436 963 c 0,142,143
 413 1026 413 1026 413 1094 c 0,48,49
EndSplineSet
PairPos2: "'kern' Horizontal Kerning in Arabic lookup 0 subtable" afii57509 dx=0 dy=0 dh=0 dv=0 dx=0 dy=0 dh=250 dv=0
PairPos2: "'kern' Horizontal Kerning in Arabic lookup 0 subtable" uni06AB dx=0 dy=0 dh=0 dv=0 dx=0 dy=0 dh=250 dv=0
PairPos2: "'kern' Horizontal Kerning in Arabic lookup 0 subtable" uni06A9 dx=0 dy=0 dh=0 dv=0 dx=0 dy=0 dh=250 dv=0
PairPos2: "'kern' Horizontal Kerning in Arabic lookup 0 subtable" uniFB94 dx=0 dy=0 dh=0 dv=0 dx=0 dy=0 dh=250 dv=0
PairPos2: "'kern' Horizontal Kerning in Arabic lookup 0 subtable" uniFBD5 dx=0 dy=0 dh=0 dv=0 dx=0 dy=0 dh=250 dv=0
PairPos2: "'kern' Horizontal Kerning in Arabic lookup 0 subtable" uni06AB.ini dx=0 dy=0 dh=0 dv=0 dx=0 dy=0 dh=250 dv=0
PairPos2: "'kern' Horizontal Kerning in Arabic lookup 0 subtable" uniFB90 dx=0 dy=0 dh=0 dv=0 dx=0 dy=0 dh=250 dv=0
PairPos2: "'kern' Horizontal Kerning in Arabic lookup 0 subtable" uniFEDB dx=0 dy=0 dh=0 dv=0 dx=0 dy=0 dh=250 dv=0
PairPos2: "'kern' Horizontal Kerning in Arabic lookup 0 subtable" uni0671 dx=0 dy=0 dh=0 dv=0 dx=0 dy=0 dh=200 dv=0
PairPos2: "'kern' Horizontal Kerning in Arabic lookup 0 subtable" afii57410 dx=0 dy=0 dh=0 dv=0 dx=0 dy=0 dh=200 dv=0
PairPos2: "'kern' Horizontal Kerning in Arabic lookup 0 subtable" afii57415 dx=0 dy=0 dh=0 dv=0 dx=0 dy=0 dh=50 dv=0
EndChar

StartChar: quotesingle
Encoding: 39 39 10
Width: 569
GlyphClass: 2
Flags: W
LayerCount: 2
Fore
SplineSet
289 1415 m 0,0,1
 334 1415 334 1415 356.5 1385 c 128,-1,2
 379 1355 379 1355 379 1299 c 0,3,4
 379 1278 379 1278 375 1238.5 c 128,-1,5
 371 1199 371 1199 364.5 1150.5 c 128,-1,6
 358 1102 358 1102 349.5 1048 c 128,-1,7
 341 994 341 994 332.5 942.5 c 128,-1,8
 324 891 324 891 316 845.5 c 128,-1,9
 308 800 308 800 303 769 c 1,10,-1
 267 769 l 1,11,12
 249 888 249 888 236.5 971.5 c 128,-1,13
 224 1055 224 1055 216 1111.5 c 128,-1,14
 208 1168 208 1168 203.5 1202 c 128,-1,15
 199 1236 199 1236 196.5 1255.5 c 128,-1,16
 194 1275 194 1275 193.5 1284 c 128,-1,17
 193 1293 193 1293 193 1299 c 0,18,19
 193 1353 193 1353 217 1384 c 128,-1,20
 241 1415 241 1415 289 1415 c 0,0,1
EndSplineSet
PairPos2: "'kern' Horizontal Kerning in Arabic lookup 0 subtable" afii57509 dx=0 dy=0 dh=0 dv=0 dx=0 dy=0 dh=250 dv=0
PairPos2: "'kern' Horizontal Kerning in Arabic lookup 0 subtable" uni06AB dx=0 dy=0 dh=0 dv=0 dx=0 dy=0 dh=250 dv=0
PairPos2: "'kern' Horizontal Kerning in Arabic lookup 0 subtable" uni06A9 dx=0 dy=0 dh=0 dv=0 dx=0 dy=0 dh=250 dv=0
PairPos2: "'kern' Horizontal Kerning in Arabic lookup 0 subtable" uniFB94 dx=0 dy=0 dh=0 dv=0 dx=0 dy=0 dh=250 dv=0
PairPos2: "'kern' Horizontal Kerning in Arabic lookup 0 subtable" uniFBD5 dx=0 dy=0 dh=0 dv=0 dx=0 dy=0 dh=250 dv=0
PairPos2: "'kern' Horizontal Kerning in Arabic lookup 0 subtable" uni06AB.ini dx=0 dy=0 dh=0 dv=0 dx=0 dy=0 dh=250 dv=0
PairPos2: "'kern' Horizontal Kerning in Arabic lookup 0 subtable" uniFB90 dx=0 dy=0 dh=0 dv=0 dx=0 dy=0 dh=250 dv=0
PairPos2: "'kern' Horizontal Kerning in Arabic lookup 0 subtable" uniFEDB dx=0 dy=0 dh=0 dv=0 dx=0 dy=0 dh=250 dv=0
PairPos2: "'kern' Horizontal Kerning in Arabic lookup 0 subtable" uni0671 dx=0 dy=0 dh=0 dv=0 dx=0 dy=0 dh=200 dv=0
PairPos2: "'kern' Horizontal Kerning in Arabic lookup 0 subtable" afii57410 dx=0 dy=0 dh=0 dv=0 dx=0 dy=0 dh=200 dv=0
PairPos2: "'kern' Horizontal Kerning in Arabic lookup 0 subtable" afii57415 dx=0 dy=0 dh=0 dv=0 dx=0 dy=0 dh=50 dv=0
EndChar

StartChar: parenleft
Encoding: 40 40 11
Width: 819
GlyphClass: 2
Flags: W
LayerCount: 2
Fore
SplineSet
619 -496 m 1,0,1
 619 -531 619 -531 585 -531 c 0,2,3
 574 -531 574 -531 565.5 -527 c 128,-1,4
 557 -523 557 -523 548 -515 c 0,5,6
 507 -482 507 -482 465 -440 c 128,-1,7
 423 -398 423 -398 383 -348 c 128,-1,8
 343 -298 343 -298 307.5 -242 c 128,-1,9
 272 -186 272 -186 243 -126 c 0,10,11
 176 17 176 17 139 176.5 c 128,-1,12
 102 336 102 336 100 495 c 0,13,14
 100 567 100 567 110.5 644 c 128,-1,15
 121 721 121 721 140 798 c 128,-1,16
 159 875 159 875 186 951.5 c 128,-1,17
 213 1028 213 1028 245 1100 c 0,18,19
 310 1231 310 1231 386.5 1335 c 128,-1,20
 463 1439 463 1439 548 1505 c 0,21,22
 574 1525 574 1525 589 1525 c 0,23,24
 619 1525 619 1525 619 1495 c 0,25,26
 619 1485 619 1485 613.5 1471 c 128,-1,27
 608 1457 608 1457 598 1440 c 0,28,29
 450 1191 450 1191 373.5 953 c 128,-1,30
 297 715 297 715 297 495 c 0,31,32
 297 359 297 359 321 221 c 128,-1,33
 345 83 345 83 390 -55 c 0,34,35
 433 -175 433 -175 484.5 -273.5 c 128,-1,36
 536 -372 536 -372 596 -446 c 1,37,-1
 594 -447 l 1,38,-1
 619 -496 l 1,0,1
EndSplineSet
Substitution2: "Single Substitution lookup 34 subtable" zerowidthspace
PairPos2: "'kern' Horizontal Kerning in Arabic lookup 0 subtable" afii57509 dx=0 dy=0 dh=0 dv=0 dx=0 dy=0 dh=250 dv=0
PairPos2: "'kern' Horizontal Kerning in Arabic lookup 0 subtable" uni06AB dx=0 dy=0 dh=0 dv=0 dx=0 dy=0 dh=250 dv=0
PairPos2: "'kern' Horizontal Kerning in Arabic lookup 0 subtable" uni06A9 dx=0 dy=0 dh=0 dv=0 dx=0 dy=0 dh=250 dv=0
PairPos2: "'kern' Horizontal Kerning in Arabic lookup 0 subtable" uniFB94 dx=0 dy=0 dh=0 dv=0 dx=0 dy=0 dh=250 dv=0
PairPos2: "'kern' Horizontal Kerning in Arabic lookup 0 subtable" uniFBD5 dx=0 dy=0 dh=0 dv=0 dx=0 dy=0 dh=250 dv=0
PairPos2: "'kern' Horizontal Kerning in Arabic lookup 0 subtable" uni06AB.ini dx=0 dy=0 dh=0 dv=0 dx=0 dy=0 dh=250 dv=0
PairPos2: "'kern' Horizontal Kerning in Arabic lookup 0 subtable" uniFB90 dx=0 dy=0 dh=0 dv=0 dx=0 dy=0 dh=250 dv=0
PairPos2: "'kern' Horizontal Kerning in Arabic lookup 0 subtable" uniFEDB dx=0 dy=0 dh=0 dv=0 dx=0 dy=0 dh=250 dv=0
PairPos2: "'kern' Horizontal Kerning in Arabic lookup 0 subtable" uni0671 dx=0 dy=0 dh=0 dv=0 dx=0 dy=0 dh=200 dv=0
PairPos2: "'kern' Horizontal Kerning in Arabic lookup 0 subtable" afii57410 dx=0 dy=0 dh=0 dv=0 dx=0 dy=0 dh=200 dv=0
PairPos2: "'kern' Horizontal Kerning in Arabic lookup 0 subtable" afii57415 dx=0 dy=0 dh=0 dv=0 dx=0 dy=0 dh=50 dv=0
EndChar

StartChar: parenright
Encoding: 41 41 12
Width: 818
GlyphClass: 2
Flags: W
LayerCount: 2
Fore
SplineSet
100 1492 m 1,0,1
 100 1526 100 1526 130 1526 c 0,2,3
 150 1526 150 1526 171 1511 c 0,4,5
 260 1445 260 1445 336.5 1346.5 c 128,-1,6
 413 1248 413 1248 476 1119 c 0,7,8
 508 1050 508 1050 534 973.5 c 128,-1,9
 560 897 560 897 579 817.5 c 128,-1,10
 598 738 598 738 608 657 c 128,-1,11
 618 576 618 576 618 498 c 0,12,13
 618 346 618 346 581.5 196 c 128,-1,14
 545 46 545 46 473 -106 c 0,15,16
 410 -238 410 -238 331.5 -340.5 c 128,-1,17
 253 -443 253 -443 171 -509 c 0,18,19
 160 -519 160 -519 150 -525 c 128,-1,20
 140 -531 140 -531 129 -531 c 0,21,22
 100 -531 100 -531 100 -499 c 0,23,24
 100 -491 100 -491 104.5 -477.5 c 128,-1,25
 109 -464 109 -464 118 -448 c 0,26,27
 422 54 422 54 421 498 c 0,28,29
 421 636 421 636 397 773 c 128,-1,30
 373 910 373 910 325 1049 c 0,31,32
 284 1170 284 1170 232 1268 c 128,-1,33
 180 1366 180 1366 120 1441 c 1,34,-1
 100 1492 l 1,0,1
EndSplineSet
Substitution2: "Single Substitution lookup 34 subtable" zerowidthspace
PairPos2: "'kern' Horizontal Kerning in Arabic lookup 0 subtable" afii57509 dx=0 dy=0 dh=0 dv=0 dx=0 dy=0 dh=250 dv=0
PairPos2: "'kern' Horizontal Kerning in Arabic lookup 0 subtable" uni06AB dx=0 dy=0 dh=0 dv=0 dx=0 dy=0 dh=250 dv=0
PairPos2: "'kern' Horizontal Kerning in Arabic lookup 0 subtable" uni06A9 dx=0 dy=0 dh=0 dv=0 dx=0 dy=0 dh=250 dv=0
PairPos2: "'kern' Horizontal Kerning in Arabic lookup 0 subtable" uniFB94 dx=0 dy=0 dh=0 dv=0 dx=0 dy=0 dh=250 dv=0
PairPos2: "'kern' Horizontal Kerning in Arabic lookup 0 subtable" uniFBD5 dx=0 dy=0 dh=0 dv=0 dx=0 dy=0 dh=250 dv=0
PairPos2: "'kern' Horizontal Kerning in Arabic lookup 0 subtable" uni06AB.ini dx=0 dy=0 dh=0 dv=0 dx=0 dy=0 dh=250 dv=0
PairPos2: "'kern' Horizontal Kerning in Arabic lookup 0 subtable" uniFB90 dx=0 dy=0 dh=0 dv=0 dx=0 dy=0 dh=250 dv=0
PairPos2: "'kern' Horizontal Kerning in Arabic lookup 0 subtable" uniFEDB dx=0 dy=0 dh=0 dv=0 dx=0 dy=0 dh=250 dv=0
PairPos2: "'kern' Horizontal Kerning in Arabic lookup 0 subtable" uni0671 dx=0 dy=0 dh=0 dv=0 dx=0 dy=0 dh=200 dv=0
PairPos2: "'kern' Horizontal Kerning in Arabic lookup 0 subtable" afii57410 dx=0 dy=0 dh=0 dv=0 dx=0 dy=0 dh=200 dv=0
PairPos2: "'kern' Horizontal Kerning in Arabic lookup 0 subtable" afii57415 dx=0 dy=0 dh=0 dv=0 dx=0 dy=0 dh=50 dv=0
EndChar

StartChar: asterisk
Encoding: 42 42 13
Width: 1024
GlyphClass: 2
Flags: W
LayerCount: 2
Fore
SplineSet
475 985 m 1,0,-1
 468 985 l 1,1,2
 419 1008 419 1008 221 1041 c 0,3,4
 125 1058 125 1058 125 1146 c 0,5,6
 125 1168 125 1168 133 1186 c 128,-1,7
 141 1204 141 1204 153.5 1217 c 128,-1,8
 166 1230 166 1230 181 1237 c 128,-1,9
 196 1244 196 1244 210 1244 c 0,10,11
 271 1244 271 1244 315 1173 c 0,12,13
 353 1113 353 1113 394 1074 c 128,-1,14
 435 1035 435 1035 477 1020 c 1,15,16
 495 1024 495 1024 502 1035 c 128,-1,17
 509 1046 509 1046 509 1061 c 256,18,19
 509 1076 509 1076 503.5 1094.5 c 128,-1,20
 498 1113 498 1113 490.5 1131 c 128,-1,21
 483 1149 483 1149 475.5 1165.5 c 128,-1,22
 468 1182 468 1182 464 1194 c 1,23,-1
 464 1193 l 1,24,25
 423 1261 423 1261 423 1315 c 0,26,27
 423 1371 423 1371 450 1395.5 c 128,-1,28
 477 1420 477 1420 513 1420 c 0,29,30
 546 1420 546 1420 572 1392 c 128,-1,31
 598 1364 598 1364 598 1307 c 0,32,33
 598 1287 598 1287 587.5 1259 c 128,-1,34
 577 1231 577 1231 560 1197 c 0,35,36
 549 1177 549 1177 538.5 1144.5 c 128,-1,37
 528 1112 528 1112 528 1081 c 0,38,39
 528 1060 528 1060 535 1042.5 c 128,-1,40
 542 1025 542 1025 559 1015 c 1,41,42
 597 1044 597 1044 636 1084.5 c 128,-1,43
 675 1125 675 1125 701 1160 c 0,44,45
 729 1199 729 1199 759 1224.5 c 128,-1,46
 789 1250 789 1250 813 1250 c 0,47,48
 851 1250 851 1250 875 1221 c 128,-1,49
 899 1192 899 1192 899 1148 c 0,50,51
 899 1102 899 1102 863 1074 c 128,-1,52
 827 1046 827 1046 760 1036 c 0,53,54
 685 1025 685 1025 632 1009.5 c 128,-1,55
 579 994 579 994 558 977 c 1,56,-1
 560 963 l 1,57,58
 609 933 609 933 794 910 c 0,59,60
 899 897 899 897 899 802 c 0,61,62
 899 760 899 760 875 731 c 128,-1,63
 851 702 851 702 814 702 c 0,64,65
 757 702 757 702 692 804 c 0,66,67
 662 853 662 853 624.5 884 c 128,-1,68
 587 915 587 915 545 928 c 1,69,70
 531 925 531 925 525.5 914 c 128,-1,71
 520 903 520 903 520 887 c 256,72,73
 520 871 520 871 525 851 c 128,-1,74
 530 831 530 831 537 811.5 c 128,-1,75
 544 792 544 792 551.5 775 c 128,-1,76
 559 758 559 758 564 747 c 0,77,78
 581 712 581 712 592 682.5 c 128,-1,79
 603 653 603 653 603 633 c 0,80,81
 603 576 603 576 576.5 551 c 128,-1,82
 550 526 550 526 510 526 c 0,83,84
 494 526 494 526 479 534 c 128,-1,85
 464 542 464 542 452.5 556 c 128,-1,86
 441 570 441 570 434 590 c 128,-1,87
 427 610 427 610 427 634 c 0,88,89
 427 679 427 679 466 754 c 0,90,91
 510 837 510 837 510 884 c 0,92,93
 510 889 510 889 509 894 c 128,-1,94
 508 899 508 899 504 904.5 c 128,-1,95
 500 910 500 910 492 917 c 128,-1,96
 484 924 484 924 470 932 c 1,97,98
 378 869 378 869 322 786 c 0,99,100
 264 698 264 698 219 698 c 0,101,102
 198 698 198 698 181.5 706.5 c 128,-1,103
 165 715 165 715 153.5 728.5 c 128,-1,104
 142 742 142 742 136 759.5 c 128,-1,105
 130 777 130 777 130 795 c 0,106,107
 130 853 130 853 167 882.5 c 128,-1,108
 204 912 204 912 262 914 c 0,109,110
 351 917 351 917 385 926 c 0,111,112
 427 937 427 937 469 970 c 1,113,-1
 475 970 l 1,114,-1
 475 985 l 1,0,-1
EndSplineSet
PairPos2: "'kern' Horizontal Kerning in Arabic lookup 0 subtable" afii57509 dx=0 dy=0 dh=0 dv=0 dx=0 dy=0 dh=250 dv=0
PairPos2: "'kern' Horizontal Kerning in Arabic lookup 0 subtable" uni06AB dx=0 dy=0 dh=0 dv=0 dx=0 dy=0 dh=250 dv=0
PairPos2: "'kern' Horizontal Kerning in Arabic lookup 0 subtable" uni06A9 dx=0 dy=0 dh=0 dv=0 dx=0 dy=0 dh=250 dv=0
PairPos2: "'kern' Horizontal Kerning in Arabic lookup 0 subtable" uniFB94 dx=0 dy=0 dh=0 dv=0 dx=0 dy=0 dh=250 dv=0
PairPos2: "'kern' Horizontal Kerning in Arabic lookup 0 subtable" uniFBD5 dx=0 dy=0 dh=0 dv=0 dx=0 dy=0 dh=250 dv=0
PairPos2: "'kern' Horizontal Kerning in Arabic lookup 0 subtable" uni06AB.ini dx=0 dy=0 dh=0 dv=0 dx=0 dy=0 dh=250 dv=0
PairPos2: "'kern' Horizontal Kerning in Arabic lookup 0 subtable" uniFB90 dx=0 dy=0 dh=0 dv=0 dx=0 dy=0 dh=250 dv=0
PairPos2: "'kern' Horizontal Kerning in Arabic lookup 0 subtable" uniFEDB dx=0 dy=0 dh=0 dv=0 dx=0 dy=0 dh=250 dv=0
PairPos2: "'kern' Horizontal Kerning in Arabic lookup 0 subtable" uni0671 dx=0 dy=0 dh=0 dv=0 dx=0 dy=0 dh=200 dv=0
PairPos2: "'kern' Horizontal Kerning in Arabic lookup 0 subtable" afii57410 dx=0 dy=0 dh=0 dv=0 dx=0 dy=0 dh=200 dv=0
PairPos2: "'kern' Horizontal Kerning in Arabic lookup 0 subtable" afii57415 dx=0 dy=0 dh=0 dv=0 dx=0 dy=0 dh=50 dv=0
EndChar

StartChar: plus
Encoding: 43 43 14
Width: 1050
GlyphClass: 2
Flags: W
LayerCount: 2
Fore
SplineSet
7 641 m 1,0,-1
 435 641 l 1,1,-1
 435 1067 l 1,2,-1
 616 1067 l 1,3,-1
 616 641 l 1,4,-1
 1044 641 l 1,5,-1
 1044 428 l 1,6,-1
 616 428 l 1,7,-1
 616 0 l 1,8,-1
 435 0 l 1,9,-1
 435 428 l 1,10,-1
 7 428 l 1,11,-1
 7 641 l 1,0,-1
EndSplineSet
PairPos2: "'kern' Horizontal Kerning in Arabic lookup 0 subtable" afii57509 dx=0 dy=0 dh=0 dv=0 dx=0 dy=0 dh=250 dv=0
PairPos2: "'kern' Horizontal Kerning in Arabic lookup 0 subtable" uni06AB dx=0 dy=0 dh=0 dv=0 dx=0 dy=0 dh=250 dv=0
PairPos2: "'kern' Horizontal Kerning in Arabic lookup 0 subtable" uni06A9 dx=0 dy=0 dh=0 dv=0 dx=0 dy=0 dh=250 dv=0
PairPos2: "'kern' Horizontal Kerning in Arabic lookup 0 subtable" uniFB94 dx=0 dy=0 dh=0 dv=0 dx=0 dy=0 dh=250 dv=0
PairPos2: "'kern' Horizontal Kerning in Arabic lookup 0 subtable" uniFBD5 dx=0 dy=0 dh=0 dv=0 dx=0 dy=0 dh=250 dv=0
PairPos2: "'kern' Horizontal Kerning in Arabic lookup 0 subtable" uni06AB.ini dx=0 dy=0 dh=0 dv=0 dx=0 dy=0 dh=250 dv=0
PairPos2: "'kern' Horizontal Kerning in Arabic lookup 0 subtable" uniFB90 dx=0 dy=0 dh=0 dv=0 dx=0 dy=0 dh=250 dv=0
PairPos2: "'kern' Horizontal Kerning in Arabic lookup 0 subtable" uniFEDB dx=0 dy=0 dh=0 dv=0 dx=0 dy=0 dh=250 dv=0
PairPos2: "'kern' Horizontal Kerning in Arabic lookup 0 subtable" uni0671 dx=0 dy=0 dh=0 dv=0 dx=0 dy=0 dh=200 dv=0
PairPos2: "'kern' Horizontal Kerning in Arabic lookup 0 subtable" afii57410 dx=0 dy=0 dh=0 dv=0 dx=0 dy=0 dh=200 dv=0
PairPos2: "'kern' Horizontal Kerning in Arabic lookup 0 subtable" afii57415 dx=0 dy=0 dh=0 dv=0 dx=0 dy=0 dh=50 dv=0
EndChar

StartChar: comma
Encoding: 44 44 15
Width: 512
GlyphClass: 2
Flags: W
LayerCount: 2
Fore
SplineSet
103 -321 m 1,0,1
 167 -277 167 -277 210 -240 c 128,-1,2
 253 -203 253 -203 279.5 -171 c 128,-1,3
 306 -139 306 -139 317.5 -110.5 c 128,-1,4
 329 -82 329 -82 329 -55 c 0,5,6
 329 -36 329 -36 311.5 -27.5 c 128,-1,7
 294 -19 294 -19 267.5 -13.5 c 128,-1,8
 241 -8 241 -8 210.5 -1.5 c 128,-1,9
 180 5 180 5 153.5 20.5 c 128,-1,10
 127 36 127 36 109.5 65.5 c 128,-1,11
 92 95 92 95 92 145 c 0,12,13
 92 189 92 189 104.5 221.5 c 128,-1,14
 117 254 117 254 138.5 275.5 c 128,-1,15
 160 297 160 297 188 308 c 128,-1,16
 216 319 216 319 246 319 c 0,17,18
 285 319 285 319 320 304 c 128,-1,19
 355 289 355 289 381.5 259 c 128,-1,20
 408 229 408 229 424 184.5 c 128,-1,21
 440 140 440 140 440 81 c 0,22,23
 440 -88 440 -88 313 -220 c 0,24,25
 275 -260 275 -260 227.5 -294.5 c 128,-1,26
 180 -329 180 -329 124 -361 c 1,27,-1
 103 -321 l 1,0,1
EndSplineSet
PairPos2: "'kern' Horizontal Kerning in Arabic lookup 0 subtable" afii57509 dx=0 dy=0 dh=0 dv=0 dx=0 dy=0 dh=250 dv=0
PairPos2: "'kern' Horizontal Kerning in Arabic lookup 0 subtable" uni06AB dx=0 dy=0 dh=0 dv=0 dx=0 dy=0 dh=250 dv=0
PairPos2: "'kern' Horizontal Kerning in Arabic lookup 0 subtable" uni06A9 dx=0 dy=0 dh=0 dv=0 dx=0 dy=0 dh=250 dv=0
PairPos2: "'kern' Horizontal Kerning in Arabic lookup 0 subtable" uniFB94 dx=0 dy=0 dh=0 dv=0 dx=0 dy=0 dh=250 dv=0
PairPos2: "'kern' Horizontal Kerning in Arabic lookup 0 subtable" uniFBD5 dx=0 dy=0 dh=0 dv=0 dx=0 dy=0 dh=250 dv=0
PairPos2: "'kern' Horizontal Kerning in Arabic lookup 0 subtable" uni06AB.ini dx=0 dy=0 dh=0 dv=0 dx=0 dy=0 dh=250 dv=0
PairPos2: "'kern' Horizontal Kerning in Arabic lookup 0 subtable" uniFB90 dx=0 dy=0 dh=0 dv=0 dx=0 dy=0 dh=250 dv=0
PairPos2: "'kern' Horizontal Kerning in Arabic lookup 0 subtable" uniFEDB dx=0 dy=0 dh=0 dv=0 dx=0 dy=0 dh=250 dv=0
PairPos2: "'kern' Horizontal Kerning in Arabic lookup 0 subtable" uni0671 dx=0 dy=0 dh=0 dv=0 dx=0 dy=0 dh=200 dv=0
PairPos2: "'kern' Horizontal Kerning in Arabic lookup 0 subtable" afii57410 dx=0 dy=0 dh=0 dv=0 dx=0 dy=0 dh=200 dv=0
PairPos2: "'kern' Horizontal Kerning in Arabic lookup 0 subtable" afii57415 dx=0 dy=0 dh=0 dv=0 dx=0 dy=0 dh=50 dv=0
EndChar

StartChar: hyphen
Encoding: 45 45 16
AltUni2: 002212.ffffffff.0 0000ad.ffffffff.0
Width: 1050
GlyphClass: 2
Flags: W
LayerCount: 2
Fore
SplineSet
120 641 m 1,0,-1
 930 641 l 1,1,-1
 930 428 l 1,2,-1
 120 428 l 1,3,-1
 120 641 l 1,0,-1
EndSplineSet
Substitution2: "<17011,16011>  in Arabic lookup 68 nested-substitutions 0 subtable" hyphenlow
Substitution2: "<17010,16010>  in Arabic lookup 66 nested-substitutions 0 subtable" hyphenlow
Substitution2: "Single Substitution lookup 34 subtable" hyphenlow
PairPos2: "'kern' Horizontal Kerning in Arabic lookup 0 subtable" afii57509 dx=0 dy=0 dh=0 dv=0 dx=0 dy=0 dh=250 dv=0
PairPos2: "'kern' Horizontal Kerning in Arabic lookup 0 subtable" uni06AB dx=0 dy=0 dh=0 dv=0 dx=0 dy=0 dh=250 dv=0
PairPos2: "'kern' Horizontal Kerning in Arabic lookup 0 subtable" uni06A9 dx=0 dy=0 dh=0 dv=0 dx=0 dy=0 dh=250 dv=0
PairPos2: "'kern' Horizontal Kerning in Arabic lookup 0 subtable" uniFB94 dx=0 dy=0 dh=0 dv=0 dx=0 dy=0 dh=250 dv=0
PairPos2: "'kern' Horizontal Kerning in Arabic lookup 0 subtable" uniFBD5 dx=0 dy=0 dh=0 dv=0 dx=0 dy=0 dh=250 dv=0
PairPos2: "'kern' Horizontal Kerning in Arabic lookup 0 subtable" uni06AB.ini dx=0 dy=0 dh=0 dv=0 dx=0 dy=0 dh=250 dv=0
PairPos2: "'kern' Horizontal Kerning in Arabic lookup 0 subtable" uniFB90 dx=0 dy=0 dh=0 dv=0 dx=0 dy=0 dh=250 dv=0
PairPos2: "'kern' Horizontal Kerning in Arabic lookup 0 subtable" uniFEDB dx=0 dy=0 dh=0 dv=0 dx=0 dy=0 dh=250 dv=0
PairPos2: "'kern' Horizontal Kerning in Arabic lookup 0 subtable" uni0671 dx=0 dy=0 dh=0 dv=0 dx=0 dy=0 dh=200 dv=0
PairPos2: "'kern' Horizontal Kerning in Arabic lookup 0 subtable" afii57410 dx=0 dy=0 dh=0 dv=0 dx=0 dy=0 dh=200 dv=0
PairPos2: "'kern' Horizontal Kerning in Arabic lookup 0 subtable" afii57415 dx=0 dy=0 dh=0 dv=0 dx=0 dy=0 dh=50 dv=0
EndChar

StartChar: period
Encoding: 46 46 17
Width: 560
GlyphClass: 2
Flags: W
LayerCount: 2
Fore
SplineSet
360 264 m 0,0,1
 360 239 360 239 350.5 215 c 128,-1,2
 341 191 341 191 324 172.5 c 128,-1,3
 307 154 307 154 283.5 143 c 128,-1,4
 260 132 260 132 233 132 c 0,5,6
 208 132 208 132 184 142 c 128,-1,7
 160 152 160 152 141.5 169.5 c 128,-1,8
 123 187 123 187 111.5 210.5 c 128,-1,9
 100 234 100 234 100 261 c 0,10,11
 100 289 100 289 111 313.5 c 128,-1,12
 122 338 122 338 141 356 c 128,-1,13
 160 374 160 374 184 384.5 c 128,-1,14
 208 395 208 395 233 395 c 0,15,16
 260 395 260 395 283 384.5 c 128,-1,17
 306 374 306 374 323.5 356.5 c 128,-1,18
 341 339 341 339 350.5 315 c 128,-1,19
 360 291 360 291 360 264 c 0,0,1
EndSplineSet
Substitution2: "<17016,16016> Urdu Swash lookup 75 subtable" uni06D4
Substitution2: "<17012,16012> Period to Comma in Arabic lookup 70 nested-substitutions 0 subtable" uni066C
Substitution2: "Single Substitution lookup 34 subtable" uni066C
Substitution2: "'salt' Stylistic Alternatives in Arabic lookup 28 subtable" uni06D4
PairPos2: "'kern' Horizontal Kerning in Arabic lookup 0 subtable" afii57509 dx=0 dy=0 dh=0 dv=0 dx=0 dy=0 dh=250 dv=0
PairPos2: "'kern' Horizontal Kerning in Arabic lookup 0 subtable" uni06AB dx=0 dy=0 dh=0 dv=0 dx=0 dy=0 dh=250 dv=0
PairPos2: "'kern' Horizontal Kerning in Arabic lookup 0 subtable" uni06A9 dx=0 dy=0 dh=0 dv=0 dx=0 dy=0 dh=250 dv=0
PairPos2: "'kern' Horizontal Kerning in Arabic lookup 0 subtable" uniFB94 dx=0 dy=0 dh=0 dv=0 dx=0 dy=0 dh=250 dv=0
PairPos2: "'kern' Horizontal Kerning in Arabic lookup 0 subtable" uniFBD5 dx=0 dy=0 dh=0 dv=0 dx=0 dy=0 dh=250 dv=0
PairPos2: "'kern' Horizontal Kerning in Arabic lookup 0 subtable" uni06AB.ini dx=0 dy=0 dh=0 dv=0 dx=0 dy=0 dh=250 dv=0
PairPos2: "'kern' Horizontal Kerning in Arabic lookup 0 subtable" uniFB90 dx=0 dy=0 dh=0 dv=0 dx=0 dy=0 dh=250 dv=0
PairPos2: "'kern' Horizontal Kerning in Arabic lookup 0 subtable" uniFEDB dx=0 dy=0 dh=0 dv=0 dx=0 dy=0 dh=250 dv=0
PairPos2: "'kern' Horizontal Kerning in Arabic lookup 0 subtable" uni0671 dx=0 dy=0 dh=0 dv=0 dx=0 dy=0 dh=200 dv=0
PairPos2: "'kern' Horizontal Kerning in Arabic lookup 0 subtable" afii57410 dx=0 dy=0 dh=0 dv=0 dx=0 dy=0 dh=200 dv=0
PairPos2: "'kern' Horizontal Kerning in Arabic lookup 0 subtable" afii57415 dx=0 dy=0 dh=0 dv=0 dx=0 dy=0 dh=50 dv=0
EndChar

StartChar: slash
Encoding: 47 47 18
Width: 569
GlyphClass: 2
Flags: W
LayerCount: 2
Fore
SplineSet
462 1417 m 1,0,-1
 583 1417 l 1,1,-1
 105 -34 l 1,2,-1
 -16 -34 l 1,3,-1
 462 1417 l 1,0,-1
EndSplineSet
Substitution2: "<17016,16016> Urdu Swash lookup 75 subtable" slash
PairPos2: "'kern' Horizontal Kerning in Arabic lookup 0 subtable" afii57509 dx=0 dy=0 dh=0 dv=0 dx=0 dy=0 dh=250 dv=0
PairPos2: "'kern' Horizontal Kerning in Arabic lookup 0 subtable" uni06AB dx=0 dy=0 dh=0 dv=0 dx=0 dy=0 dh=250 dv=0
PairPos2: "'kern' Horizontal Kerning in Arabic lookup 0 subtable" uni06A9 dx=0 dy=0 dh=0 dv=0 dx=0 dy=0 dh=250 dv=0
PairPos2: "'kern' Horizontal Kerning in Arabic lookup 0 subtable" uniFB94 dx=0 dy=0 dh=0 dv=0 dx=0 dy=0 dh=250 dv=0
PairPos2: "'kern' Horizontal Kerning in Arabic lookup 0 subtable" uniFBD5 dx=0 dy=0 dh=0 dv=0 dx=0 dy=0 dh=250 dv=0
PairPos2: "'kern' Horizontal Kerning in Arabic lookup 0 subtable" uni06AB.ini dx=0 dy=0 dh=0 dv=0 dx=0 dy=0 dh=250 dv=0
PairPos2: "'kern' Horizontal Kerning in Arabic lookup 0 subtable" uniFB90 dx=0 dy=0 dh=0 dv=0 dx=0 dy=0 dh=250 dv=0
PairPos2: "'kern' Horizontal Kerning in Arabic lookup 0 subtable" uniFEDB dx=0 dy=0 dh=0 dv=0 dx=0 dy=0 dh=250 dv=0
PairPos2: "'kern' Horizontal Kerning in Arabic lookup 0 subtable" uni0671 dx=0 dy=0 dh=0 dv=0 dx=0 dy=0 dh=200 dv=0
PairPos2: "'kern' Horizontal Kerning in Arabic lookup 0 subtable" afii57410 dx=0 dy=0 dh=0 dv=0 dx=0 dy=0 dh=200 dv=0
PairPos2: "'kern' Horizontal Kerning in Arabic lookup 0 subtable" afii57415 dx=0 dy=0 dh=0 dv=0 dx=0 dy=0 dh=50 dv=0
EndChar

StartChar: zero
Encoding: 48 48 19
Width: 1024
GlyphClass: 2
Flags: W
LayerCount: 2
Fore
SplineSet
511 32 m 0,0,1
 560 32 560 32 594 76 c 128,-1,2
 628 120 628 120 645 193 c 0,3,4
 662 284 662 284 662 455 c 2,5,-1
 662 924 l 2,6,7
 662 1048 662 1048 653 1129.5 c 128,-1,8
 644 1211 644 1211 625.5 1259 c 128,-1,9
 607 1307 607 1307 578 1326.5 c 128,-1,10
 549 1346 549 1346 509 1346 c 0,11,12
 427 1346 427 1346 391 1258 c 0,13,14
 372 1213 372 1213 363.5 1130 c 128,-1,15
 355 1047 355 1047 355 924 c 2,16,-1
 355 455 l 2,17,18
 355 336 355 336 365.5 251 c 128,-1,19
 376 166 376 166 392 118 c 1,20,21
 410 82 410 82 441.5 57 c 128,-1,22
 473 32 473 32 511 32 c 0,0,1
222 1248 m 0,23,24
 352 1408 352 1408 508 1408 c 0,25,26
 690 1408 690 1408 824 1211 c 0,27,28
 891 1112 891 1112 923.5 986 c 128,-1,29
 956 860 956 860 956 703 c 0,30,31
 956 339 956 339 806 141 c 0,32,33
 677 -28 677 -28 509 -28 c 0,34,35
 392 -28 392 -28 304 46 c 0,36,37
 264 80 264 80 226.5 128.5 c 128,-1,38
 189 177 189 177 155 238 c 0,39,40
 129 285 129 285 111.5 342 c 128,-1,41
 94 399 94 399 81 464 c 0,42,43
 74 502 74 502 70 556 c 128,-1,44
 66 610 66 610 61 680 c 1,45,46
 61 1051 61 1051 222 1248 c 0,23,24
EndSplineSet
Substitution2: "<17016,16016> Urdu Swash lookup 75 subtable" zero
PairPos2: "'kern' Horizontal Kerning in Arabic lookup 0 subtable" afii57509 dx=0 dy=0 dh=0 dv=0 dx=0 dy=0 dh=250 dv=0
PairPos2: "'kern' Horizontal Kerning in Arabic lookup 0 subtable" uni06AB dx=0 dy=0 dh=0 dv=0 dx=0 dy=0 dh=250 dv=0
PairPos2: "'kern' Horizontal Kerning in Arabic lookup 0 subtable" uni06A9 dx=0 dy=0 dh=0 dv=0 dx=0 dy=0 dh=250 dv=0
PairPos2: "'kern' Horizontal Kerning in Arabic lookup 0 subtable" uniFB94 dx=0 dy=0 dh=0 dv=0 dx=0 dy=0 dh=250 dv=0
PairPos2: "'kern' Horizontal Kerning in Arabic lookup 0 subtable" uniFBD5 dx=0 dy=0 dh=0 dv=0 dx=0 dy=0 dh=250 dv=0
PairPos2: "'kern' Horizontal Kerning in Arabic lookup 0 subtable" uni06AB.ini dx=0 dy=0 dh=0 dv=0 dx=0 dy=0 dh=250 dv=0
PairPos2: "'kern' Horizontal Kerning in Arabic lookup 0 subtable" uniFB90 dx=0 dy=0 dh=0 dv=0 dx=0 dy=0 dh=250 dv=0
PairPos2: "'kern' Horizontal Kerning in Arabic lookup 0 subtable" uniFEDB dx=0 dy=0 dh=0 dv=0 dx=0 dy=0 dh=250 dv=0
PairPos2: "'kern' Horizontal Kerning in Arabic lookup 0 subtable" uni0671 dx=0 dy=0 dh=0 dv=0 dx=0 dy=0 dh=200 dv=0
PairPos2: "'kern' Horizontal Kerning in Arabic lookup 0 subtable" afii57410 dx=0 dy=0 dh=0 dv=0 dx=0 dy=0 dh=200 dv=0
PairPos2: "'kern' Horizontal Kerning in Arabic lookup 0 subtable" afii57415 dx=0 dy=0 dh=0 dv=0 dx=0 dy=0 dh=50 dv=0
EndChar

StartChar: one
Encoding: 49 49 20
Width: 1024
GlyphClass: 2
Flags: W
LayerCount: 2
Fore
SplineSet
151 51 m 1,0,1
 301 51 301 51 347 93 c 1,2,3
 394 142 394 142 394 254 c 2,4,-1
 394 1042 l 2,5,6
 394 1116 394 1116 374 1148 c 128,-1,7
 354 1180 354 1180 299 1180 c 0,8,9
 276 1180 276 1180 237 1170 c 128,-1,10
 198 1160 198 1160 146 1139 c 1,11,-1
 146 1189 l 1,12,-1
 654 1408 l 1,13,-1
 670 1408 l 1,14,-1
 670 242 l 2,15,16
 670 137 670 137 710 91 c 0,17,18
 746 51 746 51 890 51 c 1,19,-1
 890 0 l 1,20,-1
 151 0 l 1,21,-1
 151 51 l 1,0,1
EndSplineSet
Substitution2: "<17016,16016> Urdu Swash lookup 75 subtable" one
PairPos2: "'kern' Horizontal Kerning in Arabic lookup 0 subtable" afii57509 dx=0 dy=0 dh=0 dv=0 dx=0 dy=0 dh=250 dv=0
PairPos2: "'kern' Horizontal Kerning in Arabic lookup 0 subtable" uni06AB dx=0 dy=0 dh=0 dv=0 dx=0 dy=0 dh=250 dv=0
PairPos2: "'kern' Horizontal Kerning in Arabic lookup 0 subtable" uni06A9 dx=0 dy=0 dh=0 dv=0 dx=0 dy=0 dh=250 dv=0
PairPos2: "'kern' Horizontal Kerning in Arabic lookup 0 subtable" uniFB94 dx=0 dy=0 dh=0 dv=0 dx=0 dy=0 dh=250 dv=0
PairPos2: "'kern' Horizontal Kerning in Arabic lookup 0 subtable" uniFBD5 dx=0 dy=0 dh=0 dv=0 dx=0 dy=0 dh=250 dv=0
PairPos2: "'kern' Horizontal Kerning in Arabic lookup 0 subtable" uni06AB.ini dx=0 dy=0 dh=0 dv=0 dx=0 dy=0 dh=250 dv=0
PairPos2: "'kern' Horizontal Kerning in Arabic lookup 0 subtable" uniFB90 dx=0 dy=0 dh=0 dv=0 dx=0 dy=0 dh=250 dv=0
PairPos2: "'kern' Horizontal Kerning in Arabic lookup 0 subtable" uniFEDB dx=0 dy=0 dh=0 dv=0 dx=0 dy=0 dh=250 dv=0
PairPos2: "'kern' Horizontal Kerning in Arabic lookup 0 subtable" uni0671 dx=0 dy=0 dh=0 dv=0 dx=0 dy=0 dh=200 dv=0
PairPos2: "'kern' Horizontal Kerning in Arabic lookup 0 subtable" afii57410 dx=0 dy=0 dh=0 dv=0 dx=0 dy=0 dh=200 dv=0
PairPos2: "'kern' Horizontal Kerning in Arabic lookup 0 subtable" afii57415 dx=0 dy=0 dh=0 dv=0 dx=0 dy=0 dh=50 dv=0
EndChar

StartChar: two
Encoding: 50 50 21
Width: 1024
GlyphClass: 2
Flags: W
LayerCount: 2
Fore
SplineSet
49 53 m 1,0,1
 373 404 373 404 471 541 c 0,2,3
 626 756 626 756 626 912 c 0,4,5
 626 1003 626 1003 564 1089 c 0,6,7
 506 1173 506 1173 372 1173 c 0,8,9
 278 1173 278 1173 212 1124.5 c 128,-1,10
 146 1076 146 1076 107 989 c 1,11,-1
 77 989 l 1,12,13
 112 1096 112 1096 158.5 1174.5 c 128,-1,14
 205 1253 205 1253 262 1305 c 128,-1,15
 319 1357 319 1357 384.5 1382.5 c 128,-1,16
 450 1408 450 1408 521 1408 c 0,17,18
 587 1408 587 1408 650 1382.5 c 128,-1,19
 713 1357 713 1357 770 1309 c 0,20,21
 824 1264 824 1264 852 1189.5 c 128,-1,22
 880 1115 880 1115 881 1020 c 0,23,24
 881 969 881 969 868 917 c 128,-1,25
 855 865 855 865 827.5 811.5 c 128,-1,26
 800 758 800 758 755.5 702 c 128,-1,27
 711 646 711 646 648 586 c 2,28,-1
 337 289 l 1,29,-1
 332 289 l 1,30,-1
 332 274 l 1,31,-1
 636 274 l 2,32,33
 712 274 712 274 764 281 c 128,-1,34
 816 288 816 288 841 299 c 0,35,36
 867 315 867 315 893 348 c 128,-1,37
 919 381 919 381 941 432 c 1,38,-1
 963 432 l 1,39,-1
 871 0 l 1,40,-1
 49 0 l 1,41,-1
 49 53 l 1,0,1
EndSplineSet
Substitution2: "<17016,16016> Urdu Swash lookup 75 subtable" two
PairPos2: "'kern' Horizontal Kerning in Arabic lookup 0 subtable" afii57509 dx=0 dy=0 dh=0 dv=0 dx=0 dy=0 dh=250 dv=0
PairPos2: "'kern' Horizontal Kerning in Arabic lookup 0 subtable" uni06AB dx=0 dy=0 dh=0 dv=0 dx=0 dy=0 dh=250 dv=0
PairPos2: "'kern' Horizontal Kerning in Arabic lookup 0 subtable" uni06A9 dx=0 dy=0 dh=0 dv=0 dx=0 dy=0 dh=250 dv=0
PairPos2: "'kern' Horizontal Kerning in Arabic lookup 0 subtable" uniFB94 dx=0 dy=0 dh=0 dv=0 dx=0 dy=0 dh=250 dv=0
PairPos2: "'kern' Horizontal Kerning in Arabic lookup 0 subtable" uniFBD5 dx=0 dy=0 dh=0 dv=0 dx=0 dy=0 dh=250 dv=0
PairPos2: "'kern' Horizontal Kerning in Arabic lookup 0 subtable" uni06AB.ini dx=0 dy=0 dh=0 dv=0 dx=0 dy=0 dh=250 dv=0
PairPos2: "'kern' Horizontal Kerning in Arabic lookup 0 subtable" uniFB90 dx=0 dy=0 dh=0 dv=0 dx=0 dy=0 dh=250 dv=0
PairPos2: "'kern' Horizontal Kerning in Arabic lookup 0 subtable" uniFEDB dx=0 dy=0 dh=0 dv=0 dx=0 dy=0 dh=250 dv=0
PairPos2: "'kern' Horizontal Kerning in Arabic lookup 0 subtable" uni0671 dx=0 dy=0 dh=0 dv=0 dx=0 dy=0 dh=200 dv=0
PairPos2: "'kern' Horizontal Kerning in Arabic lookup 0 subtable" afii57410 dx=0 dy=0 dh=0 dv=0 dx=0 dy=0 dh=200 dv=0
PairPos2: "'kern' Horizontal Kerning in Arabic lookup 0 subtable" afii57415 dx=0 dy=0 dh=0 dv=0 dx=0 dy=0 dh=50 dv=0
EndChar

StartChar: three
Encoding: 51 51 22
Width: 1024
GlyphClass: 2
Flags: W
LayerCount: 2
Fore
SplineSet
519 75 m 0,0,1
 641 75 641 75 688 149 c 0,2,3
 738 228 738 228 738 318 c 0,4,5
 738 487 738 487 585 602 c 0,6,7
 546 631 546 631 481 661.5 c 128,-1,8
 416 692 416 692 326 725 c 1,9,-1
 326 767 l 1,10,11
 386 788 386 788 428.5 807.5 c 128,-1,12
 471 827 471 827 496 847 c 0,13,14
 593 922 593 922 593 1033 c 0,15,16
 593 1078 593 1078 577 1116 c 128,-1,17
 561 1154 561 1154 531 1181.5 c 128,-1,18
 501 1209 501 1209 458 1224.5 c 128,-1,19
 415 1240 415 1240 361 1240 c 0,20,21
 280 1240 280 1240 219.5 1195 c 128,-1,22
 159 1150 159 1150 111 1077 c 1,23,-1
 87 1091 l 1,24,25
 113 1147 113 1147 147.5 1194.5 c 128,-1,26
 182 1242 182 1242 221 1277 c 0,27,28
 291 1340 291 1340 373 1372.5 c 128,-1,29
 455 1405 455 1405 543 1405 c 0,30,31
 601 1405 601 1405 656.5 1387.5 c 128,-1,32
 712 1370 712 1370 756 1335.5 c 128,-1,33
 800 1301 800 1301 829 1251.5 c 128,-1,34
 858 1202 858 1202 864 1137 c 1,35,36
 864 1049 864 1049 828.5 983 c 128,-1,37
 793 917 793 917 712 876 c 1,38,-1
 705 876 l 1,39,-1
 705 863 l 1,40,-1
 713 863 l 1,41,42
 767 841 767 841 810 805.5 c 128,-1,43
 853 770 853 770 882 723.5 c 128,-1,44
 911 677 911 677 926.5 622 c 128,-1,45
 942 567 942 567 942 507 c 0,46,47
 942 396 942 396 899 301.5 c 128,-1,48
 856 207 856 207 777 132 c 1,49,50
 689 56 689 56 577 12.5 c 128,-1,51
 465 -31 465 -31 339 -31 c 0,52,53
 282 -31 282 -31 228.5 -19.5 c 128,-1,54
 175 -8 175 -8 134.5 15 c 128,-1,55
 94 38 94 38 69.5 72 c 128,-1,56
 45 106 45 106 45 152 c 0,57,58
 45 204 45 204 77 240 c 128,-1,59
 109 276 109 276 166 276 c 0,60,61
 249 276 249 276 347 175 c 0,62,63
 444 75 444 75 519 75 c 0,0,1
EndSplineSet
Substitution2: "<17016,16016> Urdu Swash lookup 75 subtable" three
PairPos2: "'kern' Horizontal Kerning in Arabic lookup 0 subtable" afii57509 dx=0 dy=0 dh=0 dv=0 dx=0 dy=0 dh=250 dv=0
PairPos2: "'kern' Horizontal Kerning in Arabic lookup 0 subtable" uni06AB dx=0 dy=0 dh=0 dv=0 dx=0 dy=0 dh=250 dv=0
PairPos2: "'kern' Horizontal Kerning in Arabic lookup 0 subtable" uni06A9 dx=0 dy=0 dh=0 dv=0 dx=0 dy=0 dh=250 dv=0
PairPos2: "'kern' Horizontal Kerning in Arabic lookup 0 subtable" uniFB94 dx=0 dy=0 dh=0 dv=0 dx=0 dy=0 dh=250 dv=0
PairPos2: "'kern' Horizontal Kerning in Arabic lookup 0 subtable" uniFBD5 dx=0 dy=0 dh=0 dv=0 dx=0 dy=0 dh=250 dv=0
PairPos2: "'kern' Horizontal Kerning in Arabic lookup 0 subtable" uni06AB.ini dx=0 dy=0 dh=0 dv=0 dx=0 dy=0 dh=250 dv=0
PairPos2: "'kern' Horizontal Kerning in Arabic lookup 0 subtable" uniFB90 dx=0 dy=0 dh=0 dv=0 dx=0 dy=0 dh=250 dv=0
PairPos2: "'kern' Horizontal Kerning in Arabic lookup 0 subtable" uniFEDB dx=0 dy=0 dh=0 dv=0 dx=0 dy=0 dh=250 dv=0
PairPos2: "'kern' Horizontal Kerning in Arabic lookup 0 subtable" uni0671 dx=0 dy=0 dh=0 dv=0 dx=0 dy=0 dh=200 dv=0
PairPos2: "'kern' Horizontal Kerning in Arabic lookup 0 subtable" afii57410 dx=0 dy=0 dh=0 dv=0 dx=0 dy=0 dh=200 dv=0
PairPos2: "'kern' Horizontal Kerning in Arabic lookup 0 subtable" afii57415 dx=0 dy=0 dh=0 dv=0 dx=0 dy=0 dh=50 dv=0
EndChar

StartChar: four
Encoding: 52 52 23
Width: 1024
GlyphClass: 2
Flags: W
LayerCount: 2
Fore
SplineSet
562 1102 m 1,0,-1
 523 1102 l 1,1,2
 511 1085 511 1085 480 1041.5 c 128,-1,3
 449 998 449 998 408.5 940.5 c 128,-1,4
 368 883 368 883 322.5 819.5 c 128,-1,5
 277 756 277 756 236.5 699 c 128,-1,6
 196 642 196 642 165 598.5 c 128,-1,7
 134 555 134 555 121 539 c 1,8,-1
 121 522 l 1,9,-1
 562 522 l 1,10,-1
 562 1102 l 1,0,-1
333 939 m 1,11,-1
 607 1301 l 1,12,-1
 690 1408 l 1,13,-1
 828 1408 l 1,14,-1
 828 522 l 1,15,-1
 956 522 l 1,16,-1
 956 293 l 1,17,-1
 828 293 l 1,18,-1
 828 0 l 1,19,-1
 560 0 l 1,20,-1
 560 293 l 1,21,-1
 51 293 l 1,22,-1
 51 528 l 1,23,24
 57 542 57 542 60 548 c 128,-1,25
 63 554 63 554 64.5 556.5 c 128,-1,26
 66 559 66 559 67 559.5 c 128,-1,27
 68 560 68 560 70 564 c 0,28,29
 81 581 81 581 120 636 c 2,30,-1
 333 939 l 1,11,-1
EndSplineSet
Substitution2: "<17016,16016> Urdu Swash lookup 75 subtable" four
PairPos2: "'kern' Horizontal Kerning in Arabic lookup 0 subtable" afii57509 dx=0 dy=0 dh=0 dv=0 dx=0 dy=0 dh=250 dv=0
PairPos2: "'kern' Horizontal Kerning in Arabic lookup 0 subtable" uni06AB dx=0 dy=0 dh=0 dv=0 dx=0 dy=0 dh=250 dv=0
PairPos2: "'kern' Horizontal Kerning in Arabic lookup 0 subtable" uni06A9 dx=0 dy=0 dh=0 dv=0 dx=0 dy=0 dh=250 dv=0
PairPos2: "'kern' Horizontal Kerning in Arabic lookup 0 subtable" uniFB94 dx=0 dy=0 dh=0 dv=0 dx=0 dy=0 dh=250 dv=0
PairPos2: "'kern' Horizontal Kerning in Arabic lookup 0 subtable" uniFBD5 dx=0 dy=0 dh=0 dv=0 dx=0 dy=0 dh=250 dv=0
PairPos2: "'kern' Horizontal Kerning in Arabic lookup 0 subtable" uni06AB.ini dx=0 dy=0 dh=0 dv=0 dx=0 dy=0 dh=250 dv=0
PairPos2: "'kern' Horizontal Kerning in Arabic lookup 0 subtable" uniFB90 dx=0 dy=0 dh=0 dv=0 dx=0 dy=0 dh=250 dv=0
PairPos2: "'kern' Horizontal Kerning in Arabic lookup 0 subtable" uniFEDB dx=0 dy=0 dh=0 dv=0 dx=0 dy=0 dh=250 dv=0
PairPos2: "'kern' Horizontal Kerning in Arabic lookup 0 subtable" uni0671 dx=0 dy=0 dh=0 dv=0 dx=0 dy=0 dh=200 dv=0
PairPos2: "'kern' Horizontal Kerning in Arabic lookup 0 subtable" afii57410 dx=0 dy=0 dh=0 dv=0 dx=0 dy=0 dh=200 dv=0
PairPos2: "'kern' Horizontal Kerning in Arabic lookup 0 subtable" afii57415 dx=0 dy=0 dh=0 dv=0 dx=0 dy=0 dh=50 dv=0
EndChar

StartChar: five
Encoding: 53 53 24
Width: 1024
GlyphClass: 2
Flags: W
LayerCount: 2
Fore
SplineSet
171 289 m 0,0,1
 238 289 238 289 361 199 c 0,2,3
 424 154 424 154 474.5 133 c 128,-1,4
 525 112 525 112 563 110 c 0,5,6
 610 110 610 110 649 126.5 c 128,-1,7
 688 143 688 143 716.5 171.5 c 128,-1,8
 745 200 745 200 760.5 238.5 c 128,-1,9
 776 277 776 277 776 320 c 0,10,11
 776 386 776 386 741 440.5 c 128,-1,12
 706 495 706 495 647 537 c 128,-1,13
 588 579 588 579 509 608.5 c 128,-1,14
 430 638 430 638 343 653 c 0,15,16
 308 659 308 659 251 664 c 128,-1,17
 194 669 194 669 117 675 c 1,18,-1
 316 1384 l 1,19,-1
 948 1384 l 1,20,-1
 860 1121 l 1,21,-1
 292 1121 l 1,22,23
 281 1081 281 1081 270.5 1040 c 128,-1,24
 260 999 260 999 248 958 c 1,25,-1
 260 958 l 1,26,27
 585 948 585 948 747 829.5 c 128,-1,28
 909 711 909 711 909 476 c 0,29,30
 909 254 909 254 748 120 c 0,31,32
 582 -19 582 -19 341 -19 c 0,33,34
 286 -19 286 -19 235 -8 c 128,-1,35
 184 3 184 3 145 25.5 c 128,-1,36
 106 48 106 48 82.5 82.5 c 128,-1,37
 59 117 59 117 59 164 c 0,38,39
 59 190 59 190 67 213 c 128,-1,40
 75 236 75 236 89.5 253 c 128,-1,41
 104 270 104 270 124.5 279.5 c 128,-1,42
 145 289 145 289 171 289 c 0,0,1
EndSplineSet
Substitution2: "<17016,16016> Urdu Swash lookup 75 subtable" five
PairPos2: "'kern' Horizontal Kerning in Arabic lookup 0 subtable" afii57509 dx=0 dy=0 dh=0 dv=0 dx=0 dy=0 dh=250 dv=0
PairPos2: "'kern' Horizontal Kerning in Arabic lookup 0 subtable" uni06AB dx=0 dy=0 dh=0 dv=0 dx=0 dy=0 dh=250 dv=0
PairPos2: "'kern' Horizontal Kerning in Arabic lookup 0 subtable" uni06A9 dx=0 dy=0 dh=0 dv=0 dx=0 dy=0 dh=250 dv=0
PairPos2: "'kern' Horizontal Kerning in Arabic lookup 0 subtable" uniFB94 dx=0 dy=0 dh=0 dv=0 dx=0 dy=0 dh=250 dv=0
PairPos2: "'kern' Horizontal Kerning in Arabic lookup 0 subtable" uniFBD5 dx=0 dy=0 dh=0 dv=0 dx=0 dy=0 dh=250 dv=0
PairPos2: "'kern' Horizontal Kerning in Arabic lookup 0 subtable" uni06AB.ini dx=0 dy=0 dh=0 dv=0 dx=0 dy=0 dh=250 dv=0
PairPos2: "'kern' Horizontal Kerning in Arabic lookup 0 subtable" uniFB90 dx=0 dy=0 dh=0 dv=0 dx=0 dy=0 dh=250 dv=0
PairPos2: "'kern' Horizontal Kerning in Arabic lookup 0 subtable" uniFEDB dx=0 dy=0 dh=0 dv=0 dx=0 dy=0 dh=250 dv=0
PairPos2: "'kern' Horizontal Kerning in Arabic lookup 0 subtable" uni0671 dx=0 dy=0 dh=0 dv=0 dx=0 dy=0 dh=200 dv=0
PairPos2: "'kern' Horizontal Kerning in Arabic lookup 0 subtable" afii57410 dx=0 dy=0 dh=0 dv=0 dx=0 dy=0 dh=200 dv=0
PairPos2: "'kern' Horizontal Kerning in Arabic lookup 0 subtable" afii57415 dx=0 dy=0 dh=0 dv=0 dx=0 dy=0 dh=50 dv=0
EndChar

StartChar: six
Encoding: 54 54 25
Width: 1024
GlyphClass: 2
Flags: W
LayerCount: 2
Fore
SplineSet
373 692 m 0,0,1
 370 667 370 667 367 620.5 c 128,-1,2
 364 574 364 574 364 520 c 0,3,4
 364 422 364 422 369 339.5 c 128,-1,5
 374 257 374 257 383 200 c 0,6,7
 390 168 390 168 401 136 c 128,-1,8
 412 104 412 104 427 78 c 1,9,-1
 427 79 l 1,10,11
 442 56 442 56 468.5 43 c 128,-1,12
 495 30 495 30 531 30 c 0,13,14
 631 30 631 30 657 116 c 0,15,16
 666 145 666 145 670 199.5 c 128,-1,17
 674 254 674 254 674 335 c 0,18,19
 674 458 674 458 664.5 541 c 128,-1,20
 655 624 655 624 632.5 675 c 128,-1,21
 610 726 610 726 573.5 747.5 c 128,-1,22
 537 769 537 769 483 769 c 0,23,24
 416 769 416 769 399 751 c 0,25,26
 378 728 378 728 373 692 c 0,0,1
947 1351 m 1,27,28
 841 1332 841 1332 753.5 1287 c 128,-1,29
 666 1242 666 1242 597.5 1176 c 128,-1,30
 529 1110 529 1110 480.5 1024.5 c 128,-1,31
 432 939 432 939 404 840 c 1,32,-1
 410 840 l 2,33,34
 417 837 417 837 421 833 c 1,35,-1
 433 833 l 1,36,37
 462 842 462 842 483.5 848 c 128,-1,38
 505 854 505 854 523 857.5 c 128,-1,39
 541 861 541 861 557.5 862 c 128,-1,40
 574 863 574 863 595 863 c 0,41,42
 736 863 736 863 849 762 c 0,43,44
 956 667 956 667 956 451 c 0,45,46
 956 334 956 334 922.5 244 c 128,-1,47
 889 154 889 154 826 94 c 1,48,49
 760 37 760 37 683 4 c 128,-1,50
 606 -29 606 -29 525 -29 c 0,51,52
 341 -29 341 -29 203 125 c 0,53,54
 70 276 70 276 70 552 c 0,55,56
 70 642 70 642 89.5 727.5 c 128,-1,57
 109 813 109 813 144.5 890.5 c 128,-1,58
 180 968 180 968 230 1036.5 c 128,-1,59
 280 1105 280 1105 341 1162 c 1,60,61
 466 1268 466 1268 618 1330.5 c 128,-1,62
 770 1393 770 1393 947 1407 c 1,63,-1
 947 1351 l 1,27,28
EndSplineSet
Substitution2: "<17016,16016> Urdu Swash lookup 75 subtable" six
PairPos2: "'kern' Horizontal Kerning in Arabic lookup 0 subtable" afii57509 dx=0 dy=0 dh=0 dv=0 dx=0 dy=0 dh=250 dv=0
PairPos2: "'kern' Horizontal Kerning in Arabic lookup 0 subtable" uni06AB dx=0 dy=0 dh=0 dv=0 dx=0 dy=0 dh=250 dv=0
PairPos2: "'kern' Horizontal Kerning in Arabic lookup 0 subtable" uni06A9 dx=0 dy=0 dh=0 dv=0 dx=0 dy=0 dh=250 dv=0
PairPos2: "'kern' Horizontal Kerning in Arabic lookup 0 subtable" uniFB94 dx=0 dy=0 dh=0 dv=0 dx=0 dy=0 dh=250 dv=0
PairPos2: "'kern' Horizontal Kerning in Arabic lookup 0 subtable" uniFBD5 dx=0 dy=0 dh=0 dv=0 dx=0 dy=0 dh=250 dv=0
PairPos2: "'kern' Horizontal Kerning in Arabic lookup 0 subtable" uni06AB.ini dx=0 dy=0 dh=0 dv=0 dx=0 dy=0 dh=250 dv=0
PairPos2: "'kern' Horizontal Kerning in Arabic lookup 0 subtable" uniFB90 dx=0 dy=0 dh=0 dv=0 dx=0 dy=0 dh=250 dv=0
PairPos2: "'kern' Horizontal Kerning in Arabic lookup 0 subtable" uniFEDB dx=0 dy=0 dh=0 dv=0 dx=0 dy=0 dh=250 dv=0
PairPos2: "'kern' Horizontal Kerning in Arabic lookup 0 subtable" uni0671 dx=0 dy=0 dh=0 dv=0 dx=0 dy=0 dh=200 dv=0
PairPos2: "'kern' Horizontal Kerning in Arabic lookup 0 subtable" afii57410 dx=0 dy=0 dh=0 dv=0 dx=0 dy=0 dh=200 dv=0
PairPos2: "'kern' Horizontal Kerning in Arabic lookup 0 subtable" afii57415 dx=0 dy=0 dh=0 dv=0 dx=0 dy=0 dh=50 dv=0
EndChar

StartChar: seven
Encoding: 55 55 26
Width: 1024
GlyphClass: 2
Flags: W
LayerCount: 2
Fore
SplineSet
139 1384 m 1,0,-1
 962 1384 l 1,1,-1
 481 0 l 1,2,-1
 314 0 l 1,3,-1
 714 1088 l 2,4,5
 713 1090 713 1090 710.5 1094.5 c 128,-1,6
 708 1099 708 1099 705 1102 c 2,7,-1
 305 1102 l 2,8,9
 256 1102 256 1102 217.5 1093.5 c 128,-1,10
 179 1085 179 1085 156 1072 c 1,11,12
 133 1052 133 1052 110 1015.5 c 128,-1,13
 87 979 87 979 72 928 c 1,14,-1
 49 928 l 1,15,-1
 139 1384 l 1,0,-1
EndSplineSet
Substitution2: "<17016,16016> Urdu Swash lookup 75 subtable" seven
PairPos2: "'kern' Horizontal Kerning in Arabic lookup 0 subtable" afii57509 dx=0 dy=0 dh=0 dv=0 dx=0 dy=0 dh=250 dv=0
PairPos2: "'kern' Horizontal Kerning in Arabic lookup 0 subtable" uni06AB dx=0 dy=0 dh=0 dv=0 dx=0 dy=0 dh=250 dv=0
PairPos2: "'kern' Horizontal Kerning in Arabic lookup 0 subtable" uni06A9 dx=0 dy=0 dh=0 dv=0 dx=0 dy=0 dh=250 dv=0
PairPos2: "'kern' Horizontal Kerning in Arabic lookup 0 subtable" uniFB94 dx=0 dy=0 dh=0 dv=0 dx=0 dy=0 dh=250 dv=0
PairPos2: "'kern' Horizontal Kerning in Arabic lookup 0 subtable" uniFBD5 dx=0 dy=0 dh=0 dv=0 dx=0 dy=0 dh=250 dv=0
PairPos2: "'kern' Horizontal Kerning in Arabic lookup 0 subtable" uni06AB.ini dx=0 dy=0 dh=0 dv=0 dx=0 dy=0 dh=250 dv=0
PairPos2: "'kern' Horizontal Kerning in Arabic lookup 0 subtable" uniFB90 dx=0 dy=0 dh=0 dv=0 dx=0 dy=0 dh=250 dv=0
PairPos2: "'kern' Horizontal Kerning in Arabic lookup 0 subtable" uniFEDB dx=0 dy=0 dh=0 dv=0 dx=0 dy=0 dh=250 dv=0
PairPos2: "'kern' Horizontal Kerning in Arabic lookup 0 subtable" uni0671 dx=0 dy=0 dh=0 dv=0 dx=0 dy=0 dh=200 dv=0
PairPos2: "'kern' Horizontal Kerning in Arabic lookup 0 subtable" afii57410 dx=0 dy=0 dh=0 dv=0 dx=0 dy=0 dh=200 dv=0
PairPos2: "'kern' Horizontal Kerning in Arabic lookup 0 subtable" afii57415 dx=0 dy=0 dh=0 dv=0 dx=0 dy=0 dh=50 dv=0
EndChar

StartChar: eight
Encoding: 56 56 27
Width: 1024
GlyphClass: 2
Flags: W
LayerCount: 2
Fore
SplineSet
675 960 m 0,0,1
 700 1016 700 1016 700 1093 c 0,2,3
 700 1144 700 1144 688.5 1191 c 128,-1,4
 677 1238 677 1238 657 1275 c 0,5,6
 637 1309 637 1309 598 1327.5 c 128,-1,7
 559 1346 559 1346 503 1346 c 0,8,9
 460 1346 460 1346 426.5 1331.5 c 128,-1,10
 393 1317 393 1317 370.5 1293.5 c 128,-1,11
 348 1270 348 1270 336.5 1240 c 128,-1,12
 325 1210 325 1210 325 1179 c 0,13,14
 325 1139 325 1139 343 1097 c 128,-1,15
 361 1055 361 1055 396 1013.5 c 128,-1,16
 431 972 431 972 481.5 934.5 c 128,-1,17
 532 897 532 897 597 866 c 1,18,-1
 614 866 l 1,19,20
 639 900 639 900 654.5 923.5 c 128,-1,21
 670 947 670 947 675 960 c 0,0,1
312 168 m 0,22,23
 362 40 362 40 498 40 c 0,24,25
 540 40 540 40 574.5 54.5 c 128,-1,26
 609 69 609 69 634.5 97.5 c 128,-1,27
 660 126 660 126 674 169.5 c 128,-1,28
 688 213 688 213 688 270 c 0,29,30
 688 325 688 325 665.5 378 c 128,-1,31
 643 431 643 431 605 476 c 0,32,33
 582 502 582 502 531.5 539 c 128,-1,34
 481 576 481 576 408 624 c 1,35,-1
 389 624 l 1,36,37
 360 578 360 578 340.5 543.5 c 128,-1,38
 321 509 321 509 313 489 c 0,39,40
 298 452 298 452 291 410.5 c 128,-1,41
 284 369 284 369 284 323 c 0,42,43
 284 239 284 239 312 168 c 0,22,23
346 655 m 1,44,-1
 355 655 l 1,45,-1
 355 672 l 1,46,-1
 345 672 l 2,47,48
 340 673 340 673 316 690 c 128,-1,49
 292 707 292 707 262 732 c 128,-1,50
 232 757 232 757 201.5 786.5 c 128,-1,51
 171 816 171 816 152 843 c 0,52,53
 114 897 114 897 100.5 946 c 128,-1,54
 87 995 87 995 87 1051 c 0,55,56
 87 1130 87 1130 121 1195.5 c 128,-1,57
 155 1261 155 1261 215 1308.5 c 128,-1,58
 275 1356 275 1356 357 1382 c 128,-1,59
 439 1408 439 1408 535 1408 c 0,60,61
 622 1408 622 1408 692.5 1386 c 128,-1,62
 763 1364 763 1364 813.5 1325 c 128,-1,63
 864 1286 864 1286 891 1232.5 c 128,-1,64
 918 1179 918 1179 918 1116 c 0,65,66
 918 1013 918 1013 852 945 c 128,-1,67
 786 877 786 877 662 833 c 1,68,-1
 653 833 l 1,69,-1
 653 821 l 1,70,-1
 659 821 l 1,71,72
 798 720 798 720 856 650 c 0,73,74
 945 541 945 541 945 388 c 0,75,76
 945 288 945 288 912 211 c 128,-1,77
 879 134 879 134 815 81 c 0,78,79
 747 29 747 29 661.5 0 c 128,-1,80
 576 -29 576 -29 476 -29 c 0,81,82
 325 -29 325 -29 193 58 c 0,83,84
 66 143 66 143 66 318 c 0,85,86
 66 479 66 479 172 566 c 1,87,-1
 346 655 l 1,44,-1
EndSplineSet
Substitution2: "<17016,16016> Urdu Swash lookup 75 subtable" eight
PairPos2: "'kern' Horizontal Kerning in Arabic lookup 0 subtable" afii57509 dx=0 dy=0 dh=0 dv=0 dx=0 dy=0 dh=250 dv=0
PairPos2: "'kern' Horizontal Kerning in Arabic lookup 0 subtable" uni06AB dx=0 dy=0 dh=0 dv=0 dx=0 dy=0 dh=250 dv=0
PairPos2: "'kern' Horizontal Kerning in Arabic lookup 0 subtable" uni06A9 dx=0 dy=0 dh=0 dv=0 dx=0 dy=0 dh=250 dv=0
PairPos2: "'kern' Horizontal Kerning in Arabic lookup 0 subtable" uniFB94 dx=0 dy=0 dh=0 dv=0 dx=0 dy=0 dh=250 dv=0
PairPos2: "'kern' Horizontal Kerning in Arabic lookup 0 subtable" uniFBD5 dx=0 dy=0 dh=0 dv=0 dx=0 dy=0 dh=250 dv=0
PairPos2: "'kern' Horizontal Kerning in Arabic lookup 0 subtable" uni06AB.ini dx=0 dy=0 dh=0 dv=0 dx=0 dy=0 dh=250 dv=0
PairPos2: "'kern' Horizontal Kerning in Arabic lookup 0 subtable" uniFB90 dx=0 dy=0 dh=0 dv=0 dx=0 dy=0 dh=250 dv=0
PairPos2: "'kern' Horizontal Kerning in Arabic lookup 0 subtable" uniFEDB dx=0 dy=0 dh=0 dv=0 dx=0 dy=0 dh=250 dv=0
PairPos2: "'kern' Horizontal Kerning in Arabic lookup 0 subtable" uni0671 dx=0 dy=0 dh=0 dv=0 dx=0 dy=0 dh=200 dv=0
PairPos2: "'kern' Horizontal Kerning in Arabic lookup 0 subtable" afii57410 dx=0 dy=0 dh=0 dv=0 dx=0 dy=0 dh=200 dv=0
PairPos2: "'kern' Horizontal Kerning in Arabic lookup 0 subtable" afii57415 dx=0 dy=0 dh=0 dv=0 dx=0 dy=0 dh=50 dv=0
EndChar

StartChar: nine
Encoding: 57 57 28
Width: 1024
GlyphClass: 2
Flags: W
LayerCount: 2
Fore
SplineSet
635 636 m 0,0,1
 640 642 640 642 644 663.5 c 128,-1,2
 648 685 648 685 651 716 c 128,-1,3
 654 747 654 747 655.5 785 c 128,-1,4
 657 823 657 823 657 863 c 0,5,6
 657 975 657 975 652.5 1065 c 128,-1,7
 648 1155 648 1155 630.5 1218 c 128,-1,8
 613 1281 613 1281 579.5 1315 c 128,-1,9
 546 1349 546 1349 489 1349 c 0,10,11
 409 1349 409 1349 374.5 1279.5 c 128,-1,12
 340 1210 340 1210 340 1073 c 0,13,14
 340 843 340 843 385 726.5 c 128,-1,15
 430 610 430 610 536 610 c 0,16,17
 553 610 553 610 570 613.5 c 128,-1,18
 587 617 587 617 601.5 621.5 c 128,-1,19
 616 626 616 626 625 630.5 c 128,-1,20
 634 635 634 635 635 636 c 0,0,1
75 27 m 1,21,22
 153 43 153 43 221 70 c 128,-1,23
 289 97 289 97 344 132 c 0,24,25
 392 167 392 167 434.5 211 c 128,-1,26
 477 255 477 255 512.5 307 c 128,-1,27
 548 359 548 359 574.5 417.5 c 128,-1,28
 601 476 601 476 617 539 c 1,29,-1
 610 539 l 1,30,-1
 606 543 l 2,31,32
 605 544 605 544 603.5 544.5 c 128,-1,33
 602 545 602 545 601 546 c 2,34,-1
 588 546 l 1,35,36
 560 537 560 537 538.5 531 c 128,-1,37
 517 525 517 525 498.5 521.5 c 128,-1,38
 480 518 480 518 462 516.5 c 128,-1,39
 444 515 444 515 423 515 c 0,40,41
 351 515 351 515 286 541.5 c 128,-1,42
 221 568 221 568 171.5 620.5 c 128,-1,43
 122 673 122 673 92.5 750.5 c 128,-1,44
 63 828 63 828 63 929 c 0,45,46
 63 1155 63 1155 190 1279 c 0,47,48
 322 1408 322 1408 492 1408 c 0,49,50
 587 1408 587 1408 670.5 1368.5 c 128,-1,51
 754 1329 754 1329 816.5 1254 c 128,-1,52
 879 1179 879 1179 915.5 1071.5 c 128,-1,53
 952 964 952 964 952 827 c 0,54,55
 952 628 952 628 876 469.5 c 128,-1,56
 800 311 800 311 654 194 c 0,57,58
 528 97 528 97 381 40 c 128,-1,59
 234 -17 234 -17 75 -28 c 1,60,-1
 75 27 l 1,21,22
EndSplineSet
Substitution2: "<17016,16016> Urdu Swash lookup 75 subtable" nine
PairPos2: "'kern' Horizontal Kerning in Arabic lookup 0 subtable" afii57509 dx=0 dy=0 dh=0 dv=0 dx=0 dy=0 dh=250 dv=0
PairPos2: "'kern' Horizontal Kerning in Arabic lookup 0 subtable" uni06AB dx=0 dy=0 dh=0 dv=0 dx=0 dy=0 dh=250 dv=0
PairPos2: "'kern' Horizontal Kerning in Arabic lookup 0 subtable" uni06A9 dx=0 dy=0 dh=0 dv=0 dx=0 dy=0 dh=250 dv=0
PairPos2: "'kern' Horizontal Kerning in Arabic lookup 0 subtable" uniFB94 dx=0 dy=0 dh=0 dv=0 dx=0 dy=0 dh=250 dv=0
PairPos2: "'kern' Horizontal Kerning in Arabic lookup 0 subtable" uniFBD5 dx=0 dy=0 dh=0 dv=0 dx=0 dy=0 dh=250 dv=0
PairPos2: "'kern' Horizontal Kerning in Arabic lookup 0 subtable" uni06AB.ini dx=0 dy=0 dh=0 dv=0 dx=0 dy=0 dh=250 dv=0
PairPos2: "'kern' Horizontal Kerning in Arabic lookup 0 subtable" uniFB90 dx=0 dy=0 dh=0 dv=0 dx=0 dy=0 dh=250 dv=0
PairPos2: "'kern' Horizontal Kerning in Arabic lookup 0 subtable" uniFEDB dx=0 dy=0 dh=0 dv=0 dx=0 dy=0 dh=250 dv=0
PairPos2: "'kern' Horizontal Kerning in Arabic lookup 0 subtable" uni0671 dx=0 dy=0 dh=0 dv=0 dx=0 dy=0 dh=200 dv=0
PairPos2: "'kern' Horizontal Kerning in Arabic lookup 0 subtable" afii57410 dx=0 dy=0 dh=0 dv=0 dx=0 dy=0 dh=200 dv=0
PairPos2: "'kern' Horizontal Kerning in Arabic lookup 0 subtable" afii57415 dx=0 dy=0 dh=0 dv=0 dx=0 dy=0 dh=50 dv=0
EndChar

StartChar: colon
Encoding: 58 58 29
Width: 565
GlyphClass: 2
Flags: W
LayerCount: 2
Fore
SplineSet
327 856 m 0,0,1
 347 836 347 836 356 813.5 c 128,-1,2
 365 791 365 791 365 766 c 0,3,4
 365 740 365 740 355.5 715.5 c 128,-1,5
 346 691 346 691 328.5 672.5 c 128,-1,6
 311 654 311 654 287.5 643 c 128,-1,7
 264 632 264 632 237 632 c 0,8,9
 211 632 211 632 187 642 c 128,-1,10
 163 652 163 652 144.5 670 c 128,-1,11
 126 688 126 688 115 711.5 c 128,-1,12
 104 735 104 735 104 762 c 256,13,14
 104 789 104 789 115 813.5 c 128,-1,15
 126 838 126 838 144 856 c 128,-1,16
 162 874 162 874 186 884.5 c 128,-1,17
 210 895 210 895 237 895 c 0,18,19
 288 895 288 895 327 856 c 0,0,1
362 264 m 0,20,21
 362 239 362 239 352.5 215 c 128,-1,22
 343 191 343 191 326 172.5 c 128,-1,23
 309 154 309 154 285.5 143 c 128,-1,24
 262 132 262 132 234 132 c 256,25,26
 206 132 206 132 181.5 142.5 c 128,-1,27
 157 153 157 153 139 171 c 128,-1,28
 121 189 121 189 110.5 212.5 c 128,-1,29
 100 236 100 236 100 261 c 0,30,31
 100 289 100 289 111.5 313.5 c 128,-1,32
 123 338 123 338 142 356 c 128,-1,33
 161 374 161 374 185 384.5 c 128,-1,34
 209 395 209 395 234 395 c 0,35,36
 261 395 261 395 284.5 384.5 c 128,-1,37
 308 374 308 374 325.5 356.5 c 128,-1,38
 343 339 343 339 352.5 315 c 128,-1,39
 362 291 362 291 362 264 c 0,20,21
EndSplineSet
Substitution2: "<17016,16016> Urdu Swash lookup 75 subtable" colon
PairPos2: "'kern' Horizontal Kerning in Arabic lookup 0 subtable" afii57509 dx=0 dy=0 dh=0 dv=0 dx=0 dy=0 dh=250 dv=0
PairPos2: "'kern' Horizontal Kerning in Arabic lookup 0 subtable" uni06AB dx=0 dy=0 dh=0 dv=0 dx=0 dy=0 dh=250 dv=0
PairPos2: "'kern' Horizontal Kerning in Arabic lookup 0 subtable" uni06A9 dx=0 dy=0 dh=0 dv=0 dx=0 dy=0 dh=250 dv=0
PairPos2: "'kern' Horizontal Kerning in Arabic lookup 0 subtable" uniFB94 dx=0 dy=0 dh=0 dv=0 dx=0 dy=0 dh=250 dv=0
PairPos2: "'kern' Horizontal Kerning in Arabic lookup 0 subtable" uniFBD5 dx=0 dy=0 dh=0 dv=0 dx=0 dy=0 dh=250 dv=0
PairPos2: "'kern' Horizontal Kerning in Arabic lookup 0 subtable" uni06AB.ini dx=0 dy=0 dh=0 dv=0 dx=0 dy=0 dh=250 dv=0
PairPos2: "'kern' Horizontal Kerning in Arabic lookup 0 subtable" uniFB90 dx=0 dy=0 dh=0 dv=0 dx=0 dy=0 dh=250 dv=0
PairPos2: "'kern' Horizontal Kerning in Arabic lookup 0 subtable" uniFEDB dx=0 dy=0 dh=0 dv=0 dx=0 dy=0 dh=250 dv=0
PairPos2: "'kern' Horizontal Kerning in Arabic lookup 0 subtable" uni0671 dx=0 dy=0 dh=0 dv=0 dx=0 dy=0 dh=200 dv=0
PairPos2: "'kern' Horizontal Kerning in Arabic lookup 0 subtable" afii57410 dx=0 dy=0 dh=0 dv=0 dx=0 dy=0 dh=200 dv=0
PairPos2: "'kern' Horizontal Kerning in Arabic lookup 0 subtable" afii57415 dx=0 dy=0 dh=0 dv=0 dx=0 dy=0 dh=50 dv=0
EndChar

StartChar: semicolon
Encoding: 59 59 30
Width: 682
GlyphClass: 2
Flags: W
LayerCount: 2
Fore
SplineSet
336 968 m 256,0,1
 364 968 364 968 392.5 955.5 c 128,-1,2
 421 943 421 943 443.5 920 c 128,-1,3
 466 897 466 897 480 865 c 128,-1,4
 494 833 494 833 494 794 c 0,5,6
 494 754 494 754 480 721.5 c 128,-1,7
 466 689 466 689 443.5 666.5 c 128,-1,8
 421 644 421 644 393 632 c 128,-1,9
 365 620 365 620 336 620 c 256,10,11
 307 620 307 620 278.5 632 c 128,-1,12
 250 644 250 644 227.5 666.5 c 128,-1,13
 205 689 205 689 191 721 c 128,-1,14
 177 753 177 753 177 794 c 256,15,16
 177 835 177 835 191.5 867.5 c 128,-1,17
 206 900 206 900 229 922.5 c 128,-1,18
 252 945 252 945 280 956.5 c 128,-1,19
 308 968 308 968 336 968 c 256,0,1
188 -321 m 1,20,21
 252 -278 252 -278 295 -241 c 128,-1,22
 338 -204 338 -204 364.5 -171.5 c 128,-1,23
 391 -139 391 -139 402 -110.5 c 128,-1,24
 413 -82 413 -82 413 -55 c 0,25,26
 413 -36 413 -36 395.5 -27.5 c 128,-1,27
 378 -19 378 -19 352 -13.5 c 128,-1,28
 326 -8 326 -8 295 -1.5 c 128,-1,29
 264 5 264 5 238 21 c 128,-1,30
 212 37 212 37 194.5 66 c 128,-1,31
 177 95 177 95 177 145 c 0,32,33
 177 189 177 189 189.5 221.5 c 128,-1,34
 202 254 202 254 223.5 275.5 c 128,-1,35
 245 297 245 297 273 308 c 128,-1,36
 301 319 301 319 331 319 c 0,37,38
 369 319 369 319 404 304 c 128,-1,39
 439 289 439 289 466 259 c 128,-1,40
 493 229 493 229 509 184.5 c 128,-1,41
 525 140 525 140 525 81 c 0,42,43
 525 -88 525 -88 398 -218 c 0,44,45
 360 -257 360 -257 313 -293 c 128,-1,46
 266 -329 266 -329 209 -360 c 1,47,-1
 188 -321 l 1,20,21
EndSplineSet
Substitution2: "<17016,16016> Urdu Swash lookup 75 subtable" semicolon
PairPos2: "'kern' Horizontal Kerning in Arabic lookup 0 subtable" afii57509 dx=0 dy=0 dh=0 dv=0 dx=0 dy=0 dh=250 dv=0
PairPos2: "'kern' Horizontal Kerning in Arabic lookup 0 subtable" uni06AB dx=0 dy=0 dh=0 dv=0 dx=0 dy=0 dh=250 dv=0
PairPos2: "'kern' Horizontal Kerning in Arabic lookup 0 subtable" uni06A9 dx=0 dy=0 dh=0 dv=0 dx=0 dy=0 dh=250 dv=0
PairPos2: "'kern' Horizontal Kerning in Arabic lookup 0 subtable" uniFB94 dx=0 dy=0 dh=0 dv=0 dx=0 dy=0 dh=250 dv=0
PairPos2: "'kern' Horizontal Kerning in Arabic lookup 0 subtable" uniFBD5 dx=0 dy=0 dh=0 dv=0 dx=0 dy=0 dh=250 dv=0
PairPos2: "'kern' Horizontal Kerning in Arabic lookup 0 subtable" uni06AB.ini dx=0 dy=0 dh=0 dv=0 dx=0 dy=0 dh=250 dv=0
PairPos2: "'kern' Horizontal Kerning in Arabic lookup 0 subtable" uniFB90 dx=0 dy=0 dh=0 dv=0 dx=0 dy=0 dh=250 dv=0
PairPos2: "'kern' Horizontal Kerning in Arabic lookup 0 subtable" uniFEDB dx=0 dy=0 dh=0 dv=0 dx=0 dy=0 dh=250 dv=0
PairPos2: "'kern' Horizontal Kerning in Arabic lookup 0 subtable" uni0671 dx=0 dy=0 dh=0 dv=0 dx=0 dy=0 dh=200 dv=0
PairPos2: "'kern' Horizontal Kerning in Arabic lookup 0 subtable" afii57410 dx=0 dy=0 dh=0 dv=0 dx=0 dy=0 dh=200 dv=0
PairPos2: "'kern' Horizontal Kerning in Arabic lookup 0 subtable" afii57415 dx=0 dy=0 dh=0 dv=0 dx=0 dy=0 dh=50 dv=0
EndChar

StartChar: less
Encoding: 60 60 31
Width: 1050
GlyphClass: 2
Flags: W
LayerCount: 2
Fore
SplineSet
1047 1086 m 1,0,-1
 1047 864 l 1,1,-1
 389 533 l 1,2,3
 557 460 557 460 726 381.5 c 128,-1,4
 895 303 895 303 1047 205 c 1,5,-1
 1047 -20 l 1,6,-1
 0 490 l 1,7,-1
 0 578 l 1,8,-1
 1047 1086 l 1,0,-1
EndSplineSet
Substitution2: "<17016,16016> Urdu Swash lookup 75 subtable" less
PairPos2: "'kern' Horizontal Kerning in Arabic lookup 0 subtable" afii57509 dx=0 dy=0 dh=0 dv=0 dx=0 dy=0 dh=250 dv=0
PairPos2: "'kern' Horizontal Kerning in Arabic lookup 0 subtable" uni06AB dx=0 dy=0 dh=0 dv=0 dx=0 dy=0 dh=250 dv=0
PairPos2: "'kern' Horizontal Kerning in Arabic lookup 0 subtable" uni06A9 dx=0 dy=0 dh=0 dv=0 dx=0 dy=0 dh=250 dv=0
PairPos2: "'kern' Horizontal Kerning in Arabic lookup 0 subtable" uniFB94 dx=0 dy=0 dh=0 dv=0 dx=0 dy=0 dh=250 dv=0
PairPos2: "'kern' Horizontal Kerning in Arabic lookup 0 subtable" uniFBD5 dx=0 dy=0 dh=0 dv=0 dx=0 dy=0 dh=250 dv=0
PairPos2: "'kern' Horizontal Kerning in Arabic lookup 0 subtable" uni06AB.ini dx=0 dy=0 dh=0 dv=0 dx=0 dy=0 dh=250 dv=0
PairPos2: "'kern' Horizontal Kerning in Arabic lookup 0 subtable" uniFB90 dx=0 dy=0 dh=0 dv=0 dx=0 dy=0 dh=250 dv=0
PairPos2: "'kern' Horizontal Kerning in Arabic lookup 0 subtable" uniFEDB dx=0 dy=0 dh=0 dv=0 dx=0 dy=0 dh=250 dv=0
PairPos2: "'kern' Horizontal Kerning in Arabic lookup 0 subtable" uni0671 dx=0 dy=0 dh=0 dv=0 dx=0 dy=0 dh=200 dv=0
PairPos2: "'kern' Horizontal Kerning in Arabic lookup 0 subtable" afii57410 dx=0 dy=0 dh=0 dv=0 dx=0 dy=0 dh=200 dv=0
PairPos2: "'kern' Horizontal Kerning in Arabic lookup 0 subtable" afii57415 dx=0 dy=0 dh=0 dv=0 dx=0 dy=0 dh=50 dv=0
EndChar

StartChar: equal
Encoding: 61 61 32
Width: 1050
GlyphClass: 2
Flags: W
LayerCount: 2
Fore
SplineSet
1044 420 m 1,0,-1
 1044 210 l 1,1,-1
 7 210 l 1,2,-1
 7 420 l 1,3,-1
 1044 420 l 1,0,-1
1044 859 m 1,4,-1
 1044 646 l 1,5,-1
 7 646 l 1,6,-1
 7 859 l 1,7,-1
 1044 859 l 1,4,-1
EndSplineSet
Substitution2: "<17016,16016> Urdu Swash lookup 75 subtable" equal
PairPos2: "'kern' Horizontal Kerning in Arabic lookup 0 subtable" afii57509 dx=0 dy=0 dh=0 dv=0 dx=0 dy=0 dh=250 dv=0
PairPos2: "'kern' Horizontal Kerning in Arabic lookup 0 subtable" uni06AB dx=0 dy=0 dh=0 dv=0 dx=0 dy=0 dh=250 dv=0
PairPos2: "'kern' Horizontal Kerning in Arabic lookup 0 subtable" uni06A9 dx=0 dy=0 dh=0 dv=0 dx=0 dy=0 dh=250 dv=0
PairPos2: "'kern' Horizontal Kerning in Arabic lookup 0 subtable" uniFB94 dx=0 dy=0 dh=0 dv=0 dx=0 dy=0 dh=250 dv=0
PairPos2: "'kern' Horizontal Kerning in Arabic lookup 0 subtable" uniFBD5 dx=0 dy=0 dh=0 dv=0 dx=0 dy=0 dh=250 dv=0
PairPos2: "'kern' Horizontal Kerning in Arabic lookup 0 subtable" uni06AB.ini dx=0 dy=0 dh=0 dv=0 dx=0 dy=0 dh=250 dv=0
PairPos2: "'kern' Horizontal Kerning in Arabic lookup 0 subtable" uniFB90 dx=0 dy=0 dh=0 dv=0 dx=0 dy=0 dh=250 dv=0
PairPos2: "'kern' Horizontal Kerning in Arabic lookup 0 subtable" uniFEDB dx=0 dy=0 dh=0 dv=0 dx=0 dy=0 dh=250 dv=0
PairPos2: "'kern' Horizontal Kerning in Arabic lookup 0 subtable" uni0671 dx=0 dy=0 dh=0 dv=0 dx=0 dy=0 dh=200 dv=0
PairPos2: "'kern' Horizontal Kerning in Arabic lookup 0 subtable" afii57410 dx=0 dy=0 dh=0 dv=0 dx=0 dy=0 dh=200 dv=0
PairPos2: "'kern' Horizontal Kerning in Arabic lookup 0 subtable" afii57415 dx=0 dy=0 dh=0 dv=0 dx=0 dy=0 dh=50 dv=0
EndChar

StartChar: greater
Encoding: 62 62 33
Width: 1050
GlyphClass: 2
Flags: W
LayerCount: 2
Fore
SplineSet
1048 578 m 1,0,-1
 1048 490 l 1,1,-1
 1 -20 l 1,2,-1
 1 205 l 1,3,4
 153 303 153 303 322 381.5 c 128,-1,5
 491 460 491 460 659 533 c 1,6,-1
 1 864 l 1,7,-1
 1 1086 l 1,8,-1
 1048 578 l 1,0,-1
EndSplineSet
Substitution2: "<17016,16016> Urdu Swash lookup 75 subtable" greater
PairPos2: "'kern' Horizontal Kerning in Arabic lookup 0 subtable" afii57509 dx=0 dy=0 dh=0 dv=0 dx=0 dy=0 dh=250 dv=0
PairPos2: "'kern' Horizontal Kerning in Arabic lookup 0 subtable" uni06AB dx=0 dy=0 dh=0 dv=0 dx=0 dy=0 dh=250 dv=0
PairPos2: "'kern' Horizontal Kerning in Arabic lookup 0 subtable" uni06A9 dx=0 dy=0 dh=0 dv=0 dx=0 dy=0 dh=250 dv=0
PairPos2: "'kern' Horizontal Kerning in Arabic lookup 0 subtable" uniFB94 dx=0 dy=0 dh=0 dv=0 dx=0 dy=0 dh=250 dv=0
PairPos2: "'kern' Horizontal Kerning in Arabic lookup 0 subtable" uniFBD5 dx=0 dy=0 dh=0 dv=0 dx=0 dy=0 dh=250 dv=0
PairPos2: "'kern' Horizontal Kerning in Arabic lookup 0 subtable" uni06AB.ini dx=0 dy=0 dh=0 dv=0 dx=0 dy=0 dh=250 dv=0
PairPos2: "'kern' Horizontal Kerning in Arabic lookup 0 subtable" uniFB90 dx=0 dy=0 dh=0 dv=0 dx=0 dy=0 dh=250 dv=0
PairPos2: "'kern' Horizontal Kerning in Arabic lookup 0 subtable" uniFEDB dx=0 dy=0 dh=0 dv=0 dx=0 dy=0 dh=250 dv=0
PairPos2: "'kern' Horizontal Kerning in Arabic lookup 0 subtable" uni0671 dx=0 dy=0 dh=0 dv=0 dx=0 dy=0 dh=200 dv=0
PairPos2: "'kern' Horizontal Kerning in Arabic lookup 0 subtable" afii57410 dx=0 dy=0 dh=0 dv=0 dx=0 dy=0 dh=200 dv=0
PairPos2: "'kern' Horizontal Kerning in Arabic lookup 0 subtable" afii57415 dx=0 dy=0 dh=0 dv=0 dx=0 dy=0 dh=50 dv=0
EndChar

StartChar: question
Encoding: 63 63 34
Width: 1024
GlyphClass: 2
Flags: W
LayerCount: 2
Fore
SplineSet
480 319 m 0,0,1
 507 319 507 319 535.5 307.5 c 128,-1,2
 564 296 564 296 587 274 c 128,-1,3
 610 252 610 252 624.5 219.5 c 128,-1,4
 639 187 639 187 639 145 c 0,5,6
 639 104 639 104 625 71.5 c 128,-1,7
 611 39 611 39 588.5 16.5 c 128,-1,8
 566 -6 566 -6 537.5 -17.5 c 128,-1,9
 509 -29 509 -29 480 -29 c 0,10,11
 452 -29 452 -29 423.5 -17.5 c 128,-1,12
 395 -6 395 -6 372.5 16.5 c 128,-1,13
 350 39 350 39 336 71 c 128,-1,14
 322 103 322 103 322 145 c 256,15,16
 322 187 322 187 336.5 219.5 c 128,-1,17
 351 252 351 252 373.5 274 c 128,-1,18
 396 296 396 296 424 307.5 c 128,-1,19
 452 319 452 319 480 319 c 0,0,1
491 1410 m 0,20,21
 579 1410 579 1410 651.5 1386.5 c 128,-1,22
 724 1363 724 1363 776.5 1319.5 c 128,-1,23
 829 1276 829 1276 858 1213.5 c 128,-1,24
 887 1151 887 1151 887 1074 c 0,25,26
 887 974 887 974 842.5 901 c 128,-1,27
 798 828 798 828 721 777 c 0,28,29
 710 770 710 770 694 759.5 c 128,-1,30
 678 749 678 749 660 738 c 128,-1,31
 642 727 642 727 625 716.5 c 128,-1,32
 608 706 608 706 596 698 c 0,33,34
 568 681 568 681 550 664 c 128,-1,35
 532 647 532 647 522 630 c 1,36,-1
 522 631 l 1,37,38
 500 587 500 587 494 473 c 1,39,-1
 461 473 l 1,40,-1
 459 561 l 2,41,42
 459 653 459 653 532 786 c 0,43,44
 610 926 610 926 610 1075 c 0,45,46
 610 1199 610 1199 564 1266.5 c 128,-1,47
 518 1334 518 1334 415 1334 c 0,48,49
 381 1334 381 1334 356.5 1327 c 128,-1,50
 332 1320 332 1320 316.5 1308 c 128,-1,51
 301 1296 301 1296 294 1281.5 c 128,-1,52
 287 1267 287 1267 287 1252 c 0,53,54
 286 1242 286 1242 291.5 1234.5 c 128,-1,55
 297 1227 297 1227 310 1211 c 2,56,-1
 324 1194 l 2,57,58
 344 1170 344 1170 352.5 1146 c 128,-1,59
 361 1122 361 1122 361 1084 c 0,60,61
 361 1051 361 1051 350.5 1027 c 128,-1,62
 340 1003 340 1003 323.5 988 c 128,-1,63
 307 973 307 973 287 966 c 128,-1,64
 267 959 267 959 247 959 c 0,65,66
 226 959 226 959 204 967.5 c 128,-1,67
 182 976 182 976 164 994.5 c 128,-1,68
 146 1013 146 1013 134.5 1043.5 c 128,-1,69
 123 1074 123 1074 123 1117 c 0,70,71
 123 1231 123 1231 213 1318 c 0,72,73
 308 1410 308 1410 491 1410 c 0,20,21
EndSplineSet
Substitution2: "<17016,16016> Urdu Swash lookup 75 subtable" question
PairPos2: "'kern' Horizontal Kerning in Arabic lookup 0 subtable" afii57509 dx=0 dy=0 dh=0 dv=0 dx=0 dy=0 dh=250 dv=0
PairPos2: "'kern' Horizontal Kerning in Arabic lookup 0 subtable" uni06AB dx=0 dy=0 dh=0 dv=0 dx=0 dy=0 dh=250 dv=0
PairPos2: "'kern' Horizontal Kerning in Arabic lookup 0 subtable" uni06A9 dx=0 dy=0 dh=0 dv=0 dx=0 dy=0 dh=250 dv=0
PairPos2: "'kern' Horizontal Kerning in Arabic lookup 0 subtable" uniFB94 dx=0 dy=0 dh=0 dv=0 dx=0 dy=0 dh=250 dv=0
PairPos2: "'kern' Horizontal Kerning in Arabic lookup 0 subtable" uniFBD5 dx=0 dy=0 dh=0 dv=0 dx=0 dy=0 dh=250 dv=0
PairPos2: "'kern' Horizontal Kerning in Arabic lookup 0 subtable" uni06AB.ini dx=0 dy=0 dh=0 dv=0 dx=0 dy=0 dh=250 dv=0
PairPos2: "'kern' Horizontal Kerning in Arabic lookup 0 subtable" uniFB90 dx=0 dy=0 dh=0 dv=0 dx=0 dy=0 dh=250 dv=0
PairPos2: "'kern' Horizontal Kerning in Arabic lookup 0 subtable" uniFEDB dx=0 dy=0 dh=0 dv=0 dx=0 dy=0 dh=250 dv=0
PairPos2: "'kern' Horizontal Kerning in Arabic lookup 0 subtable" uni0671 dx=0 dy=0 dh=0 dv=0 dx=0 dy=0 dh=200 dv=0
PairPos2: "'kern' Horizontal Kerning in Arabic lookup 0 subtable" afii57410 dx=0 dy=0 dh=0 dv=0 dx=0 dy=0 dh=200 dv=0
PairPos2: "'kern' Horizontal Kerning in Arabic lookup 0 subtable" afii57415 dx=0 dy=0 dh=0 dv=0 dx=0 dy=0 dh=50 dv=0
EndChar

StartChar: at
Encoding: 64 64 35
Width: 1905
GlyphClass: 2
Flags: W
LayerCount: 2
Fore
SplineSet
1043 944 m 0,0,1
 929 944 929 944 849 767 c 0,2,3
 769 588 769 588 769 497 c 0,4,5
 769 456 769 456 792 413 c 1,6,-1
 792 414 l 1,7,8
 813 378 813 378 875 378 c 0,9,10
 1000 378 1000 378 1070 570 c 0,11,12
 1142 765 1142 765 1142 843 c 0,13,14
 1142 893 1142 893 1118 918.5 c 128,-1,15
 1094 944 1094 944 1043 944 c 0,0,1
1529 138 m 1,16,17
 1379 42 1379 42 1238.5 0.5 c 128,-1,18
 1098 -41 1098 -41 964 -41 c 0,19,20
 803 -41 803 -41 663.5 9.5 c 128,-1,21
 524 60 524 60 410 157 c 0,22,23
 304 252 304 252 246 373.5 c 128,-1,24
 188 495 188 495 188 637 c 0,25,26
 188 966 188 966 442 1190 c 0,27,28
 699 1415 699 1415 1038 1415 c 0,29,30
 1307 1415 1307 1415 1501 1266 c 0,31,32
 1708 1107 1708 1107 1708 828 c 0,33,34
 1708 606 1708 606 1571 445 c 0,35,36
 1432 284 1432 284 1283 282 c 0,37,38
 1245 282 1245 282 1210.5 292 c 128,-1,39
 1176 302 1176 302 1150 322 c 128,-1,40
 1124 342 1124 342 1107.5 371 c 128,-1,41
 1091 400 1091 400 1089 437 c 1,42,-1
 1064 437 l 1,43,44
 1010 352 1010 352 952.5 317 c 128,-1,45
 895 282 895 282 829 282 c 0,46,47
 779 282 779 282 732.5 303 c 128,-1,48
 686 324 686 324 650 362.5 c 128,-1,49
 614 401 614 401 592.5 455.5 c 128,-1,50
 571 510 571 510 571 578 c 0,51,52
 571 751 571 751 700 893 c 0,53,54
 833 1041 833 1041 988 1041 c 0,55,56
 1046 1041 1046 1041 1093.5 1013.5 c 128,-1,57
 1141 986 1141 986 1168 923 c 1,58,-1
 1195 923 l 1,59,60
 1203 946 1203 946 1210 968 c 128,-1,61
 1217 990 1217 990 1223 1013 c 1,62,-1
 1417 1013 l 1,63,64
 1415 1009 1415 1009 1408 988.5 c 128,-1,65
 1401 968 1401 968 1390 933 c 128,-1,66
 1379 898 1379 898 1364.5 850.5 c 128,-1,67
 1350 803 1350 803 1332 746 c 0,68,69
 1294 619 1294 619 1271 539.5 c 128,-1,70
 1248 460 1248 460 1248 446 c 0,71,72
 1248 435 1248 435 1254.5 423 c 128,-1,73
 1261 411 1261 411 1273 400.5 c 128,-1,74
 1285 390 1285 390 1302 383.5 c 128,-1,75
 1319 377 1319 377 1339 377 c 0,76,77
 1441 377 1441 377 1540 511 c 0,78,79
 1643 648 1643 648 1643 825 c 0,80,81
 1643 933 1643 933 1595.5 1025 c 128,-1,82
 1548 1117 1548 1117 1469 1183 c 1,83,84
 1386 1244 1386 1244 1285 1277.5 c 128,-1,85
 1184 1311 1184 1311 1073 1311 c 0,86,87
 911 1311 911 1311 772.5 1253 c 128,-1,88
 634 1195 634 1195 529 1088 c 1,89,90
 437 988 437 988 387 875 c 128,-1,91
 337 762 337 762 337 644 c 0,92,93
 337 354 337 354 548 189 c 0,94,95
 724 51 724 51 986 51 c 0,96,97
 1051 51 1051 51 1114 60 c 128,-1,98
 1177 69 1177 69 1231 83 c 128,-1,99
 1285 97 1285 97 1327 113 c 128,-1,100
 1369 129 1369 129 1392 144 c 0,101,102
 1412 155 1412 155 1436.5 169.5 c 128,-1,103
 1461 184 1461 184 1487 201 c 1,104,-1
 1529 138 l 1,16,17
EndSplineSet
Substitution2: "<17016,16016> Urdu Swash lookup 75 subtable" at
PairPos2: "'kern' Horizontal Kerning in Arabic lookup 0 subtable" afii57509 dx=0 dy=0 dh=0 dv=0 dx=0 dy=0 dh=250 dv=0
PairPos2: "'kern' Horizontal Kerning in Arabic lookup 0 subtable" uni06AB dx=0 dy=0 dh=0 dv=0 dx=0 dy=0 dh=250 dv=0
PairPos2: "'kern' Horizontal Kerning in Arabic lookup 0 subtable" uni06A9 dx=0 dy=0 dh=0 dv=0 dx=0 dy=0 dh=250 dv=0
PairPos2: "'kern' Horizontal Kerning in Arabic lookup 0 subtable" uniFB94 dx=0 dy=0 dh=0 dv=0 dx=0 dy=0 dh=250 dv=0
PairPos2: "'kern' Horizontal Kerning in Arabic lookup 0 subtable" uniFBD5 dx=0 dy=0 dh=0 dv=0 dx=0 dy=0 dh=250 dv=0
PairPos2: "'kern' Horizontal Kerning in Arabic lookup 0 subtable" uni06AB.ini dx=0 dy=0 dh=0 dv=0 dx=0 dy=0 dh=250 dv=0
PairPos2: "'kern' Horizontal Kerning in Arabic lookup 0 subtable" uniFB90 dx=0 dy=0 dh=0 dv=0 dx=0 dy=0 dh=250 dv=0
PairPos2: "'kern' Horizontal Kerning in Arabic lookup 0 subtable" uniFEDB dx=0 dy=0 dh=0 dv=0 dx=0 dy=0 dh=250 dv=0
PairPos2: "'kern' Horizontal Kerning in Arabic lookup 0 subtable" uni0671 dx=0 dy=0 dh=0 dv=0 dx=0 dy=0 dh=200 dv=0
PairPos2: "'kern' Horizontal Kerning in Arabic lookup 0 subtable" afii57410 dx=0 dy=0 dh=0 dv=0 dx=0 dy=0 dh=200 dv=0
PairPos2: "'kern' Horizontal Kerning in Arabic lookup 0 subtable" afii57415 dx=0 dy=0 dh=0 dv=0 dx=0 dy=0 dh=50 dv=0
EndChar

StartChar: A
Encoding: 65 65 36
Width: 1479
GlyphClass: 2
Flags: W
LayerCount: 2
Fore
SplineSet
393 484 m 1,0,-1
 816 484 l 1,1,2
 810 499 810 499 795 535.5 c 128,-1,3
 780 572 780 572 760.5 619.5 c 128,-1,4
 741 667 741 667 719 720.5 c 128,-1,5
 697 774 697 774 677 821.5 c 128,-1,6
 657 869 657 869 642 905.5 c 128,-1,7
 627 942 627 942 621 956 c 1,8,-1
 578 956 l 1,9,10
 555 897 555 897 532 838 c 128,-1,11
 509 779 509 779 486 720 c 2,12,-1
 393 484 l 1,0,-1
51 55 m 1,13,14
 85 57 85 57 115 76 c 128,-1,15
 145 95 145 95 167 121 c 0,16,17
 184 144 184 144 205.5 187 c 128,-1,18
 227 230 227 230 252 292 c 2,19,-1
 706 1412 l 1,20,-1
 737 1412 l 1,21,-1
 1193 337 l 2,22,23
 1228 254 1228 254 1258 194.5 c 128,-1,24
 1288 135 1288 135 1310 104 c 0,25,26
 1347 54 1347 54 1415 54 c 1,27,-1
 1415 0 l 1,28,-1
 781 0 l 1,29,-1
 781 55 l 1,30,31
 829 57 829 57 859 60.5 c 128,-1,32
 889 64 889 64 904 71 c 0,33,34
 944 89 944 89 944 136 c 0,35,36
 944 154 944 154 935 184.5 c 128,-1,37
 926 215 926 215 912 251 c 128,-1,38
 898 287 898 287 881 326 c 128,-1,39
 864 365 864 365 849 401 c 1,40,-1
 362 401 l 1,41,42
 343 348 343 348 329.5 311 c 128,-1,43
 316 274 316 274 306.5 248 c 128,-1,44
 297 222 297 222 291 205.5 c 128,-1,45
 285 189 285 189 282 176 c 128,-1,46
 279 163 279 163 278 152.5 c 128,-1,47
 277 142 277 142 277 129 c 0,48,49
 277 100 277 100 318 78 c 128,-1,50
 359 56 359 56 440 54 c 1,51,-1
 440 0 l 1,52,-1
 51 0 l 1,53,-1
 51 55 l 1,13,14
EndSplineSet
Substitution2: "<17016,16016> Urdu Swash lookup 75 subtable" A
PairPos2: "'kern' Horizontal Kerning in Arabic lookup 0 subtable" afii57509 dx=0 dy=0 dh=0 dv=0 dx=0 dy=0 dh=250 dv=0
PairPos2: "'kern' Horizontal Kerning in Arabic lookup 0 subtable" uni06AB dx=0 dy=0 dh=0 dv=0 dx=0 dy=0 dh=250 dv=0
PairPos2: "'kern' Horizontal Kerning in Arabic lookup 0 subtable" uni06A9 dx=0 dy=0 dh=0 dv=0 dx=0 dy=0 dh=250 dv=0
PairPos2: "'kern' Horizontal Kerning in Arabic lookup 0 subtable" uniFB94 dx=0 dy=0 dh=0 dv=0 dx=0 dy=0 dh=250 dv=0
PairPos2: "'kern' Horizontal Kerning in Arabic lookup 0 subtable" uniFBD5 dx=0 dy=0 dh=0 dv=0 dx=0 dy=0 dh=250 dv=0
PairPos2: "'kern' Horizontal Kerning in Arabic lookup 0 subtable" uni06AB.ini dx=0 dy=0 dh=0 dv=0 dx=0 dy=0 dh=250 dv=0
PairPos2: "'kern' Horizontal Kerning in Arabic lookup 0 subtable" uniFB90 dx=0 dy=0 dh=0 dv=0 dx=0 dy=0 dh=250 dv=0
PairPos2: "'kern' Horizontal Kerning in Arabic lookup 0 subtable" uniFEDB dx=0 dy=0 dh=0 dv=0 dx=0 dy=0 dh=250 dv=0
PairPos2: "'kern' Horizontal Kerning in Arabic lookup 0 subtable" uni0671 dx=0 dy=0 dh=0 dv=0 dx=0 dy=0 dh=200 dv=0
PairPos2: "'kern' Horizontal Kerning in Arabic lookup 0 subtable" afii57410 dx=0 dy=0 dh=0 dv=0 dx=0 dy=0 dh=200 dv=0
PairPos2: "'kern' Horizontal Kerning in Arabic lookup 0 subtable" afii57415 dx=0 dy=0 dh=0 dv=0 dx=0 dy=0 dh=50 dv=0
EndChar

StartChar: B
Encoding: 66 66 37
Width: 1366
GlyphClass: 2
Flags: W
LayerCount: 2
Fore
SplineSet
873 1045 m 0,0,1
 873 1159 873 1159 828 1241 c 0,2,3
 785 1320 785 1320 653 1320 c 0,4,5
 617 1320 617 1320 592.5 1315 c 128,-1,6
 568 1310 568 1310 553 1298.5 c 128,-1,7
 538 1287 538 1287 531.5 1268.5 c 128,-1,8
 525 1250 525 1250 525 1222 c 2,9,-1
 525 764 l 1,10,-1
 539 764 l 2,11,12
 738 764 738 764 803 826 c 0,13,14
 873 893 873 893 873 1045 c 0,0,1
543 112 m 0,15,16
 569 68 569 68 651 68 c 0,17,18
 807 68 807 68 865 147 c 0,19,20
 927 232 927 232 927 370 c 0,21,22
 927 474 927 474 891.5 547 c 128,-1,23
 856 620 856 620 791 659 c 1,24,25
 753 677 753 677 692 688.5 c 128,-1,26
 631 700 631 700 555 700 c 2,27,-1
 539 700 l 1,28,-1
 525 700 l 1,29,-1
 525 190 l 2,30,31
 526 165 526 165 530 145.5 c 128,-1,32
 534 126 534 126 543 112 c 0,15,16
47 55 m 1,33,34
 84 57 84 57 113.5 62.5 c 128,-1,35
 143 68 143 68 159 76 c 0,36,37
 191 93 191 93 209 124.5 c 128,-1,38
 227 156 227 156 227 197 c 2,39,-1
 227 1186 l 2,40,41
 227 1269 227 1269 163 1306 c 0,42,43
 129 1325 129 1325 47 1329 c 1,44,-1
 47 1384 l 1,45,-1
 665 1384 l 2,46,47
 919 1384 919 1384 1050.5 1302 c 128,-1,48
 1182 1220 1182 1220 1182 1054 c 0,49,50
 1182 922 1182 922 1095 851 c 0,51,52
 1002 775 1002 775 901 757 c 1,53,-1
 890 757 l 1,54,-1
 890 740 l 1,55,-1
 901 740 l 1,56,57
 981 724 981 724 1046 692.5 c 128,-1,58
 1111 661 1111 661 1156.5 615.5 c 128,-1,59
 1202 570 1202 570 1226.5 511 c 128,-1,60
 1251 452 1251 452 1251 381 c 0,61,62
 1251 292 1251 292 1210 221 c 128,-1,63
 1169 150 1169 150 1094.5 101 c 128,-1,64
 1020 52 1020 52 917 26 c 128,-1,65
 814 0 814 0 691 0 c 2,66,-1
 47 0 l 1,67,-1
 47 55 l 1,33,34
EndSplineSet
Substitution2: "<17016,16016> Urdu Swash lookup 75 subtable" B
PairPos2: "'kern' Horizontal Kerning in Arabic lookup 0 subtable" afii57509 dx=0 dy=0 dh=0 dv=0 dx=0 dy=0 dh=250 dv=0
PairPos2: "'kern' Horizontal Kerning in Arabic lookup 0 subtable" uni06AB dx=0 dy=0 dh=0 dv=0 dx=0 dy=0 dh=250 dv=0
PairPos2: "'kern' Horizontal Kerning in Arabic lookup 0 subtable" uni06A9 dx=0 dy=0 dh=0 dv=0 dx=0 dy=0 dh=250 dv=0
PairPos2: "'kern' Horizontal Kerning in Arabic lookup 0 subtable" uniFB94 dx=0 dy=0 dh=0 dv=0 dx=0 dy=0 dh=250 dv=0
PairPos2: "'kern' Horizontal Kerning in Arabic lookup 0 subtable" uniFBD5 dx=0 dy=0 dh=0 dv=0 dx=0 dy=0 dh=250 dv=0
PairPos2: "'kern' Horizontal Kerning in Arabic lookup 0 subtable" uni06AB.ini dx=0 dy=0 dh=0 dv=0 dx=0 dy=0 dh=250 dv=0
PairPos2: "'kern' Horizontal Kerning in Arabic lookup 0 subtable" uniFB90 dx=0 dy=0 dh=0 dv=0 dx=0 dy=0 dh=250 dv=0
PairPos2: "'kern' Horizontal Kerning in Arabic lookup 0 subtable" uniFEDB dx=0 dy=0 dh=0 dv=0 dx=0 dy=0 dh=250 dv=0
PairPos2: "'kern' Horizontal Kerning in Arabic lookup 0 subtable" uni0671 dx=0 dy=0 dh=0 dv=0 dx=0 dy=0 dh=200 dv=0
PairPos2: "'kern' Horizontal Kerning in Arabic lookup 0 subtable" afii57410 dx=0 dy=0 dh=0 dv=0 dx=0 dy=0 dh=200 dv=0
PairPos2: "'kern' Horizontal Kerning in Arabic lookup 0 subtable" afii57415 dx=0 dy=0 dh=0 dv=0 dx=0 dy=0 dh=50 dv=0
EndChar

StartChar: C
Encoding: 67 67 38
AltUni2: 00216d.ffffffff.0
Width: 1479
GlyphClass: 2
Flags: W
LayerCount: 2
Fore
SplineSet
1195 1315 m 0,0,1
 1218 1315 1218 1315 1236 1323.5 c 128,-1,2
 1254 1332 1254 1332 1267.5 1345 c 128,-1,3
 1281 1358 1281 1358 1289.5 1375 c 128,-1,4
 1298 1392 1298 1392 1301 1408 c 1,5,-1
 1330 1408 l 1,6,-1
 1330 928 l 1,7,-1
 1305 928 l 1,8,9
 1290 962 1290 962 1271 996 c 128,-1,10
 1252 1030 1252 1030 1231.5 1061.5 c 128,-1,11
 1211 1093 1211 1093 1190.5 1121.5 c 128,-1,12
 1170 1150 1170 1150 1151 1173 c 0,13,14
 1081 1251 1081 1251 994.5 1295 c 128,-1,15
 908 1339 908 1339 816 1339 c 0,16,17
 710 1339 710 1339 632.5 1293 c 128,-1,18
 555 1247 555 1247 510 1162 c 1,19,20
 469 1074 469 1074 446 952.5 c 128,-1,21
 423 831 423 831 423 687 c 0,22,23
 423 377 423 377 527.5 219 c 128,-1,24
 632 61 632 61 841 61 c 0,25,26
 919 61 919 61 997 85 c 128,-1,27
 1075 109 1075 109 1141 149 c 0,28,29
 1183 177 1183 177 1229.5 216.5 c 128,-1,30
 1276 256 1276 256 1320 304 c 1,31,-1
 1371 262 l 1,32,33
 1311 194 1311 194 1257 144.5 c 128,-1,34
 1203 95 1203 95 1161 66 c 0,35,36
 1083 16 1083 16 992.5 -12.5 c 128,-1,37
 902 -41 902 -41 809 -41 c 0,38,39
 657 -41 657 -41 525.5 10 c 128,-1,40
 394 61 394 61 297 155 c 128,-1,41
 200 249 200 249 144.5 381 c 128,-1,42
 89 513 89 513 89 675 c 0,43,44
 89 1014 89 1014 301 1216 c 0,45,46
 504 1410 504 1410 791 1410 c 0,47,48
 916 1410 916 1410 1045 1362 c 0,49,50
 1175 1315 1175 1315 1195 1315 c 0,0,1
EndSplineSet
Substitution2: "<17016,16016> Urdu Swash lookup 75 subtable" C
PairPos2: "'kern' Horizontal Kerning in Arabic lookup 0 subtable" afii57509 dx=0 dy=0 dh=0 dv=0 dx=0 dy=0 dh=250 dv=0
PairPos2: "'kern' Horizontal Kerning in Arabic lookup 0 subtable" uni06AB dx=0 dy=0 dh=0 dv=0 dx=0 dy=0 dh=250 dv=0
PairPos2: "'kern' Horizontal Kerning in Arabic lookup 0 subtable" uni06A9 dx=0 dy=0 dh=0 dv=0 dx=0 dy=0 dh=250 dv=0
PairPos2: "'kern' Horizontal Kerning in Arabic lookup 0 subtable" uniFB94 dx=0 dy=0 dh=0 dv=0 dx=0 dy=0 dh=250 dv=0
PairPos2: "'kern' Horizontal Kerning in Arabic lookup 0 subtable" uniFBD5 dx=0 dy=0 dh=0 dv=0 dx=0 dy=0 dh=250 dv=0
PairPos2: "'kern' Horizontal Kerning in Arabic lookup 0 subtable" uni06AB.ini dx=0 dy=0 dh=0 dv=0 dx=0 dy=0 dh=250 dv=0
PairPos2: "'kern' Horizontal Kerning in Arabic lookup 0 subtable" uniFB90 dx=0 dy=0 dh=0 dv=0 dx=0 dy=0 dh=250 dv=0
PairPos2: "'kern' Horizontal Kerning in Arabic lookup 0 subtable" uniFEDB dx=0 dy=0 dh=0 dv=0 dx=0 dy=0 dh=250 dv=0
PairPos2: "'kern' Horizontal Kerning in Arabic lookup 0 subtable" uni0671 dx=0 dy=0 dh=0 dv=0 dx=0 dy=0 dh=200 dv=0
PairPos2: "'kern' Horizontal Kerning in Arabic lookup 0 subtable" afii57410 dx=0 dy=0 dh=0 dv=0 dx=0 dy=0 dh=200 dv=0
PairPos2: "'kern' Horizontal Kerning in Arabic lookup 0 subtable" afii57415 dx=0 dy=0 dh=0 dv=0 dx=0 dy=0 dh=50 dv=0
EndChar

StartChar: D
Encoding: 68 68 39
AltUni2: 00216e.ffffffff.0
Width: 1479
GlyphClass: 2
Flags: W
LayerCount: 2
Fore
SplineSet
640 72 m 0,0,1
 684 72 684 72 727.5 81.5 c 128,-1,2
 771 91 771 91 810.5 108 c 128,-1,3
 850 125 850 125 885.5 148.5 c 128,-1,4
 921 172 921 172 949 200 c 1,5,6
 1004 269 1004 269 1037 395 c 128,-1,7
 1070 521 1070 521 1070 692 c 0,8,9
 1070 742 1070 742 1065 792 c 128,-1,10
 1060 842 1060 842 1051.5 890.5 c 128,-1,11
 1043 939 1043 939 1031.5 983.5 c 128,-1,12
 1020 1028 1020 1028 1006 1065 c 0,13,14
 955 1183 955 1183 864.5 1248.5 c 128,-1,15
 774 1314 774 1314 649 1314 c 0,16,17
 607 1314 607 1314 581 1307.5 c 128,-1,18
 555 1301 555 1301 540.5 1287 c 128,-1,19
 526 1273 526 1273 520.5 1250.5 c 128,-1,20
 515 1228 515 1228 515 1196 c 2,21,-1
 515 190 l 2,22,23
 518 134 518 134 541 100 c 0,24,25
 562 72 562 72 640 72 c 0,0,1
42 55 m 1,26,27
 112 60 112 60 146 76 c 0,28,29
 177 94 177 94 195 122.5 c 128,-1,30
 213 151 213 151 213 188 c 2,31,-1
 213 1196 l 2,32,33
 213 1268 213 1268 149 1305 c 0,34,35
 133 1314 133 1314 106.5 1319.5 c 128,-1,36
 80 1325 80 1325 42 1329 c 1,37,-1
 42 1384 l 1,38,-1
 653 1384 l 2,39,40
 825 1384 825 1384 963 1338.5 c 128,-1,41
 1101 1293 1101 1293 1197.5 1204.5 c 128,-1,42
 1294 1116 1294 1116 1345.5 986 c 128,-1,43
 1397 856 1397 856 1397 688 c 0,44,45
 1397 407 1397 407 1219 217 c 0,46,47
 1014 0 1014 0 674 0 c 2,48,-1
 42 0 l 1,49,-1
 42 55 l 1,26,27
EndSplineSet
Substitution2: "<17016,16016> Urdu Swash lookup 75 subtable" D
PairPos2: "'kern' Horizontal Kerning in Arabic lookup 0 subtable" afii57509 dx=0 dy=0 dh=0 dv=0 dx=0 dy=0 dh=250 dv=0
PairPos2: "'kern' Horizontal Kerning in Arabic lookup 0 subtable" uni06AB dx=0 dy=0 dh=0 dv=0 dx=0 dy=0 dh=250 dv=0
PairPos2: "'kern' Horizontal Kerning in Arabic lookup 0 subtable" uni06A9 dx=0 dy=0 dh=0 dv=0 dx=0 dy=0 dh=250 dv=0
PairPos2: "'kern' Horizontal Kerning in Arabic lookup 0 subtable" uniFB94 dx=0 dy=0 dh=0 dv=0 dx=0 dy=0 dh=250 dv=0
PairPos2: "'kern' Horizontal Kerning in Arabic lookup 0 subtable" uniFBD5 dx=0 dy=0 dh=0 dv=0 dx=0 dy=0 dh=250 dv=0
PairPos2: "'kern' Horizontal Kerning in Arabic lookup 0 subtable" uni06AB.ini dx=0 dy=0 dh=0 dv=0 dx=0 dy=0 dh=250 dv=0
PairPos2: "'kern' Horizontal Kerning in Arabic lookup 0 subtable" uniFB90 dx=0 dy=0 dh=0 dv=0 dx=0 dy=0 dh=250 dv=0
PairPos2: "'kern' Horizontal Kerning in Arabic lookup 0 subtable" uniFEDB dx=0 dy=0 dh=0 dv=0 dx=0 dy=0 dh=250 dv=0
PairPos2: "'kern' Horizontal Kerning in Arabic lookup 0 subtable" uni0671 dx=0 dy=0 dh=0 dv=0 dx=0 dy=0 dh=200 dv=0
PairPos2: "'kern' Horizontal Kerning in Arabic lookup 0 subtable" afii57410 dx=0 dy=0 dh=0 dv=0 dx=0 dy=0 dh=200 dv=0
PairPos2: "'kern' Horizontal Kerning in Arabic lookup 0 subtable" afii57415 dx=0 dy=0 dh=0 dv=0 dx=0 dy=0 dh=50 dv=0
EndChar

StartChar: E
Encoding: 69 69 40
Width: 1366
GlyphClass: 2
Flags: W
LayerCount: 2
Fore
SplineSet
47 0 m 1,0,-1
 47 54 l 1,1,2
 149 58 149 58 189 94 c 128,-1,3
 229 130 229 130 229 197 c 2,4,-1
 229 1186 l 2,5,6
 229 1269 229 1269 163 1306 c 0,7,8
 129 1325 129 1325 47 1329 c 1,9,-1
 47 1384 l 1,10,-1
 1197 1384 l 1,11,-1
 1197 970 l 1,12,-1
 1175 970 l 1,13,14
 1138 1161 1138 1161 1037 1240 c 0,15,16
 945 1313 945 1313 689 1313 c 0,17,18
 639 1313 639 1313 606.5 1308 c 128,-1,19
 574 1303 574 1303 561 1293 c 0,20,21
 530 1268 530 1268 530 1217 c 2,22,-1
 530 745 l 1,23,-1
 544 745 l 2,24,25
 730 745 730 745 791 808 c 0,26,27
 859 880 859 880 890 1048 c 1,28,-1
 914 1048 l 1,29,-1
 914 355 l 1,30,-1
 890 355 l 1,31,32
 867 526 867 526 796 600 c 0,33,34
 729 672 729 672 544 672 c 2,35,-1
 530 672 l 1,36,-1
 530 178 l 2,37,38
 530 149 530 149 540 126.5 c 128,-1,39
 550 104 550 104 570 90 c 0,40,41
 605 67 605 67 715 67 c 0,42,43
 918 67 918 67 1042 143 c 0,44,45
 1172 224 1172 224 1267 427 c 1,46,-1
 1297 427 l 1,47,-1
 1214 0 l 1,48,-1
 47 0 l 1,0,-1
EndSplineSet
Substitution2: "<17016,16016> Urdu Swash lookup 75 subtable" E
PairPos2: "'kern' Horizontal Kerning in Arabic lookup 0 subtable" afii57509 dx=0 dy=0 dh=0 dv=0 dx=0 dy=0 dh=250 dv=0
PairPos2: "'kern' Horizontal Kerning in Arabic lookup 0 subtable" uni06AB dx=0 dy=0 dh=0 dv=0 dx=0 dy=0 dh=250 dv=0
PairPos2: "'kern' Horizontal Kerning in Arabic lookup 0 subtable" uni06A9 dx=0 dy=0 dh=0 dv=0 dx=0 dy=0 dh=250 dv=0
PairPos2: "'kern' Horizontal Kerning in Arabic lookup 0 subtable" uniFB94 dx=0 dy=0 dh=0 dv=0 dx=0 dy=0 dh=250 dv=0
PairPos2: "'kern' Horizontal Kerning in Arabic lookup 0 subtable" uniFBD5 dx=0 dy=0 dh=0 dv=0 dx=0 dy=0 dh=250 dv=0
PairPos2: "'kern' Horizontal Kerning in Arabic lookup 0 subtable" uni06AB.ini dx=0 dy=0 dh=0 dv=0 dx=0 dy=0 dh=250 dv=0
PairPos2: "'kern' Horizontal Kerning in Arabic lookup 0 subtable" uniFB90 dx=0 dy=0 dh=0 dv=0 dx=0 dy=0 dh=250 dv=0
PairPos2: "'kern' Horizontal Kerning in Arabic lookup 0 subtable" uniFEDB dx=0 dy=0 dh=0 dv=0 dx=0 dy=0 dh=250 dv=0
PairPos2: "'kern' Horizontal Kerning in Arabic lookup 0 subtable" uni0671 dx=0 dy=0 dh=0 dv=0 dx=0 dy=0 dh=200 dv=0
PairPos2: "'kern' Horizontal Kerning in Arabic lookup 0 subtable" afii57410 dx=0 dy=0 dh=0 dv=0 dx=0 dy=0 dh=200 dv=0
PairPos2: "'kern' Horizontal Kerning in Arabic lookup 0 subtable" afii57415 dx=0 dy=0 dh=0 dv=0 dx=0 dy=0 dh=50 dv=0
EndChar

StartChar: F
Encoding: 70 70 41
Width: 1251
GlyphClass: 2
Flags: W
LayerCount: 2
Fore
SplineSet
47 54 m 1,0,1
 149 58 149 58 189 94 c 128,-1,2
 229 130 229 130 229 197 c 2,3,-1
 229 1186 l 2,4,5
 229 1224 229 1224 210.5 1255.5 c 128,-1,6
 192 1287 192 1287 165 1305 c 1,7,-1
 166 1305 l 1,8,9
 149 1313 149 1313 119 1319.5 c 128,-1,10
 89 1326 89 1326 47 1329 c 1,11,-1
 47 1384 l 1,12,-1
 1178 1384 l 1,13,-1
 1178 970 l 1,14,-1
 1156 970 l 1,15,16
 1120 1154 1120 1154 1024 1236 c 0,17,18
 933 1313 933 1313 683 1313 c 0,19,20
 586 1313 586 1313 560 1292 c 0,21,22
 530 1268 530 1268 530 1217 c 2,23,-1
 530 745 l 1,24,-1
 544 745 l 2,25,26
 634 745 634 745 691.5 761 c 128,-1,27
 749 777 749 777 779 815 c 0,28,29
 841 894 841 894 871 1048 c 1,30,-1
 895 1048 l 1,31,-1
 895 355 l 1,32,-1
 871 355 l 1,33,34
 851 516 851 516 783 596 c 0,35,36
 720 672 720 672 544 672 c 2,37,-1
 530 672 l 1,38,-1
 530 197 l 2,39,40
 530 152 530 152 544.5 124.5 c 128,-1,41
 559 97 559 97 587.5 81 c 128,-1,42
 616 65 616 65 658 59.5 c 128,-1,43
 700 54 700 54 755 54 c 1,44,-1
 755 0 l 1,45,-1
 47 0 l 1,46,-1
 47 54 l 1,0,1
EndSplineSet
Substitution2: "<17016,16016> Urdu Swash lookup 75 subtable" F
PairPos2: "'kern' Horizontal Kerning in Arabic lookup 0 subtable" afii57509 dx=0 dy=0 dh=0 dv=0 dx=0 dy=0 dh=250 dv=0
PairPos2: "'kern' Horizontal Kerning in Arabic lookup 0 subtable" uni06AB dx=0 dy=0 dh=0 dv=0 dx=0 dy=0 dh=250 dv=0
PairPos2: "'kern' Horizontal Kerning in Arabic lookup 0 subtable" uni06A9 dx=0 dy=0 dh=0 dv=0 dx=0 dy=0 dh=250 dv=0
PairPos2: "'kern' Horizontal Kerning in Arabic lookup 0 subtable" uniFB94 dx=0 dy=0 dh=0 dv=0 dx=0 dy=0 dh=250 dv=0
PairPos2: "'kern' Horizontal Kerning in Arabic lookup 0 subtable" uniFBD5 dx=0 dy=0 dh=0 dv=0 dx=0 dy=0 dh=250 dv=0
PairPos2: "'kern' Horizontal Kerning in Arabic lookup 0 subtable" uni06AB.ini dx=0 dy=0 dh=0 dv=0 dx=0 dy=0 dh=250 dv=0
PairPos2: "'kern' Horizontal Kerning in Arabic lookup 0 subtable" uniFB90 dx=0 dy=0 dh=0 dv=0 dx=0 dy=0 dh=250 dv=0
PairPos2: "'kern' Horizontal Kerning in Arabic lookup 0 subtable" uniFEDB dx=0 dy=0 dh=0 dv=0 dx=0 dy=0 dh=250 dv=0
PairPos2: "'kern' Horizontal Kerning in Arabic lookup 0 subtable" uni0671 dx=0 dy=0 dh=0 dv=0 dx=0 dy=0 dh=200 dv=0
PairPos2: "'kern' Horizontal Kerning in Arabic lookup 0 subtable" afii57410 dx=0 dy=0 dh=0 dv=0 dx=0 dy=0 dh=200 dv=0
PairPos2: "'kern' Horizontal Kerning in Arabic lookup 0 subtable" afii57415 dx=0 dy=0 dh=0 dv=0 dx=0 dy=0 dh=50 dv=0
EndChar

StartChar: G
Encoding: 71 71 42
Width: 1593
GlyphClass: 2
Flags: W
LayerCount: 2
Fore
SplineSet
282 1195 m 0,0,1
 485 1410 485 1410 792 1410 c 0,2,3
 850 1410 850 1410 915 1396.5 c 128,-1,4
 980 1383 980 1383 1040 1362 c 0,5,6
 1095 1343 1095 1343 1139.5 1329 c 128,-1,7
 1184 1315 1184 1315 1201 1315 c 0,8,9
 1241 1315 1241 1315 1264 1337.5 c 128,-1,10
 1287 1360 1287 1360 1300 1408 c 1,11,-1
 1330 1408 l 1,12,-1
 1330 928 l 1,13,-1
 1305 928 l 1,14,15
 1290 962 1290 962 1271 996 c 128,-1,16
 1252 1030 1252 1030 1231.5 1061.5 c 128,-1,17
 1211 1093 1211 1093 1190.5 1121.5 c 128,-1,18
 1170 1150 1170 1150 1151 1173 c 0,19,20
 1081 1251 1081 1251 994.5 1295 c 128,-1,21
 908 1339 908 1339 816 1339 c 0,22,23
 709 1339 709 1339 634 1292.5 c 128,-1,24
 559 1246 559 1246 512 1160.5 c 128,-1,25
 465 1075 465 1075 443.5 954 c 128,-1,26
 422 833 422 833 422 685 c 0,27,28
 422 429 422 429 507 229 c 0,29,30
 591 30 591 30 847 30 c 0,31,32
 906 30 906 30 947.5 39.5 c 128,-1,33
 989 49 989 49 1014.5 68 c 128,-1,34
 1040 87 1040 87 1051.5 114.5 c 128,-1,35
 1063 142 1063 142 1063 178 c 2,36,-1
 1063 393 l 2,37,38
 1063 482 1063 482 998 514 c 0,39,40
 959 533 959 533 856 534 c 1,41,-1
 856 588 l 1,42,-1
 1529 588 l 1,43,-1
 1529 533 l 1,44,45
 1474 531 1474 531 1439.5 519.5 c 128,-1,46
 1405 508 1405 508 1386 485.5 c 128,-1,47
 1367 463 1367 463 1360.5 429.5 c 128,-1,48
 1354 396 1354 396 1354 349 c 2,49,-1
 1354 83 l 1,50,51
 1340 74 1340 74 1317 63.5 c 128,-1,52
 1294 53 1294 53 1266 42.5 c 128,-1,53
 1238 32 1238 32 1207 22 c 128,-1,54
 1176 12 1176 12 1144 3 c 0,55,56
 1070 -18 1070 -18 984.5 -28.5 c 128,-1,57
 899 -39 899 -39 809 -39 c 0,58,59
 478 -39 478 -39 275 176 c 0,60,61
 89 373 89 373 89 680 c 0,62,63
 89 991 89 991 282 1195 c 0,0,1
EndSplineSet
Substitution2: "<17016,16016> Urdu Swash lookup 75 subtable" G
PairPos2: "'kern' Horizontal Kerning in Arabic lookup 0 subtable" afii57509 dx=0 dy=0 dh=0 dv=0 dx=0 dy=0 dh=250 dv=0
PairPos2: "'kern' Horizontal Kerning in Arabic lookup 0 subtable" uni06AB dx=0 dy=0 dh=0 dv=0 dx=0 dy=0 dh=250 dv=0
PairPos2: "'kern' Horizontal Kerning in Arabic lookup 0 subtable" uni06A9 dx=0 dy=0 dh=0 dv=0 dx=0 dy=0 dh=250 dv=0
PairPos2: "'kern' Horizontal Kerning in Arabic lookup 0 subtable" uniFB94 dx=0 dy=0 dh=0 dv=0 dx=0 dy=0 dh=250 dv=0
PairPos2: "'kern' Horizontal Kerning in Arabic lookup 0 subtable" uniFBD5 dx=0 dy=0 dh=0 dv=0 dx=0 dy=0 dh=250 dv=0
PairPos2: "'kern' Horizontal Kerning in Arabic lookup 0 subtable" uni06AB.ini dx=0 dy=0 dh=0 dv=0 dx=0 dy=0 dh=250 dv=0
PairPos2: "'kern' Horizontal Kerning in Arabic lookup 0 subtable" uniFB90 dx=0 dy=0 dh=0 dv=0 dx=0 dy=0 dh=250 dv=0
PairPos2: "'kern' Horizontal Kerning in Arabic lookup 0 subtable" uniFEDB dx=0 dy=0 dh=0 dv=0 dx=0 dy=0 dh=250 dv=0
PairPos2: "'kern' Horizontal Kerning in Arabic lookup 0 subtable" uni0671 dx=0 dy=0 dh=0 dv=0 dx=0 dy=0 dh=200 dv=0
PairPos2: "'kern' Horizontal Kerning in Arabic lookup 0 subtable" afii57410 dx=0 dy=0 dh=0 dv=0 dx=0 dy=0 dh=200 dv=0
PairPos2: "'kern' Horizontal Kerning in Arabic lookup 0 subtable" afii57415 dx=0 dy=0 dh=0 dv=0 dx=0 dy=0 dh=50 dv=0
EndChar

StartChar: H
Encoding: 72 72 43
Width: 1593
GlyphClass: 2
Flags: W
LayerCount: 2
Fore
SplineSet
51 55 m 1,0,1
 89 57 89 57 116 62 c 128,-1,2
 143 67 143 67 160 77 c 0,3,4
 224 114 224 114 224 197 c 2,5,-1
 224 1186 l 2,6,7
 224 1268 224 1268 165 1303 c 0,8,9
 134 1322 134 1322 51 1329 c 1,10,-1
 51 1384 l 1,11,-1
 715 1384 l 1,12,-1
 715 1329 l 1,13,14
 662 1326 662 1326 627 1316 c 128,-1,15
 592 1306 592 1306 571 1288 c 128,-1,16
 550 1270 550 1270 541 1244.5 c 128,-1,17
 532 1219 532 1219 532 1186 c 2,18,-1
 532 764 l 1,19,-1
 1048 764 l 1,20,-1
 1048 1186 l 2,21,22
 1048 1227 1048 1227 1031.5 1257.5 c 128,-1,23
 1015 1288 1015 1288 986 1305 c 0,24,25
 969 1315 969 1315 939 1320.5 c 128,-1,26
 909 1326 909 1326 866 1329 c 1,27,-1
 866 1384 l 1,28,-1
 1534 1384 l 1,29,-1
 1534 1329 l 1,30,31
 1492 1325 1492 1325 1464 1319.5 c 128,-1,32
 1436 1314 1436 1314 1419 1304 c 0,33,34
 1356 1268 1356 1268 1356 1186 c 2,35,-1
 1356 197 l 2,36,37
 1356 164 1356 164 1365 138.5 c 128,-1,38
 1374 113 1374 113 1395 95 c 128,-1,39
 1416 77 1416 77 1450 67 c 128,-1,40
 1484 57 1484 57 1534 55 c 1,41,-1
 1534 0 l 1,42,-1
 866 0 l 1,43,-1
 866 54 l 1,44,45
 968 58 968 58 1008 94 c 128,-1,46
 1048 130 1048 130 1048 197 c 2,47,-1
 1048 667 l 1,48,-1
 532 667 l 1,49,-1
 532 197 l 2,50,51
 532 159 532 159 553 126.5 c 128,-1,52
 574 94 574 94 601 75 c 1,53,54
 620 67 620 67 649 61.5 c 128,-1,55
 678 56 678 56 715 54 c 1,56,-1
 715 0 l 1,57,-1
 51 0 l 1,58,-1
 51 55 l 1,0,1
EndSplineSet
Substitution2: "<17016,16016> Urdu Swash lookup 75 subtable" H
PairPos2: "'kern' Horizontal Kerning in Arabic lookup 0 subtable" afii57509 dx=0 dy=0 dh=0 dv=0 dx=0 dy=0 dh=250 dv=0
PairPos2: "'kern' Horizontal Kerning in Arabic lookup 0 subtable" uni06AB dx=0 dy=0 dh=0 dv=0 dx=0 dy=0 dh=250 dv=0
PairPos2: "'kern' Horizontal Kerning in Arabic lookup 0 subtable" uni06A9 dx=0 dy=0 dh=0 dv=0 dx=0 dy=0 dh=250 dv=0
PairPos2: "'kern' Horizontal Kerning in Arabic lookup 0 subtable" uniFB94 dx=0 dy=0 dh=0 dv=0 dx=0 dy=0 dh=250 dv=0
PairPos2: "'kern' Horizontal Kerning in Arabic lookup 0 subtable" uniFBD5 dx=0 dy=0 dh=0 dv=0 dx=0 dy=0 dh=250 dv=0
PairPos2: "'kern' Horizontal Kerning in Arabic lookup 0 subtable" uni06AB.ini dx=0 dy=0 dh=0 dv=0 dx=0 dy=0 dh=250 dv=0
PairPos2: "'kern' Horizontal Kerning in Arabic lookup 0 subtable" uniFB90 dx=0 dy=0 dh=0 dv=0 dx=0 dy=0 dh=250 dv=0
PairPos2: "'kern' Horizontal Kerning in Arabic lookup 0 subtable" uniFEDB dx=0 dy=0 dh=0 dv=0 dx=0 dy=0 dh=250 dv=0
PairPos2: "'kern' Horizontal Kerning in Arabic lookup 0 subtable" uni0671 dx=0 dy=0 dh=0 dv=0 dx=0 dy=0 dh=200 dv=0
PairPos2: "'kern' Horizontal Kerning in Arabic lookup 0 subtable" afii57410 dx=0 dy=0 dh=0 dv=0 dx=0 dy=0 dh=200 dv=0
PairPos2: "'kern' Horizontal Kerning in Arabic lookup 0 subtable" afii57415 dx=0 dy=0 dh=0 dv=0 dx=0 dy=0 dh=50 dv=0
EndChar

StartChar: I
Encoding: 73 73 44
Width: 797
GlyphClass: 2
Flags: W
LayerCount: 2
Fore
SplineSet
47 54 m 1,0,1
 148 56 148 56 191 91.5 c 128,-1,2
 234 127 234 127 234 197 c 2,3,-1
 234 1186 l 2,4,5
 234 1230 234 1230 217 1259.5 c 128,-1,6
 200 1289 200 1289 168 1307 c 0,7,8
 151 1317 151 1317 120.5 1322 c 128,-1,9
 90 1327 90 1327 47 1329 c 1,10,-1
 47 1384 l 1,11,-1
 734 1384 l 1,12,-1
 734 1329 l 1,13,14
 691 1327 691 1327 658.5 1321.5 c 128,-1,15
 626 1316 626 1316 609 1308 c 0,16,17
 580 1290 580 1290 561 1259 c 128,-1,18
 542 1228 542 1228 542 1186 c 2,19,-1
 542 197 l 2,20,21
 542 121 542 121 590 87.5 c 128,-1,22
 638 54 638 54 734 54 c 1,23,-1
 734 0 l 1,24,-1
 47 0 l 1,25,-1
 47 54 l 1,0,1
EndSplineSet
Substitution2: "<17016,16016> Urdu Swash lookup 75 subtable" I
PairPos2: "'kern' Horizontal Kerning in Arabic lookup 0 subtable" afii57509 dx=0 dy=0 dh=0 dv=0 dx=0 dy=0 dh=250 dv=0
PairPos2: "'kern' Horizontal Kerning in Arabic lookup 0 subtable" uni06AB dx=0 dy=0 dh=0 dv=0 dx=0 dy=0 dh=250 dv=0
PairPos2: "'kern' Horizontal Kerning in Arabic lookup 0 subtable" uni06A9 dx=0 dy=0 dh=0 dv=0 dx=0 dy=0 dh=250 dv=0
PairPos2: "'kern' Horizontal Kerning in Arabic lookup 0 subtable" uniFB94 dx=0 dy=0 dh=0 dv=0 dx=0 dy=0 dh=250 dv=0
PairPos2: "'kern' Horizontal Kerning in Arabic lookup 0 subtable" uniFBD5 dx=0 dy=0 dh=0 dv=0 dx=0 dy=0 dh=250 dv=0
PairPos2: "'kern' Horizontal Kerning in Arabic lookup 0 subtable" uni06AB.ini dx=0 dy=0 dh=0 dv=0 dx=0 dy=0 dh=250 dv=0
PairPos2: "'kern' Horizontal Kerning in Arabic lookup 0 subtable" uniFB90 dx=0 dy=0 dh=0 dv=0 dx=0 dy=0 dh=250 dv=0
PairPos2: "'kern' Horizontal Kerning in Arabic lookup 0 subtable" uniFEDB dx=0 dy=0 dh=0 dv=0 dx=0 dy=0 dh=250 dv=0
PairPos2: "'kern' Horizontal Kerning in Arabic lookup 0 subtable" uni0671 dx=0 dy=0 dh=0 dv=0 dx=0 dy=0 dh=200 dv=0
PairPos2: "'kern' Horizontal Kerning in Arabic lookup 0 subtable" afii57410 dx=0 dy=0 dh=0 dv=0 dx=0 dy=0 dh=200 dv=0
PairPos2: "'kern' Horizontal Kerning in Arabic lookup 0 subtable" afii57415 dx=0 dy=0 dh=0 dv=0 dx=0 dy=0 dh=50 dv=0
EndChar

StartChar: J
Encoding: 74 74 45
Width: 1024
GlyphClass: 2
Flags: W
LayerCount: 2
Fore
SplineSet
966 1384 m 1,0,-1
 966 1329 l 1,1,2
 911 1325 911 1325 875 1316 c 128,-1,3
 839 1307 839 1307 818 1286.5 c 128,-1,4
 797 1266 797 1266 789 1231.5 c 128,-1,5
 781 1197 781 1197 781 1143 c 2,6,-1
 781 262 l 2,7,8
 781 148 781 148 750 61.5 c 128,-1,9
 719 -25 719 -25 662 -83 c 128,-1,10
 605 -141 605 -141 524 -170.5 c 128,-1,11
 443 -200 443 -200 344 -200 c 0,12,13
 276 -200 276 -200 217 -179 c 128,-1,14
 158 -158 158 -158 114.5 -122.5 c 128,-1,15
 71 -87 71 -87 46 -40 c 128,-1,16
 21 7 21 7 21 59 c 0,17,18
 21 103 21 103 34 134 c 128,-1,19
 47 165 47 165 66.5 184.5 c 128,-1,20
 86 204 86 204 110 213 c 128,-1,21
 134 222 134 222 156 222 c 0,22,23
 179 222 179 222 201 212.5 c 128,-1,24
 223 203 223 203 240.5 184.5 c 128,-1,25
 258 166 258 166 269 139.5 c 128,-1,26
 280 113 280 113 280 79 c 0,27,28
 280 54 280 54 273 24 c 128,-1,29
 266 -6 266 -6 252 -26 c 1,30,-1
 252 -25 l 1,31,32
 242 -44 242 -44 236.5 -55.5 c 128,-1,33
 231 -67 231 -67 231 -69 c 0,34,35
 231 -98 231 -98 259 -113.5 c 128,-1,36
 287 -129 287 -129 326 -129 c 0,37,38
 370 -129 370 -129 399.5 -120.5 c 128,-1,39
 429 -112 429 -112 446.5 -91 c 128,-1,40
 464 -70 464 -70 471.5 -35.5 c 128,-1,41
 479 -1 479 -1 479 50 c 2,42,-1
 479 1186 l 2,43,44
 479 1274 479 1274 410 1308 c 0,45,46
 392 1317 392 1317 358.5 1322 c 128,-1,47
 325 1327 325 1327 274 1329 c 1,48,-1
 274 1384 l 1,49,-1
 966 1384 l 1,0,-1
EndSplineSet
Substitution2: "<17016,16016> Urdu Swash lookup 75 subtable" J
PairPos2: "'kern' Horizontal Kerning in Arabic lookup 0 subtable" afii57509 dx=0 dy=0 dh=0 dv=0 dx=0 dy=0 dh=250 dv=0
PairPos2: "'kern' Horizontal Kerning in Arabic lookup 0 subtable" uni06AB dx=0 dy=0 dh=0 dv=0 dx=0 dy=0 dh=250 dv=0
PairPos2: "'kern' Horizontal Kerning in Arabic lookup 0 subtable" uni06A9 dx=0 dy=0 dh=0 dv=0 dx=0 dy=0 dh=250 dv=0
PairPos2: "'kern' Horizontal Kerning in Arabic lookup 0 subtable" uniFB94 dx=0 dy=0 dh=0 dv=0 dx=0 dy=0 dh=250 dv=0
PairPos2: "'kern' Horizontal Kerning in Arabic lookup 0 subtable" uniFBD5 dx=0 dy=0 dh=0 dv=0 dx=0 dy=0 dh=250 dv=0
PairPos2: "'kern' Horizontal Kerning in Arabic lookup 0 subtable" uni06AB.ini dx=0 dy=0 dh=0 dv=0 dx=0 dy=0 dh=250 dv=0
PairPos2: "'kern' Horizontal Kerning in Arabic lookup 0 subtable" uniFB90 dx=0 dy=0 dh=0 dv=0 dx=0 dy=0 dh=250 dv=0
PairPos2: "'kern' Horizontal Kerning in Arabic lookup 0 subtable" uniFEDB dx=0 dy=0 dh=0 dv=0 dx=0 dy=0 dh=250 dv=0
PairPos2: "'kern' Horizontal Kerning in Arabic lookup 0 subtable" uni0671 dx=0 dy=0 dh=0 dv=0 dx=0 dy=0 dh=200 dv=0
PairPos2: "'kern' Horizontal Kerning in Arabic lookup 0 subtable" afii57410 dx=0 dy=0 dh=0 dv=0 dx=0 dy=0 dh=200 dv=0
PairPos2: "'kern' Horizontal Kerning in Arabic lookup 0 subtable" afii57415 dx=0 dy=0 dh=0 dv=0 dx=0 dy=0 dh=50 dv=0
EndChar

StartChar: K
Encoding: 75 75 46
AltUni2: 00212a.ffffffff.0
Width: 1593
GlyphClass: 2
Flags: W
LayerCount: 2
Fore
SplineSet
66 55 m 1,0,1
 116 57 116 57 150 67 c 128,-1,2
 184 77 184 77 204.5 94.5 c 128,-1,3
 225 112 225 112 234 138 c 128,-1,4
 243 164 243 164 243 197 c 2,5,-1
 243 1186 l 2,6,7
 243 1269 243 1269 182 1305 c 1,8,-1
 183 1305 l 1,9,10
 152 1323 152 1323 66 1329 c 1,11,-1
 66 1384 l 1,12,-1
 729 1384 l 1,13,-1
 729 1329 l 1,14,15
 681 1324 681 1324 645.5 1313.5 c 128,-1,16
 610 1303 610 1303 591 1290 c 1,17,18
 574 1270 574 1270 561.5 1231.5 c 128,-1,19
 549 1193 549 1193 549 1143 c 2,20,-1
 549 707 l 1,21,-1
 573 707 l 1,22,23
 579 713 579 713 612.5 746.5 c 128,-1,24
 646 780 646 780 693 827.5 c 128,-1,25
 740 875 740 875 794 929.5 c 128,-1,26
 848 984 848 984 895 1031.5 c 128,-1,27
 942 1079 942 1079 975 1112.5 c 128,-1,28
 1008 1146 1008 1146 1014 1152 c 0,29,30
 1062 1200 1062 1200 1074 1217 c 0,31,32
 1080 1228 1080 1228 1085 1241 c 128,-1,33
 1090 1254 1090 1254 1090 1264 c 0,34,35
 1090 1280 1090 1280 1083 1291 c 128,-1,36
 1076 1302 1076 1302 1057 1309.5 c 128,-1,37
 1038 1317 1038 1317 1004.5 1321.5 c 128,-1,38
 971 1326 971 1326 918 1329 c 1,39,-1
 918 1384 l 1,40,-1
 1482 1384 l 1,41,-1
 1482 1329 l 1,42,43
 1406 1323 1406 1323 1341.5 1300 c 128,-1,44
 1277 1277 1277 1277 1224 1240 c 0,45,46
 1197 1219 1197 1219 1156 1182.5 c 128,-1,47
 1115 1146 1115 1146 1063.5 1097.5 c 128,-1,48
 1012 1049 1012 1049 952 990.5 c 128,-1,49
 892 932 892 932 828 867 c 1,50,51
 904 775 904 775 984 675.5 c 128,-1,52
 1064 576 1064 576 1139 482 c 2,53,-1
 1451 96 l 2,54,55
 1468 76 1468 76 1489.5 67.5 c 128,-1,56
 1511 59 1511 59 1548 55 c 1,57,-1
 1548 0 l 1,58,-1
 890 0 l 1,59,-1
 890 54 l 1,60,61
 978 56 978 56 1014.5 64.5 c 128,-1,62
 1051 73 1051 73 1051 96 c 0,63,64
 1051 108 1051 108 1026 144.5 c 128,-1,65
 1001 181 1001 181 964 228 c 128,-1,66
 927 275 927 275 886 325.5 c 128,-1,67
 845 376 845 376 812 416 c 0,68,69
 764 475 764 475 718 533 c 128,-1,70
 672 591 672 591 626 648 c 1,71,-1
 605 648 l 1,72,-1
 553 596 l 1,73,-1
 549 596 l 1,74,-1
 549 197 l 2,75,76
 549 115 549 115 616 77 c 0,77,78
 648 59 648 59 726 55 c 1,79,-1
 726 0 l 1,80,-1
 66 0 l 1,81,-1
 66 55 l 1,0,1
EndSplineSet
Substitution2: "<17016,16016> Urdu Swash lookup 75 subtable" K
PairPos2: "'kern' Horizontal Kerning in Arabic lookup 0 subtable" afii57509 dx=0 dy=0 dh=0 dv=0 dx=0 dy=0 dh=250 dv=0
PairPos2: "'kern' Horizontal Kerning in Arabic lookup 0 subtable" uni06AB dx=0 dy=0 dh=0 dv=0 dx=0 dy=0 dh=250 dv=0
PairPos2: "'kern' Horizontal Kerning in Arabic lookup 0 subtable" uni06A9 dx=0 dy=0 dh=0 dv=0 dx=0 dy=0 dh=250 dv=0
PairPos2: "'kern' Horizontal Kerning in Arabic lookup 0 subtable" uniFB94 dx=0 dy=0 dh=0 dv=0 dx=0 dy=0 dh=250 dv=0
PairPos2: "'kern' Horizontal Kerning in Arabic lookup 0 subtable" uniFBD5 dx=0 dy=0 dh=0 dv=0 dx=0 dy=0 dh=250 dv=0
PairPos2: "'kern' Horizontal Kerning in Arabic lookup 0 subtable" uni06AB.ini dx=0 dy=0 dh=0 dv=0 dx=0 dy=0 dh=250 dv=0
PairPos2: "'kern' Horizontal Kerning in Arabic lookup 0 subtable" uniFB90 dx=0 dy=0 dh=0 dv=0 dx=0 dy=0 dh=250 dv=0
PairPos2: "'kern' Horizontal Kerning in Arabic lookup 0 subtable" uniFEDB dx=0 dy=0 dh=0 dv=0 dx=0 dy=0 dh=250 dv=0
PairPos2: "'kern' Horizontal Kerning in Arabic lookup 0 subtable" uni0671 dx=0 dy=0 dh=0 dv=0 dx=0 dy=0 dh=200 dv=0
PairPos2: "'kern' Horizontal Kerning in Arabic lookup 0 subtable" afii57410 dx=0 dy=0 dh=0 dv=0 dx=0 dy=0 dh=200 dv=0
PairPos2: "'kern' Horizontal Kerning in Arabic lookup 0 subtable" afii57415 dx=0 dy=0 dh=0 dv=0 dx=0 dy=0 dh=50 dv=0
EndChar

StartChar: L
Encoding: 76 76 47
AltUni2: 00216c.ffffffff.0
Width: 1366
GlyphClass: 2
Flags: W
LayerCount: 2
Fore
SplineSet
51 55 m 1,0,1
 89 57 89 57 118.5 62.5 c 128,-1,2
 148 68 148 68 164 76 c 0,3,4
 196 93 196 93 214 124.5 c 128,-1,5
 232 156 232 156 232 197 c 2,6,-1
 232 1186 l 2,7,8
 232 1271 232 1271 167 1306 c 0,9,10
 133 1325 133 1325 51 1329 c 1,11,-1
 51 1384 l 1,12,-1
 738 1384 l 1,13,-1
 738 1330 l 1,14,15
 680 1328 680 1328 639.5 1318.5 c 128,-1,16
 599 1309 599 1309 577 1295 c 1,17,18
 557 1275 557 1275 543.5 1236 c 128,-1,19
 530 1197 530 1197 530 1143 c 2,20,-1
 530 178 l 2,21,22
 530 116 530 116 572 89 c 0,23,24
 607 67 607 67 718 67 c 0,25,26
 811 67 811 67 891.5 88 c 128,-1,27
 972 109 972 109 1035 148 c 0,28,29
 1100 193 1100 193 1156.5 273 c 128,-1,30
 1213 353 1213 353 1257 465 c 1,31,-1
 1290 465 l 1,32,-1
 1207 0 l 1,33,-1
 51 0 l 1,34,-1
 51 55 l 1,0,1
EndSplineSet
Substitution2: "<17016,16016> Urdu Swash lookup 75 subtable" L
PairPos2: "'kern' Horizontal Kerning in Arabic lookup 0 subtable" afii57509 dx=0 dy=0 dh=0 dv=0 dx=0 dy=0 dh=250 dv=0
PairPos2: "'kern' Horizontal Kerning in Arabic lookup 0 subtable" uni06AB dx=0 dy=0 dh=0 dv=0 dx=0 dy=0 dh=250 dv=0
PairPos2: "'kern' Horizontal Kerning in Arabic lookup 0 subtable" uni06A9 dx=0 dy=0 dh=0 dv=0 dx=0 dy=0 dh=250 dv=0
PairPos2: "'kern' Horizontal Kerning in Arabic lookup 0 subtable" uniFB94 dx=0 dy=0 dh=0 dv=0 dx=0 dy=0 dh=250 dv=0
PairPos2: "'kern' Horizontal Kerning in Arabic lookup 0 subtable" uniFBD5 dx=0 dy=0 dh=0 dv=0 dx=0 dy=0 dh=250 dv=0
PairPos2: "'kern' Horizontal Kerning in Arabic lookup 0 subtable" uni06AB.ini dx=0 dy=0 dh=0 dv=0 dx=0 dy=0 dh=250 dv=0
PairPos2: "'kern' Horizontal Kerning in Arabic lookup 0 subtable" uniFB90 dx=0 dy=0 dh=0 dv=0 dx=0 dy=0 dh=250 dv=0
PairPos2: "'kern' Horizontal Kerning in Arabic lookup 0 subtable" uniFEDB dx=0 dy=0 dh=0 dv=0 dx=0 dy=0 dh=250 dv=0
PairPos2: "'kern' Horizontal Kerning in Arabic lookup 0 subtable" uni0671 dx=0 dy=0 dh=0 dv=0 dx=0 dy=0 dh=200 dv=0
PairPos2: "'kern' Horizontal Kerning in Arabic lookup 0 subtable" afii57410 dx=0 dy=0 dh=0 dv=0 dx=0 dy=0 dh=200 dv=0
PairPos2: "'kern' Horizontal Kerning in Arabic lookup 0 subtable" afii57415 dx=0 dy=0 dh=0 dv=0 dx=0 dy=0 dh=50 dv=0
EndChar

StartChar: M
Encoding: 77 77 48
AltUni2: 00216f.ffffffff.0
Width: 1933
GlyphClass: 2
Flags: W
LayerCount: 2
Fore
SplineSet
42 54 m 1,0,1
 156 56 156 56 190 95 c 0,2,3
 229 140 229 140 229 216 c 2,4,-1
 229 1186 l 2,5,6
 229 1223 229 1223 219.5 1248.5 c 128,-1,7
 210 1274 210 1274 189 1290.5 c 128,-1,8
 168 1307 168 1307 133 1316 c 128,-1,9
 98 1325 98 1325 47 1329 c 1,10,-1
 47 1384 l 1,11,-1
 535 1384 l 1,12,-1
 938 437 l 1,13,-1
 981 437 l 1,14,15
 990 458 990 458 1010 505.5 c 128,-1,16
 1030 553 1030 553 1057 617 c 128,-1,17
 1084 681 1084 681 1116 756.5 c 128,-1,18
 1148 832 1148 832 1181 910.5 c 128,-1,19
 1214 989 1214 989 1246 1064.5 c 128,-1,20
 1278 1140 1278 1140 1305 1204 c 128,-1,21
 1332 1268 1332 1268 1352 1315.5 c 128,-1,22
 1372 1363 1372 1363 1381 1384 c 1,23,-1
 1869 1384 l 1,24,-1
 1869 1329 l 1,25,26
 1817 1325 1817 1325 1782.5 1316 c 128,-1,27
 1748 1307 1748 1307 1727.5 1286.5 c 128,-1,28
 1707 1266 1707 1266 1698.5 1231.5 c 128,-1,29
 1690 1197 1690 1197 1690 1143 c 2,30,-1
 1690 240 l 2,31,32
 1690 189 1690 189 1698 154.5 c 128,-1,33
 1706 120 1706 120 1726.5 99 c 128,-1,34
 1747 78 1747 78 1781.5 68 c 128,-1,35
 1816 58 1816 58 1869 55 c 1,36,-1
 1869 0 l 1,37,-1
 1218 0 l 1,38,-1
 1218 54 l 1,39,40
 1264 56 1264 56 1298 64 c 128,-1,41
 1332 72 1332 72 1355 89.5 c 128,-1,42
 1378 107 1378 107 1389.5 135 c 128,-1,43
 1401 163 1401 163 1401 204 c 2,44,-1
 1401 1202 l 1,45,-1
 1359 1202 l 1,46,47
 1348 1175 1348 1175 1323 1115 c 128,-1,48
 1298 1055 1298 1055 1264 974 c 128,-1,49
 1230 893 1230 893 1190 796.5 c 128,-1,50
 1150 700 1150 700 1108.5 601 c 128,-1,51
 1067 502 1067 502 1027 405.5 c 128,-1,52
 987 309 987 309 953 228 c 128,-1,53
 919 147 919 147 894 87 c 128,-1,54
 869 27 869 27 858 0 c 1,55,-1
 829 0 l 1,56,-1
 323 1178 l 1,57,-1
 287 1178 l 1,58,-1
 287 254 l 2,59,60
 287 158 287 158 328 106 c 0,61,62
 366 58 366 58 492 54 c 1,63,-1
 492 0 l 1,64,-1
 42 0 l 1,65,-1
 42 54 l 1,0,1
EndSplineSet
Substitution2: "<17016,16016> Urdu Swash lookup 75 subtable" M
PairPos2: "'kern' Horizontal Kerning in Arabic lookup 0 subtable" afii57509 dx=0 dy=0 dh=0 dv=0 dx=0 dy=0 dh=250 dv=0
PairPos2: "'kern' Horizontal Kerning in Arabic lookup 0 subtable" uni06AB dx=0 dy=0 dh=0 dv=0 dx=0 dy=0 dh=250 dv=0
PairPos2: "'kern' Horizontal Kerning in Arabic lookup 0 subtable" uni06A9 dx=0 dy=0 dh=0 dv=0 dx=0 dy=0 dh=250 dv=0
PairPos2: "'kern' Horizontal Kerning in Arabic lookup 0 subtable" uniFB94 dx=0 dy=0 dh=0 dv=0 dx=0 dy=0 dh=250 dv=0
PairPos2: "'kern' Horizontal Kerning in Arabic lookup 0 subtable" uniFBD5 dx=0 dy=0 dh=0 dv=0 dx=0 dy=0 dh=250 dv=0
PairPos2: "'kern' Horizontal Kerning in Arabic lookup 0 subtable" uni06AB.ini dx=0 dy=0 dh=0 dv=0 dx=0 dy=0 dh=250 dv=0
PairPos2: "'kern' Horizontal Kerning in Arabic lookup 0 subtable" uniFB90 dx=0 dy=0 dh=0 dv=0 dx=0 dy=0 dh=250 dv=0
PairPos2: "'kern' Horizontal Kerning in Arabic lookup 0 subtable" uniFEDB dx=0 dy=0 dh=0 dv=0 dx=0 dy=0 dh=250 dv=0
PairPos2: "'kern' Horizontal Kerning in Arabic lookup 0 subtable" uni0671 dx=0 dy=0 dh=0 dv=0 dx=0 dy=0 dh=200 dv=0
PairPos2: "'kern' Horizontal Kerning in Arabic lookup 0 subtable" afii57410 dx=0 dy=0 dh=0 dv=0 dx=0 dy=0 dh=200 dv=0
PairPos2: "'kern' Horizontal Kerning in Arabic lookup 0 subtable" afii57415 dx=0 dy=0 dh=0 dv=0 dx=0 dy=0 dh=50 dv=0
EndChar

StartChar: N
Encoding: 78 78 49
Width: 1479
GlyphClass: 2
Flags: W
LayerCount: 2
Fore
SplineSet
47 54 m 1,0,1
 100 56 100 56 137 67.5 c 128,-1,2
 174 79 174 79 191 97 c 0,3,4
 208 119 208 119 217.5 149.5 c 128,-1,5
 227 180 227 180 227 216 c 2,6,-1
 227 1183 l 1,7,-1
 223 1183 l 1,8,9
 179 1232 179 1232 154 1260 c 128,-1,10
 129 1288 129 1288 112.5 1302 c 128,-1,11
 96 1316 96 1316 83.5 1320.5 c 128,-1,12
 71 1325 71 1325 51 1328 c 1,13,-1
 51 1384 l 1,14,-1
 459 1384 l 1,15,-1
 1162 522 l 1,16,-1
 1197 522 l 1,17,-1
 1197 1129 l 2,18,19
 1197 1176 1197 1176 1189.5 1211 c 128,-1,20
 1182 1246 1182 1246 1161 1271 c 128,-1,21
 1140 1296 1140 1296 1103 1310 c 128,-1,22
 1066 1324 1066 1324 1008 1329 c 1,23,-1
 1008 1384 l 1,24,-1
 1420 1384 l 1,25,-1
 1420 1328 l 1,26,27
 1373 1320 1373 1320 1342 1310 c 128,-1,28
 1311 1300 1311 1300 1292.5 1283 c 128,-1,29
 1274 1266 1274 1266 1266.5 1238.5 c 128,-1,30
 1259 1211 1259 1211 1259 1167 c 2,31,-1
 1259 -38 l 1,32,-1
 1227 -38 l 1,33,-1
 328 1056 l 1,34,-1
 289 1056 l 1,35,-1
 289 254 l 2,36,37
 289 202 289 202 299 164.5 c 128,-1,38
 309 127 309 127 332 103 c 128,-1,39
 355 79 355 79 392 67.5 c 128,-1,40
 429 56 429 56 482 54 c 1,41,-1
 482 0 l 1,42,-1
 47 0 l 1,43,-1
 47 54 l 1,0,1
EndSplineSet
Substitution2: "<17016,16016> Urdu Swash lookup 75 subtable" N
PairPos2: "'kern' Horizontal Kerning in Arabic lookup 0 subtable" afii57509 dx=0 dy=0 dh=0 dv=0 dx=0 dy=0 dh=250 dv=0
PairPos2: "'kern' Horizontal Kerning in Arabic lookup 0 subtable" uni06AB dx=0 dy=0 dh=0 dv=0 dx=0 dy=0 dh=250 dv=0
PairPos2: "'kern' Horizontal Kerning in Arabic lookup 0 subtable" uni06A9 dx=0 dy=0 dh=0 dv=0 dx=0 dy=0 dh=250 dv=0
PairPos2: "'kern' Horizontal Kerning in Arabic lookup 0 subtable" uniFB94 dx=0 dy=0 dh=0 dv=0 dx=0 dy=0 dh=250 dv=0
PairPos2: "'kern' Horizontal Kerning in Arabic lookup 0 subtable" uniFBD5 dx=0 dy=0 dh=0 dv=0 dx=0 dy=0 dh=250 dv=0
PairPos2: "'kern' Horizontal Kerning in Arabic lookup 0 subtable" uni06AB.ini dx=0 dy=0 dh=0 dv=0 dx=0 dy=0 dh=250 dv=0
PairPos2: "'kern' Horizontal Kerning in Arabic lookup 0 subtable" uniFB90 dx=0 dy=0 dh=0 dv=0 dx=0 dy=0 dh=250 dv=0
PairPos2: "'kern' Horizontal Kerning in Arabic lookup 0 subtable" uniFEDB dx=0 dy=0 dh=0 dv=0 dx=0 dy=0 dh=250 dv=0
PairPos2: "'kern' Horizontal Kerning in Arabic lookup 0 subtable" uni0671 dx=0 dy=0 dh=0 dv=0 dx=0 dy=0 dh=200 dv=0
PairPos2: "'kern' Horizontal Kerning in Arabic lookup 0 subtable" afii57410 dx=0 dy=0 dh=0 dv=0 dx=0 dy=0 dh=200 dv=0
PairPos2: "'kern' Horizontal Kerning in Arabic lookup 0 subtable" afii57415 dx=0 dy=0 dh=0 dv=0 dx=0 dy=0 dh=50 dv=0
EndChar

StartChar: O
Encoding: 79 79 50
Width: 1593
GlyphClass: 2
Flags: W
LayerCount: 2
Fore
SplineSet
1121 302 m 0,0,1
 1145 377 1145 377 1156.5 473 c 128,-1,2
 1168 569 1168 569 1168 687 c 0,3,4
 1168 845 1168 845 1142 969 c 128,-1,5
 1116 1093 1116 1093 1069 1178 c 1,6,7
 1021 1253 1021 1253 949.5 1298.5 c 128,-1,8
 878 1344 878 1344 793 1344 c 0,9,10
 673 1344 673 1344 590 1272 c 128,-1,11
 507 1200 507 1200 462 1069 c 1,12,13
 441 994 441 994 428.5 896.5 c 128,-1,14
 416 799 416 799 416 687 c 0,15,16
 416 358 416 358 508 194 c 128,-1,17
 600 30 600 30 793 30 c 0,18,19
 1037 30 1037 30 1121 302 c 0,0,1
1298 1215 m 256,20,21
 1504 1015 1504 1015 1504 687 c 256,22,23
 1504 359 1504 359 1298 159 c 256,24,25
 1092 -41 1092 -41 793 -41 c 0,26,27
 475 -41 475 -41 269 178 c 0,28,29
 80 379 80 379 80 676 c 0,30,31
 80 1004 80 1004 278 1205 c 0,32,33
 381 1310 381 1310 508 1363 c 128,-1,34
 635 1416 635 1416 793 1415 c 0,35,36
 1092 1415 1092 1415 1298 1215 c 256,20,21
EndSplineSet
Substitution2: "<17016,16016> Urdu Swash lookup 75 subtable" O
PairPos2: "'kern' Horizontal Kerning in Arabic lookup 0 subtable" afii57509 dx=0 dy=0 dh=0 dv=0 dx=0 dy=0 dh=250 dv=0
PairPos2: "'kern' Horizontal Kerning in Arabic lookup 0 subtable" uni06AB dx=0 dy=0 dh=0 dv=0 dx=0 dy=0 dh=250 dv=0
PairPos2: "'kern' Horizontal Kerning in Arabic lookup 0 subtable" uni06A9 dx=0 dy=0 dh=0 dv=0 dx=0 dy=0 dh=250 dv=0
PairPos2: "'kern' Horizontal Kerning in Arabic lookup 0 subtable" uniFB94 dx=0 dy=0 dh=0 dv=0 dx=0 dy=0 dh=250 dv=0
PairPos2: "'kern' Horizontal Kerning in Arabic lookup 0 subtable" uniFBD5 dx=0 dy=0 dh=0 dv=0 dx=0 dy=0 dh=250 dv=0
PairPos2: "'kern' Horizontal Kerning in Arabic lookup 0 subtable" uni06AB.ini dx=0 dy=0 dh=0 dv=0 dx=0 dy=0 dh=250 dv=0
PairPos2: "'kern' Horizontal Kerning in Arabic lookup 0 subtable" uniFB90 dx=0 dy=0 dh=0 dv=0 dx=0 dy=0 dh=250 dv=0
PairPos2: "'kern' Horizontal Kerning in Arabic lookup 0 subtable" uniFEDB dx=0 dy=0 dh=0 dv=0 dx=0 dy=0 dh=250 dv=0
PairPos2: "'kern' Horizontal Kerning in Arabic lookup 0 subtable" uni0671 dx=0 dy=0 dh=0 dv=0 dx=0 dy=0 dh=200 dv=0
PairPos2: "'kern' Horizontal Kerning in Arabic lookup 0 subtable" afii57410 dx=0 dy=0 dh=0 dv=0 dx=0 dy=0 dh=200 dv=0
PairPos2: "'kern' Horizontal Kerning in Arabic lookup 0 subtable" afii57415 dx=0 dy=0 dh=0 dv=0 dx=0 dy=0 dh=50 dv=0
EndChar

StartChar: P
Encoding: 80 80 51
Width: 1251
GlyphClass: 2
Flags: W
LayerCount: 2
Fore
SplineSet
785 735 m 0,0,1
 889 800 889 800 889 1001 c 0,2,3
 889 1067 889 1067 876 1124 c 128,-1,4
 863 1181 863 1181 840 1226 c 0,5,6
 818 1268 818 1268 769 1289.5 c 128,-1,7
 720 1311 720 1311 648 1311 c 0,8,9
 579 1311 579 1311 549.5 1297 c 128,-1,10
 520 1283 520 1283 520 1241 c 2,11,-1
 520 693 l 1,12,-1
 534 693 l 2,13,14
 630 693 630 693 692.5 705 c 128,-1,15
 755 717 755 717 785 735 c 0,0,1
47 55 m 1,16,17
 99 59 99 59 132 70 c 128,-1,18
 165 81 165 81 184 102 c 128,-1,19
 203 123 203 123 210 157 c 128,-1,20
 217 191 217 191 217 240 c 2,21,-1
 217 1143 l 2,22,23
 217 1196 217 1196 209.5 1229.5 c 128,-1,24
 202 1263 202 1263 182.5 1283.5 c 128,-1,25
 163 1304 163 1304 130.5 1313.5 c 128,-1,26
 98 1323 98 1323 47 1329 c 1,27,-1
 47 1384 l 1,28,-1
 691 1384 l 2,29,30
 947 1384 947 1384 1081 1299 c 0,31,32
 1211 1217 1211 1217 1211 1007 c 0,33,34
 1211 934 1211 934 1184 868.5 c 128,-1,35
 1157 803 1157 803 1106 752.5 c 128,-1,36
 1055 702 1055 702 980 669 c 128,-1,37
 905 636 905 636 809 628 c 0,38,39
 762 624 762 624 693.5 622 c 128,-1,40
 625 620 625 620 534 620 c 2,41,-1
 520 620 l 1,42,-1
 520 240 l 2,43,44
 520 189 520 189 528.5 154.5 c 128,-1,45
 537 120 537 120 557.5 99 c 128,-1,46
 578 78 578 78 612.5 68 c 128,-1,47
 647 58 647 58 700 55 c 1,48,-1
 700 0 l 1,49,-1
 47 0 l 1,50,-1
 47 55 l 1,16,17
EndSplineSet
Substitution2: "<17016,16016> Urdu Swash lookup 75 subtable" P
PairPos2: "'kern' Horizontal Kerning in Arabic lookup 0 subtable" afii57509 dx=0 dy=0 dh=0 dv=0 dx=0 dy=0 dh=250 dv=0
PairPos2: "'kern' Horizontal Kerning in Arabic lookup 0 subtable" uni06AB dx=0 dy=0 dh=0 dv=0 dx=0 dy=0 dh=250 dv=0
PairPos2: "'kern' Horizontal Kerning in Arabic lookup 0 subtable" uni06A9 dx=0 dy=0 dh=0 dv=0 dx=0 dy=0 dh=250 dv=0
PairPos2: "'kern' Horizontal Kerning in Arabic lookup 0 subtable" uniFB94 dx=0 dy=0 dh=0 dv=0 dx=0 dy=0 dh=250 dv=0
PairPos2: "'kern' Horizontal Kerning in Arabic lookup 0 subtable" uniFBD5 dx=0 dy=0 dh=0 dv=0 dx=0 dy=0 dh=250 dv=0
PairPos2: "'kern' Horizontal Kerning in Arabic lookup 0 subtable" uni06AB.ini dx=0 dy=0 dh=0 dv=0 dx=0 dy=0 dh=250 dv=0
PairPos2: "'kern' Horizontal Kerning in Arabic lookup 0 subtable" uniFB90 dx=0 dy=0 dh=0 dv=0 dx=0 dy=0 dh=250 dv=0
PairPos2: "'kern' Horizontal Kerning in Arabic lookup 0 subtable" uniFEDB dx=0 dy=0 dh=0 dv=0 dx=0 dy=0 dh=250 dv=0
PairPos2: "'kern' Horizontal Kerning in Arabic lookup 0 subtable" uni0671 dx=0 dy=0 dh=0 dv=0 dx=0 dy=0 dh=200 dv=0
PairPos2: "'kern' Horizontal Kerning in Arabic lookup 0 subtable" afii57410 dx=0 dy=0 dh=0 dv=0 dx=0 dy=0 dh=200 dv=0
PairPos2: "'kern' Horizontal Kerning in Arabic lookup 0 subtable" afii57415 dx=0 dy=0 dh=0 dv=0 dx=0 dy=0 dh=50 dv=0
EndChar

StartChar: Q
Encoding: 81 81 52
Width: 1593
GlyphClass: 2
Flags: W
LayerCount: 2
Fore
SplineSet
1121 302 m 0,0,1
 1145 377 1145 377 1156.5 473 c 128,-1,2
 1168 569 1168 569 1168 687 c 0,3,4
 1168 845 1168 845 1142 969 c 128,-1,5
 1116 1093 1116 1093 1069 1178 c 1,6,7
 1021 1253 1021 1253 949.5 1298.5 c 128,-1,8
 878 1344 878 1344 793 1344 c 0,9,10
 673 1344 673 1344 590 1272 c 128,-1,11
 507 1200 507 1200 462 1069 c 1,12,13
 441 994 441 994 428.5 896.5 c 128,-1,14
 416 799 416 799 416 687 c 0,15,16
 416 358 416 358 508 194 c 128,-1,17
 600 30 600 30 793 30 c 0,18,19
 1037 30 1037 30 1121 302 c 0,0,1
1298 1215 m 256,20,21
 1504 1015 1504 1015 1504 687 c 0,22,23
 1504 507 1504 507 1441.5 366.5 c 128,-1,24
 1379 226 1379 226 1258 124 c 0,25,26
 1210 84 1210 84 1142 48 c 128,-1,27
 1074 12 1074 12 994 -15 c 1,28,-1
 986 -15 l 1,29,30
 1007 -65 1007 -65 1043.5 -110 c 128,-1,31
 1080 -155 1080 -155 1128 -189.5 c 128,-1,32
 1176 -224 1176 -224 1233 -244 c 128,-1,33
 1290 -264 1290 -264 1353 -264 c 0,34,35
 1397 -264 1397 -264 1424 -259 c 128,-1,36
 1451 -254 1451 -254 1478 -245 c 1,37,-1
 1490 -295 l 1,38,39
 1451 -312 1451 -312 1404 -324.5 c 128,-1,40
 1357 -337 1357 -337 1309.5 -345.5 c 128,-1,41
 1262 -354 1262 -354 1216 -358.5 c 128,-1,42
 1170 -363 1170 -363 1132 -363 c 0,43,44
 967 -363 967 -363 801 -278 c 0,45,46
 644 -197 644 -197 578 -28 c 0,47,48
 576 -21 576 -21 574.5 -16.5 c 128,-1,49
 573 -12 573 -12 569 -8.5 c 128,-1,50
 565 -5 565 -5 556 -1.5 c 128,-1,51
 547 2 547 2 529 8 c 0,52,53
 467 29 467 29 406.5 67.5 c 128,-1,54
 346 106 346 106 288 160 c 0,55,56
 80 362 80 362 80 679 c 0,57,58
 80 843 80 843 134.5 978 c 128,-1,59
 189 1113 189 1113 284.5 1210.5 c 128,-1,60
 380 1308 380 1308 510.5 1361.5 c 128,-1,61
 641 1415 641 1415 793 1415 c 0,62,63
 1092 1415 1092 1415 1298 1215 c 256,20,21
EndSplineSet
Substitution2: "<17016,16016> Urdu Swash lookup 75 subtable" Q
PairPos2: "'kern' Horizontal Kerning in Arabic lookup 0 subtable" afii57509 dx=0 dy=0 dh=0 dv=0 dx=0 dy=0 dh=250 dv=0
PairPos2: "'kern' Horizontal Kerning in Arabic lookup 0 subtable" uni06AB dx=0 dy=0 dh=0 dv=0 dx=0 dy=0 dh=250 dv=0
PairPos2: "'kern' Horizontal Kerning in Arabic lookup 0 subtable" uni06A9 dx=0 dy=0 dh=0 dv=0 dx=0 dy=0 dh=250 dv=0
PairPos2: "'kern' Horizontal Kerning in Arabic lookup 0 subtable" uniFB94 dx=0 dy=0 dh=0 dv=0 dx=0 dy=0 dh=250 dv=0
PairPos2: "'kern' Horizontal Kerning in Arabic lookup 0 subtable" uniFBD5 dx=0 dy=0 dh=0 dv=0 dx=0 dy=0 dh=250 dv=0
PairPos2: "'kern' Horizontal Kerning in Arabic lookup 0 subtable" uni06AB.ini dx=0 dy=0 dh=0 dv=0 dx=0 dy=0 dh=250 dv=0
PairPos2: "'kern' Horizontal Kerning in Arabic lookup 0 subtable" uniFB90 dx=0 dy=0 dh=0 dv=0 dx=0 dy=0 dh=250 dv=0
PairPos2: "'kern' Horizontal Kerning in Arabic lookup 0 subtable" uniFEDB dx=0 dy=0 dh=0 dv=0 dx=0 dy=0 dh=250 dv=0
PairPos2: "'kern' Horizontal Kerning in Arabic lookup 0 subtable" uni0671 dx=0 dy=0 dh=0 dv=0 dx=0 dy=0 dh=200 dv=0
PairPos2: "'kern' Horizontal Kerning in Arabic lookup 0 subtable" afii57410 dx=0 dy=0 dh=0 dv=0 dx=0 dy=0 dh=200 dv=0
PairPos2: "'kern' Horizontal Kerning in Arabic lookup 0 subtable" afii57415 dx=0 dy=0 dh=0 dv=0 dx=0 dy=0 dh=50 dv=0
EndChar

StartChar: R
Encoding: 82 82 53
Width: 1479
GlyphClass: 2
Flags: W
LayerCount: 2
Fore
SplineSet
932 1010 m 0,0,1
 932 1162 932 1162 871.5 1237.5 c 128,-1,2
 811 1313 811 1313 677 1313 c 0,3,4
 630 1313 630 1313 602 1308 c 128,-1,5
 574 1303 574 1303 561 1292 c 0,6,7
 530 1268 530 1268 530 1226 c 2,8,-1
 530 707 l 1,9,-1
 544 707 l 2,10,11
 645 707 645 707 720 723.5 c 128,-1,12
 795 740 795 740 838 763 c 1,13,14
 883 794 883 794 907.5 856.5 c 128,-1,15
 932 919 932 919 932 1010 c 0,0,1
47 55 m 1,16,17
 100 58 100 58 134.5 68 c 128,-1,18
 169 78 169 78 189.5 99 c 128,-1,19
 210 120 210 120 218.5 154.5 c 128,-1,20
 227 189 227 189 227 240 c 2,21,-1
 227 1143 l 2,22,23
 227 1197 227 1197 213 1237 c 128,-1,24
 199 1277 199 1277 176 1297 c 0,25,26
 162 1309 162 1309 129 1316.5 c 128,-1,27
 96 1324 96 1324 47 1329 c 1,28,-1
 47 1384 l 1,29,-1
 691 1384 l 2,30,31
 976 1384 976 1384 1115 1296 c 128,-1,32
 1254 1208 1254 1208 1254 1028 c 0,33,34
 1254 856 1254 856 1137 764 c 0,35,36
 1042 690 1042 690 944 672 c 1,37,-1
 937 672 l 1,38,39
 940 668 940 668 958.5 642 c 128,-1,40
 977 616 977 616 1005.5 575.5 c 128,-1,41
 1034 535 1034 535 1069.5 484.5 c 128,-1,42
 1105 434 1105 434 1142 382 c 128,-1,43
 1179 330 1179 330 1214.5 279.5 c 128,-1,44
 1250 229 1250 229 1278.5 188.5 c 128,-1,45
 1307 148 1307 148 1325.5 122 c 128,-1,46
 1344 96 1344 96 1347 92 c 0,47,48
 1363 70 1363 70 1383 62.5 c 128,-1,49
 1403 55 1403 55 1427 52 c 1,50,-1
 1427 0 l 1,51,-1
 1035 0 l 1,52,-1
 610 639 l 1,53,-1
 530 639 l 1,54,-1
 530 240 l 2,55,56
 530 192 530 192 537 158 c 128,-1,57
 544 124 544 124 563.5 102 c 128,-1,58
 583 80 583 80 618 69 c 128,-1,59
 653 58 653 58 710 55 c 1,60,-1
 710 0 l 1,61,-1
 47 0 l 1,62,-1
 47 55 l 1,16,17
EndSplineSet
Substitution2: "<17016,16016> Urdu Swash lookup 75 subtable" R
PairPos2: "'kern' Horizontal Kerning in Arabic lookup 0 subtable" afii57509 dx=0 dy=0 dh=0 dv=0 dx=0 dy=0 dh=250 dv=0
PairPos2: "'kern' Horizontal Kerning in Arabic lookup 0 subtable" uni06AB dx=0 dy=0 dh=0 dv=0 dx=0 dy=0 dh=250 dv=0
PairPos2: "'kern' Horizontal Kerning in Arabic lookup 0 subtable" uni06A9 dx=0 dy=0 dh=0 dv=0 dx=0 dy=0 dh=250 dv=0
PairPos2: "'kern' Horizontal Kerning in Arabic lookup 0 subtable" uniFB94 dx=0 dy=0 dh=0 dv=0 dx=0 dy=0 dh=250 dv=0
PairPos2: "'kern' Horizontal Kerning in Arabic lookup 0 subtable" uniFBD5 dx=0 dy=0 dh=0 dv=0 dx=0 dy=0 dh=250 dv=0
PairPos2: "'kern' Horizontal Kerning in Arabic lookup 0 subtable" uni06AB.ini dx=0 dy=0 dh=0 dv=0 dx=0 dy=0 dh=250 dv=0
PairPos2: "'kern' Horizontal Kerning in Arabic lookup 0 subtable" uniFB90 dx=0 dy=0 dh=0 dv=0 dx=0 dy=0 dh=250 dv=0
PairPos2: "'kern' Horizontal Kerning in Arabic lookup 0 subtable" uniFEDB dx=0 dy=0 dh=0 dv=0 dx=0 dy=0 dh=250 dv=0
PairPos2: "'kern' Horizontal Kerning in Arabic lookup 0 subtable" uni0671 dx=0 dy=0 dh=0 dv=0 dx=0 dy=0 dh=200 dv=0
PairPos2: "'kern' Horizontal Kerning in Arabic lookup 0 subtable" afii57410 dx=0 dy=0 dh=0 dv=0 dx=0 dy=0 dh=200 dv=0
PairPos2: "'kern' Horizontal Kerning in Arabic lookup 0 subtable" afii57415 dx=0 dy=0 dh=0 dv=0 dx=0 dy=0 dh=50 dv=0
EndChar

StartChar: S
Encoding: 83 83 54
Width: 1139
GlyphClass: 2
Flags: W
LayerCount: 2
Fore
SplineSet
85 479 m 1,0,-1
 116 479 l 1,1,2
 139 374 139 374 183.5 288 c 128,-1,3
 228 202 228 202 282 147 c 1,4,5
 337 99 337 99 405 71 c 128,-1,6
 473 43 473 43 546 43 c 256,7,8
 619 43 619 43 672.5 61.5 c 128,-1,9
 726 80 726 80 756 114 c 0,10,11
 785 150 785 150 801.5 189 c 128,-1,12
 818 228 818 228 818 264 c 0,13,14
 818 350 818 350 751 412 c 0,15,16
 733 429 733 429 690 454.5 c 128,-1,17
 647 480 647 480 584 511 c 0,18,19
 578 514 578 514 558.5 523.5 c 128,-1,20
 539 533 539 533 517.5 544 c 128,-1,21
 496 555 496 555 476.5 564.5 c 128,-1,22
 457 574 457 574 451 577 c 0,23,24
 359 625 359 625 288.5 674 c 128,-1,25
 218 723 218 723 176 771 c 0,26,27
 137 816 137 816 118.5 876 c 128,-1,28
 100 936 100 936 99 1009 c 0,29,30
 99 1162 99 1162 203 1289 c 0,31,32
 311 1419 311 1419 521 1419 c 0,33,34
 631 1419 631 1419 734 1385 c 0,35,36
 839 1351 839 1351 860 1351 c 0,37,38
 882 1351 882 1351 896 1356 c 128,-1,39
 910 1361 910 1361 919 1370.5 c 128,-1,40
 928 1380 928 1380 933 1393 c 128,-1,41
 938 1406 938 1406 942 1422 c 1,42,-1
 975 1422 l 1,43,-1
 975 975 l 1,44,-1
 946 975 l 1,45,46
 937 1010 937 1010 922 1045 c 128,-1,47
 907 1080 907 1080 887.5 1114.5 c 128,-1,48
 868 1149 868 1149 844.5 1181 c 128,-1,49
 821 1213 821 1213 797 1241 c 0,50,51
 746 1294 746 1294 679 1323.5 c 128,-1,52
 612 1353 612 1353 536 1353 c 0,53,54
 478 1353 478 1353 433.5 1336.5 c 128,-1,55
 389 1320 389 1320 359 1292.5 c 128,-1,56
 329 1265 329 1265 313.5 1230.5 c 128,-1,57
 298 1196 298 1196 298 1160 c 0,58,59
 298 1070 298 1070 359 1017 c 0,60,61
 376 1002 376 1002 415.5 978.5 c 128,-1,62
 455 955 455 955 509 926 c 128,-1,63
 563 897 563 897 628.5 864 c 128,-1,64
 694 831 694 831 764 797 c 0,65,66
 813 774 813 774 853 745 c 128,-1,67
 893 716 893 716 925 684 c 0,68,69
 1035 575 1035 575 1035 401 c 0,70,71
 1035 323 1035 323 1004 248.5 c 128,-1,72
 973 174 973 174 916 108 c 0,73,74
 855 41 855 41 759.5 6 c 128,-1,75
 664 -29 664 -29 534 -29 c 0,76,77
 471 -29 471 -29 401.5 -15 c 128,-1,78
 332 -1 332 -1 269 26 c 0,79,80
 253 33 253 33 231.5 37.5 c 128,-1,81
 210 42 210 42 195 42 c 0,82,83
 174 42 174 42 161 37 c 128,-1,84
 148 32 148 32 140 23 c 128,-1,85
 132 14 132 14 127 1 c 128,-1,86
 122 -12 122 -12 117 -29 c 1,87,-1
 85 -29 l 1,88,-1
 85 479 l 1,0,-1
EndSplineSet
Substitution2: "<17016,16016> Urdu Swash lookup 75 subtable" S
PairPos2: "'kern' Horizontal Kerning in Arabic lookup 0 subtable" afii57509 dx=0 dy=0 dh=0 dv=0 dx=0 dy=0 dh=250 dv=0
PairPos2: "'kern' Horizontal Kerning in Arabic lookup 0 subtable" uni06AB dx=0 dy=0 dh=0 dv=0 dx=0 dy=0 dh=250 dv=0
PairPos2: "'kern' Horizontal Kerning in Arabic lookup 0 subtable" uni06A9 dx=0 dy=0 dh=0 dv=0 dx=0 dy=0 dh=250 dv=0
PairPos2: "'kern' Horizontal Kerning in Arabic lookup 0 subtable" uniFB94 dx=0 dy=0 dh=0 dv=0 dx=0 dy=0 dh=250 dv=0
PairPos2: "'kern' Horizontal Kerning in Arabic lookup 0 subtable" uniFBD5 dx=0 dy=0 dh=0 dv=0 dx=0 dy=0 dh=250 dv=0
PairPos2: "'kern' Horizontal Kerning in Arabic lookup 0 subtable" uni06AB.ini dx=0 dy=0 dh=0 dv=0 dx=0 dy=0 dh=250 dv=0
PairPos2: "'kern' Horizontal Kerning in Arabic lookup 0 subtable" uniFB90 dx=0 dy=0 dh=0 dv=0 dx=0 dy=0 dh=250 dv=0
PairPos2: "'kern' Horizontal Kerning in Arabic lookup 0 subtable" uniFEDB dx=0 dy=0 dh=0 dv=0 dx=0 dy=0 dh=250 dv=0
PairPos2: "'kern' Horizontal Kerning in Arabic lookup 0 subtable" uni0671 dx=0 dy=0 dh=0 dv=0 dx=0 dy=0 dh=200 dv=0
PairPos2: "'kern' Horizontal Kerning in Arabic lookup 0 subtable" afii57410 dx=0 dy=0 dh=0 dv=0 dx=0 dy=0 dh=200 dv=0
PairPos2: "'kern' Horizontal Kerning in Arabic lookup 0 subtable" afii57415 dx=0 dy=0 dh=0 dv=0 dx=0 dy=0 dh=50 dv=0
EndChar

StartChar: T
Encoding: 84 84 55
Width: 1366
GlyphClass: 2
Flags: W
LayerCount: 2
Fore
SplineSet
66 1384 m 1,0,-1
 1271 1384 l 1,1,-1
 1271 970 l 1,2,-1
 1242 970 l 1,3,4
 1228 1076 1228 1076 1183.5 1151 c 128,-1,5
 1139 1226 1139 1226 1069 1268 c 1,6,-1
 1070 1268 l 1,7,8
 1032 1288 1032 1288 970 1300.5 c 128,-1,9
 908 1313 908 1313 833 1315 c 2,10,-1
 819 1315 l 1,11,-1
 819 240 l 2,12,13
 819 189 819 189 827 154 c 128,-1,14
 835 119 835 119 857.5 96.5 c 128,-1,15
 880 74 880 74 919.5 64 c 128,-1,16
 959 54 959 54 1023 54 c 1,17,-1
 1023 0 l 1,18,-1
 322 0 l 1,19,-1
 322 54 l 1,20,21
 383 54 383 54 421.5 64 c 128,-1,22
 460 74 460 74 482 96.5 c 128,-1,23
 504 119 504 119 512 154.5 c 128,-1,24
 520 190 520 190 520 240 c 2,25,-1
 520 1315 l 1,26,-1
 506 1315 l 1,27,28
 348 1310 348 1310 270 1268 c 0,29,30
 117 1185 117 1185 97 970 c 1,31,-1
 66 970 l 1,32,-1
 66 1384 l 1,0,-1
EndSplineSet
Substitution2: "<17016,16016> Urdu Swash lookup 75 subtable" T
PairPos2: "'kern' Horizontal Kerning in Arabic lookup 0 subtable" afii57509 dx=0 dy=0 dh=0 dv=0 dx=0 dy=0 dh=250 dv=0
PairPos2: "'kern' Horizontal Kerning in Arabic lookup 0 subtable" uni06AB dx=0 dy=0 dh=0 dv=0 dx=0 dy=0 dh=250 dv=0
PairPos2: "'kern' Horizontal Kerning in Arabic lookup 0 subtable" uni06A9 dx=0 dy=0 dh=0 dv=0 dx=0 dy=0 dh=250 dv=0
PairPos2: "'kern' Horizontal Kerning in Arabic lookup 0 subtable" uniFB94 dx=0 dy=0 dh=0 dv=0 dx=0 dy=0 dh=250 dv=0
PairPos2: "'kern' Horizontal Kerning in Arabic lookup 0 subtable" uniFBD5 dx=0 dy=0 dh=0 dv=0 dx=0 dy=0 dh=250 dv=0
PairPos2: "'kern' Horizontal Kerning in Arabic lookup 0 subtable" uni06AB.ini dx=0 dy=0 dh=0 dv=0 dx=0 dy=0 dh=250 dv=0
PairPos2: "'kern' Horizontal Kerning in Arabic lookup 0 subtable" uniFB90 dx=0 dy=0 dh=0 dv=0 dx=0 dy=0 dh=250 dv=0
PairPos2: "'kern' Horizontal Kerning in Arabic lookup 0 subtable" uniFEDB dx=0 dy=0 dh=0 dv=0 dx=0 dy=0 dh=250 dv=0
PairPos2: "'kern' Horizontal Kerning in Arabic lookup 0 subtable" uni0671 dx=0 dy=0 dh=0 dv=0 dx=0 dy=0 dh=200 dv=0
PairPos2: "'kern' Horizontal Kerning in Arabic lookup 0 subtable" afii57410 dx=0 dy=0 dh=0 dv=0 dx=0 dy=0 dh=200 dv=0
PairPos2: "'kern' Horizontal Kerning in Arabic lookup 0 subtable" afii57415 dx=0 dy=0 dh=0 dv=0 dx=0 dy=0 dh=50 dv=0
EndChar

StartChar: U
Encoding: 85 85 56
Width: 1479
GlyphClass: 2
Flags: W
LayerCount: 2
Fore
SplineSet
710 1384 m 1,0,-1
 710 1329 l 1,1,2
 655 1327 655 1327 616 1317 c 128,-1,3
 577 1307 577 1307 557 1293 c 1,4,5
 537 1273 537 1273 524 1234.5 c 128,-1,6
 511 1196 511 1196 511 1143 c 2,7,-1
 511 459 l 2,8,9
 511 358 511 358 528.5 283 c 128,-1,10
 546 208 546 208 583.5 159 c 128,-1,11
 621 110 621 110 679.5 86 c 128,-1,12
 738 62 738 62 819 62 c 0,13,14
 918 62 918 62 989 88 c 128,-1,15
 1060 114 1060 114 1106.5 168 c 128,-1,16
 1153 222 1153 222 1175 305.5 c 128,-1,17
 1197 389 1197 389 1197 504 c 2,18,-1
 1197 1129 l 2,19,20
 1197 1179 1197 1179 1188.5 1214.5 c 128,-1,21
 1180 1250 1180 1250 1158 1274 c 128,-1,22
 1136 1298 1136 1298 1097.5 1311.5 c 128,-1,23
 1059 1325 1059 1325 999 1329 c 1,24,-1
 999 1384 l 1,25,-1
 1420 1384 l 1,26,-1
 1420 1328 l 1,27,28
 1369 1318 1369 1318 1337.5 1307 c 128,-1,29
 1306 1296 1306 1296 1288.5 1277.5 c 128,-1,30
 1271 1259 1271 1259 1265 1230.5 c 128,-1,31
 1259 1202 1259 1202 1259 1158 c 2,32,-1
 1259 504 l 2,33,34
 1259 236 1259 236 1134.5 97.5 c 128,-1,35
 1010 -41 1010 -41 752 -41 c 0,36,37
 585 -41 585 -41 466.5 14 c 128,-1,38
 348 69 348 69 282 170 c 0,39,40
 250 224 250 224 232.5 297 c 128,-1,41
 215 370 215 370 215 459 c 2,42,-1
 215 1143 l 2,43,44
 215 1254 215 1254 180 1288 c 0,45,46
 151 1317 151 1317 47 1329 c 1,47,-1
 47 1384 l 1,48,-1
 710 1384 l 1,0,-1
EndSplineSet
Substitution2: "<17016,16016> Urdu Swash lookup 75 subtable" U
PairPos2: "'kern' Horizontal Kerning in Arabic lookup 0 subtable" afii57509 dx=0 dy=0 dh=0 dv=0 dx=0 dy=0 dh=250 dv=0
PairPos2: "'kern' Horizontal Kerning in Arabic lookup 0 subtable" uni06AB dx=0 dy=0 dh=0 dv=0 dx=0 dy=0 dh=250 dv=0
PairPos2: "'kern' Horizontal Kerning in Arabic lookup 0 subtable" uni06A9 dx=0 dy=0 dh=0 dv=0 dx=0 dy=0 dh=250 dv=0
PairPos2: "'kern' Horizontal Kerning in Arabic lookup 0 subtable" uniFB94 dx=0 dy=0 dh=0 dv=0 dx=0 dy=0 dh=250 dv=0
PairPos2: "'kern' Horizontal Kerning in Arabic lookup 0 subtable" uniFBD5 dx=0 dy=0 dh=0 dv=0 dx=0 dy=0 dh=250 dv=0
PairPos2: "'kern' Horizontal Kerning in Arabic lookup 0 subtable" uni06AB.ini dx=0 dy=0 dh=0 dv=0 dx=0 dy=0 dh=250 dv=0
PairPos2: "'kern' Horizontal Kerning in Arabic lookup 0 subtable" uniFB90 dx=0 dy=0 dh=0 dv=0 dx=0 dy=0 dh=250 dv=0
PairPos2: "'kern' Horizontal Kerning in Arabic lookup 0 subtable" uniFEDB dx=0 dy=0 dh=0 dv=0 dx=0 dy=0 dh=250 dv=0
PairPos2: "'kern' Horizontal Kerning in Arabic lookup 0 subtable" uni0671 dx=0 dy=0 dh=0 dv=0 dx=0 dy=0 dh=200 dv=0
PairPos2: "'kern' Horizontal Kerning in Arabic lookup 0 subtable" afii57410 dx=0 dy=0 dh=0 dv=0 dx=0 dy=0 dh=200 dv=0
PairPos2: "'kern' Horizontal Kerning in Arabic lookup 0 subtable" afii57415 dx=0 dy=0 dh=0 dv=0 dx=0 dy=0 dh=50 dv=0
EndChar

StartChar: V
Encoding: 86 86 57
Width: 1479
GlyphClass: 2
Flags: W
LayerCount: 2
Fore
SplineSet
705 1384 m 1,0,-1
 705 1329 l 1,1,2
 654 1326 654 1326 620 1322 c 128,-1,3
 586 1318 586 1318 571 1311 c 0,4,5
 553 1303 553 1303 541.5 1287 c 128,-1,6
 530 1271 530 1271 530 1250 c 0,7,8
 530 1235 530 1235 533 1221.5 c 128,-1,9
 536 1208 536 1208 543 1191 c 2,10,-1
 853 437 l 1,11,-1
 891 437 l 1,12,13
 893 442 893 442 905 473.5 c 128,-1,14
 917 505 917 505 936 552.5 c 128,-1,15
 955 600 955 600 978 660 c 128,-1,16
 1001 720 1001 720 1025 782 c 128,-1,17
 1049 844 1049 844 1072 904 c 128,-1,18
 1095 964 1095 964 1113.5 1011.5 c 128,-1,19
 1132 1059 1132 1059 1144 1090.5 c 128,-1,20
 1156 1122 1156 1122 1158 1127 c 0,21,22
 1164 1142 1164 1142 1169 1157.5 c 128,-1,23
 1174 1173 1174 1173 1178 1188 c 128,-1,24
 1182 1203 1182 1203 1184.5 1216 c 128,-1,25
 1187 1229 1187 1229 1187 1237 c 0,26,27
 1187 1262 1187 1262 1180 1278 c 128,-1,28
 1173 1294 1173 1294 1154 1304 c 128,-1,29
 1135 1314 1135 1314 1101 1319.5 c 128,-1,30
 1067 1325 1067 1325 1013 1329 c 1,31,-1
 1013 1384 l 1,32,-1
 1420 1384 l 1,33,-1
 1420 1331 l 1,34,35
 1381 1327 1381 1327 1353.5 1314.5 c 128,-1,36
 1326 1302 1326 1302 1305 1281 c 128,-1,37
 1284 1260 1284 1260 1268 1231 c 128,-1,38
 1252 1202 1252 1202 1236 1165 c 0,39,40
 1226 1139 1226 1139 1203 1079 c 128,-1,41
 1180 1019 1180 1019 1148.5 937.5 c 128,-1,42
 1117 856 1117 856 1079.5 759.5 c 128,-1,43
 1042 663 1042 663 1003.5 563.5 c 128,-1,44
 965 464 965 464 927.5 367.5 c 128,-1,45
 890 271 890 271 858.5 189.5 c 128,-1,46
 827 108 827 108 803.5 48 c 128,-1,47
 780 -12 780 -12 770 -38 c 1,48,-1
 742 -38 l 1,49,-1
 216 1188 l 2,50,51
 203 1218 203 1218 188.5 1243 c 128,-1,52
 174 1268 174 1268 155 1286.5 c 128,-1,53
 136 1305 136 1305 110 1316.5 c 128,-1,54
 84 1328 84 1328 47 1331 c 1,55,-1
 47 1384 l 1,56,-1
 705 1384 l 1,0,-1
EndSplineSet
Substitution2: "<17016,16016> Urdu Swash lookup 75 subtable" V
PairPos2: "'kern' Horizontal Kerning in Arabic lookup 0 subtable" afii57509 dx=0 dy=0 dh=0 dv=0 dx=0 dy=0 dh=250 dv=0
PairPos2: "'kern' Horizontal Kerning in Arabic lookup 0 subtable" uni06AB dx=0 dy=0 dh=0 dv=0 dx=0 dy=0 dh=250 dv=0
PairPos2: "'kern' Horizontal Kerning in Arabic lookup 0 subtable" uni06A9 dx=0 dy=0 dh=0 dv=0 dx=0 dy=0 dh=250 dv=0
PairPos2: "'kern' Horizontal Kerning in Arabic lookup 0 subtable" uniFB94 dx=0 dy=0 dh=0 dv=0 dx=0 dy=0 dh=250 dv=0
PairPos2: "'kern' Horizontal Kerning in Arabic lookup 0 subtable" uniFBD5 dx=0 dy=0 dh=0 dv=0 dx=0 dy=0 dh=250 dv=0
PairPos2: "'kern' Horizontal Kerning in Arabic lookup 0 subtable" uni06AB.ini dx=0 dy=0 dh=0 dv=0 dx=0 dy=0 dh=250 dv=0
PairPos2: "'kern' Horizontal Kerning in Arabic lookup 0 subtable" uniFB90 dx=0 dy=0 dh=0 dv=0 dx=0 dy=0 dh=250 dv=0
PairPos2: "'kern' Horizontal Kerning in Arabic lookup 0 subtable" uniFEDB dx=0 dy=0 dh=0 dv=0 dx=0 dy=0 dh=250 dv=0
PairPos2: "'kern' Horizontal Kerning in Arabic lookup 0 subtable" uni0671 dx=0 dy=0 dh=0 dv=0 dx=0 dy=0 dh=200 dv=0
PairPos2: "'kern' Horizontal Kerning in Arabic lookup 0 subtable" afii57410 dx=0 dy=0 dh=0 dv=0 dx=0 dy=0 dh=200 dv=0
PairPos2: "'kern' Horizontal Kerning in Arabic lookup 0 subtable" afii57415 dx=0 dy=0 dh=0 dv=0 dx=0 dy=0 dh=50 dv=0
EndChar

StartChar: W
Encoding: 87 87 58
Width: 2048
GlyphClass: 2
Flags: W
LayerCount: 2
Fore
SplineSet
625 1384 m 1,0,-1
 625 1329 l 1,1,2
 589 1325 589 1325 564.5 1319.5 c 128,-1,3
 540 1314 540 1314 525 1305 c 128,-1,4
 510 1296 510 1296 503 1282 c 128,-1,5
 496 1268 496 1268 496 1246 c 0,6,7
 496 1236 496 1236 499.5 1217.5 c 128,-1,8
 503 1199 503 1199 509 1179 c 0,9,10
 514 1164 514 1164 526 1129 c 128,-1,11
 538 1094 538 1094 554 1045.5 c 128,-1,12
 570 997 570 997 589.5 939.5 c 128,-1,13
 609 882 609 882 628.5 822.5 c 128,-1,14
 648 763 648 763 667.5 705.5 c 128,-1,15
 687 648 687 648 703 599.5 c 128,-1,16
 719 551 719 551 730.5 515.5 c 128,-1,17
 742 480 742 480 746 465 c 1,18,-1
 789 465 l 1,19,20
 818 540 818 540 848 614.5 c 128,-1,21
 878 689 878 689 907 764 c 2,22,-1
 1024 1064 l 2,23,24
 1024 1065 1024 1065 1019.5 1078.5 c 128,-1,25
 1015 1092 1015 1092 1008.5 1111.5 c 128,-1,26
 1002 1131 1002 1131 994 1154 c 128,-1,27
 986 1177 986 1177 978 1198.5 c 128,-1,28
 970 1220 970 1220 963 1236.5 c 128,-1,29
 956 1253 956 1253 952 1259 c 0,30,31
 933 1288 933 1288 895 1310 c 0,32,33
 871 1324 871 1324 804 1329 c 1,34,-1
 804 1384 l 1,35,-1
 1415 1384 l 1,36,-1
 1415 1329 l 1,37,38
 1375 1326 1375 1326 1347 1322 c 128,-1,39
 1319 1318 1319 1318 1305 1311 c 0,40,41
 1290 1303 1290 1303 1279 1288.5 c 128,-1,42
 1268 1274 1268 1274 1268 1258 c 0,43,44
 1268 1250 1268 1250 1278 1214 c 128,-1,45
 1288 1178 1288 1178 1304 1125 c 128,-1,46
 1320 1072 1320 1072 1341 1006.5 c 128,-1,47
 1362 941 1362 941 1384 873 c 128,-1,48
 1406 805 1406 805 1427.5 739 c 128,-1,49
 1449 673 1449 673 1466.5 619.5 c 128,-1,50
 1484 566 1484 566 1496 529.5 c 128,-1,51
 1508 493 1508 493 1511 484 c 1,52,-1
 1551 484 l 1,53,-1
 1663 820 l 2,54,55
 1667 830 1667 830 1675.5 856 c 128,-1,56
 1684 882 1684 882 1695 916 c 128,-1,57
 1706 950 1706 950 1718.5 987.5 c 128,-1,58
 1731 1025 1731 1025 1742 1059 c 128,-1,59
 1753 1093 1753 1093 1762 1119 c 128,-1,60
 1771 1145 1771 1145 1774 1155 c 0,61,62
 1781 1175 1781 1175 1785 1195.5 c 128,-1,63
 1789 1216 1789 1216 1789 1239 c 0,64,65
 1789 1260 1789 1260 1783 1275.5 c 128,-1,66
 1777 1291 1777 1291 1761 1302 c 128,-1,67
 1745 1313 1745 1313 1717.5 1319.5 c 128,-1,68
 1690 1326 1690 1326 1647 1329 c 1,69,-1
 1647 1384 l 1,70,-1
 1993 1384 l 1,71,-1
 1993 1328 l 1,72,73
 1973 1324 1973 1324 1955 1319 c 128,-1,74
 1937 1314 1937 1314 1926 1306 c 0,75,76
 1903 1289 1903 1289 1883 1260 c 128,-1,77
 1863 1231 1863 1231 1851 1200 c 0,78,79
 1842 1173 1842 1173 1821.5 1111.5 c 128,-1,80
 1801 1050 1801 1050 1773.5 966.5 c 128,-1,81
 1746 883 1746 883 1713 784 c 128,-1,82
 1680 685 1680 685 1646.5 582.5 c 128,-1,83
 1613 480 1613 480 1580 381.5 c 128,-1,84
 1547 283 1547 283 1519.5 199.5 c 128,-1,85
 1492 116 1492 116 1471.5 54.5 c 128,-1,86
 1451 -7 1451 -7 1442 -34 c 1,87,-1
 1414 -34 l 1,88,-1
 1071 925 l 1,89,-1
 1031 925 l 1,90,91
 939 690 939 690 843.5 445.5 c 128,-1,92
 748 201 748 201 656 -34 c 1,93,-1
 625 -34 l 1,94,-1
 193 1200 l 2,95,96
 181 1232 181 1232 169.5 1254.5 c 128,-1,97
 158 1277 158 1277 142.5 1292.5 c 128,-1,98
 127 1308 127 1308 105.5 1317 c 128,-1,99
 84 1326 84 1326 51 1330 c 1,100,-1
 51 1384 l 1,101,-1
 625 1384 l 1,0,-1
EndSplineSet
Substitution2: "<17016,16016> Urdu Swash lookup 75 subtable" W
PairPos2: "'kern' Horizontal Kerning in Arabic lookup 0 subtable" afii57509 dx=0 dy=0 dh=0 dv=0 dx=0 dy=0 dh=250 dv=0
PairPos2: "'kern' Horizontal Kerning in Arabic lookup 0 subtable" uni06AB dx=0 dy=0 dh=0 dv=0 dx=0 dy=0 dh=250 dv=0
PairPos2: "'kern' Horizontal Kerning in Arabic lookup 0 subtable" uni06A9 dx=0 dy=0 dh=0 dv=0 dx=0 dy=0 dh=250 dv=0
PairPos2: "'kern' Horizontal Kerning in Arabic lookup 0 subtable" uniFB94 dx=0 dy=0 dh=0 dv=0 dx=0 dy=0 dh=250 dv=0
PairPos2: "'kern' Horizontal Kerning in Arabic lookup 0 subtable" uniFBD5 dx=0 dy=0 dh=0 dv=0 dx=0 dy=0 dh=250 dv=0
PairPos2: "'kern' Horizontal Kerning in Arabic lookup 0 subtable" uni06AB.ini dx=0 dy=0 dh=0 dv=0 dx=0 dy=0 dh=250 dv=0
PairPos2: "'kern' Horizontal Kerning in Arabic lookup 0 subtable" uniFB90 dx=0 dy=0 dh=0 dv=0 dx=0 dy=0 dh=250 dv=0
PairPos2: "'kern' Horizontal Kerning in Arabic lookup 0 subtable" uniFEDB dx=0 dy=0 dh=0 dv=0 dx=0 dy=0 dh=250 dv=0
PairPos2: "'kern' Horizontal Kerning in Arabic lookup 0 subtable" uni0671 dx=0 dy=0 dh=0 dv=0 dx=0 dy=0 dh=200 dv=0
PairPos2: "'kern' Horizontal Kerning in Arabic lookup 0 subtable" afii57410 dx=0 dy=0 dh=0 dv=0 dx=0 dy=0 dh=200 dv=0
PairPos2: "'kern' Horizontal Kerning in Arabic lookup 0 subtable" afii57415 dx=0 dy=0 dh=0 dv=0 dx=0 dy=0 dh=50 dv=0
EndChar

StartChar: X
Encoding: 88 88 59
Width: 1479
GlyphClass: 2
Flags: W
LayerCount: 2
Fore
SplineSet
47 56 m 1,0,1
 93 64 93 64 125 74 c 128,-1,2
 157 84 157 84 180 97.5 c 128,-1,3
 203 111 203 111 221 128 c 128,-1,4
 239 145 239 145 257 167 c 0,5,6
 267 179 267 179 294.5 214 c 128,-1,7
 322 249 322 249 358 295 c 128,-1,8
 394 341 394 341 435 392.5 c 128,-1,9
 476 444 476 444 512 490 c 128,-1,10
 548 536 548 536 575.5 571 c 128,-1,11
 603 606 603 606 613 618 c 1,12,13
 610 623 610 623 592 650 c 128,-1,14
 574 677 574 677 546 718 c 128,-1,15
 518 759 518 759 483 810.5 c 128,-1,16
 448 862 448 862 412 915 c 128,-1,17
 376 968 376 968 341 1019.5 c 128,-1,18
 306 1071 306 1071 278 1112 c 128,-1,19
 250 1153 250 1153 231.5 1180 c 128,-1,20
 213 1207 213 1207 210 1211 c 0,21,22
 172 1265 172 1265 136 1295 c 128,-1,23
 100 1325 100 1325 49 1329 c 1,24,-1
 49 1384 l 1,25,-1
 729 1384 l 1,26,-1
 729 1329 l 1,27,28
 684 1327 684 1327 652.5 1323.5 c 128,-1,29
 621 1320 621 1320 606 1314 c 0,30,31
 589 1308 589 1308 577 1294 c 128,-1,32
 565 1280 565 1280 565 1263 c 0,33,34
 565 1248 565 1248 579 1221.5 c 128,-1,35
 593 1195 593 1195 613 1163.5 c 128,-1,36
 633 1132 633 1132 656.5 1098.5 c 128,-1,37
 680 1065 680 1065 698 1036 c 0,38,39
 724 997 724 997 748 958.5 c 128,-1,40
 772 920 772 920 797 882 c 1,41,-1
 820 882 l 1,42,43
 829 895 829 895 847 920.5 c 128,-1,44
 865 946 865 946 887 977 c 128,-1,45
 909 1008 909 1008 932.5 1040.5 c 128,-1,46
 956 1073 956 1073 975.5 1101 c 128,-1,47
 995 1129 995 1129 1008 1148 c 128,-1,48
 1021 1167 1021 1167 1023 1170 c 0,49,50
 1040 1198 1040 1198 1049.5 1221.5 c 128,-1,51
 1059 1245 1059 1245 1059 1259 c 0,52,53
 1059 1291 1059 1291 1026.5 1308 c 128,-1,54
 994 1325 994 1325 909 1329 c 1,55,-1
 909 1384 l 1,56,-1
 1392 1384 l 1,57,-1
 1392 1329 l 1,58,59
 1326 1322 1326 1322 1273.5 1300 c 128,-1,60
 1221 1278 1221 1278 1181 1238 c 0,61,62
 1140 1198 1140 1198 1056.5 1088.5 c 128,-1,63
 973 979 973 979 848 805 c 1,64,65
 851 800 851 800 868 774 c 128,-1,66
 885 748 885 748 910.5 708 c 128,-1,67
 936 668 936 668 968 618.5 c 128,-1,68
 1000 569 1000 569 1033 517 c 128,-1,69
 1066 465 1066 465 1098 415.5 c 128,-1,70
 1130 366 1130 366 1155.5 326 c 128,-1,71
 1181 286 1181 286 1198 260 c 128,-1,72
 1215 234 1215 234 1218 229 c 0,73,74
 1249 181 1249 181 1272.5 149.5 c 128,-1,75
 1296 118 1296 118 1317.5 98.5 c 128,-1,76
 1339 79 1339 79 1362 70 c 128,-1,77
 1385 61 1385 61 1415 56 c 1,78,-1
 1415 0 l 1,79,-1
 747 0 l 1,80,-1
 747 55 l 1,81,82
 789 57 789 57 815.5 59.5 c 128,-1,83
 842 62 842 62 856 66 c 0,84,85
 911 83 911 83 911 117 c 0,86,87
 911 130 911 130 901 156 c 128,-1,88
 891 182 891 182 866 222 c 2,89,-1
 660 553 l 1,90,-1
 637 553 l 1,91,92
 556 445 556 445 503 374 c 128,-1,93
 450 303 450 303 419.5 257 c 128,-1,94
 389 211 389 211 376.5 184.5 c 128,-1,95
 364 158 364 158 364 139 c 0,96,97
 364 121 364 121 376 105.5 c 128,-1,98
 388 90 388 90 410 78.5 c 128,-1,99
 432 67 432 67 462.5 60.5 c 128,-1,100
 493 54 493 54 530 54 c 1,101,-1
 530 0 l 1,102,-1
 47 0 l 1,103,-1
 47 56 l 1,0,1
EndSplineSet
Substitution2: "<17016,16016> Urdu Swash lookup 75 subtable" X
PairPos2: "'kern' Horizontal Kerning in Arabic lookup 0 subtable" afii57509 dx=0 dy=0 dh=0 dv=0 dx=0 dy=0 dh=250 dv=0
PairPos2: "'kern' Horizontal Kerning in Arabic lookup 0 subtable" uni06AB dx=0 dy=0 dh=0 dv=0 dx=0 dy=0 dh=250 dv=0
PairPos2: "'kern' Horizontal Kerning in Arabic lookup 0 subtable" uni06A9 dx=0 dy=0 dh=0 dv=0 dx=0 dy=0 dh=250 dv=0
PairPos2: "'kern' Horizontal Kerning in Arabic lookup 0 subtable" uniFB94 dx=0 dy=0 dh=0 dv=0 dx=0 dy=0 dh=250 dv=0
PairPos2: "'kern' Horizontal Kerning in Arabic lookup 0 subtable" uniFBD5 dx=0 dy=0 dh=0 dv=0 dx=0 dy=0 dh=250 dv=0
PairPos2: "'kern' Horizontal Kerning in Arabic lookup 0 subtable" uni06AB.ini dx=0 dy=0 dh=0 dv=0 dx=0 dy=0 dh=250 dv=0
PairPos2: "'kern' Horizontal Kerning in Arabic lookup 0 subtable" uniFB90 dx=0 dy=0 dh=0 dv=0 dx=0 dy=0 dh=250 dv=0
PairPos2: "'kern' Horizontal Kerning in Arabic lookup 0 subtable" uniFEDB dx=0 dy=0 dh=0 dv=0 dx=0 dy=0 dh=250 dv=0
PairPos2: "'kern' Horizontal Kerning in Arabic lookup 0 subtable" uni0671 dx=0 dy=0 dh=0 dv=0 dx=0 dy=0 dh=200 dv=0
PairPos2: "'kern' Horizontal Kerning in Arabic lookup 0 subtable" afii57410 dx=0 dy=0 dh=0 dv=0 dx=0 dy=0 dh=200 dv=0
PairPos2: "'kern' Horizontal Kerning in Arabic lookup 0 subtable" afii57415 dx=0 dy=0 dh=0 dv=0 dx=0 dy=0 dh=50 dv=0
EndChar

StartChar: Y
Encoding: 89 89 60
Width: 1479
GlyphClass: 2
Flags: W
LayerCount: 2
Fore
SplineSet
700 1384 m 1,0,-1
 700 1329 l 1,1,2
 645 1326 645 1326 612.5 1322 c 128,-1,3
 580 1318 580 1318 562.5 1311 c 128,-1,4
 545 1304 545 1304 539.5 1294.5 c 128,-1,5
 534 1285 534 1285 534 1273 c 0,6,7
 534 1262 534 1262 538.5 1244 c 128,-1,8
 543 1226 543 1226 563 1192 c 1,9,-1
 563 1191 l 1,10,11
 563 1191 563 1191 580.5 1158.5 c 128,-1,12
 598 1126 598 1126 624 1076 c 128,-1,13
 650 1026 650 1026 681.5 966 c 128,-1,14
 713 906 713 906 741.5 850.5 c 128,-1,15
 770 795 770 795 792.5 752 c 128,-1,16
 815 709 815 709 823 693 c 1,17,-1
 864 693 l 1,18,19
 868 699 868 699 884.5 726.5 c 128,-1,20
 901 754 901 754 924 792 c 128,-1,21
 947 830 947 830 973.5 873 c 128,-1,22
 1000 916 1000 916 1023 954 c 128,-1,23
 1046 992 1046 992 1062.5 1019.5 c 128,-1,24
 1079 1047 1079 1047 1083 1053 c 0,25,26
 1124 1119 1124 1119 1144 1167.5 c 128,-1,27
 1164 1216 1164 1216 1164 1240 c 0,28,29
 1164 1289 1164 1289 1113 1311 c 0,30,31
 1099 1317 1099 1317 1070 1321 c 128,-1,32
 1041 1325 1041 1325 994 1329 c 1,33,-1
 994 1384 l 1,34,-1
 1415 1384 l 1,35,-1
 1415 1328 l 1,36,37
 1356 1318 1356 1318 1325.5 1298.5 c 128,-1,38
 1295 1279 1295 1279 1277 1251 c 0,39,40
 1266 1233 1266 1233 1235.5 1183.5 c 128,-1,41
 1205 1134 1205 1134 1165.5 1069.5 c 128,-1,42
 1126 1005 1126 1005 1081.5 933 c 128,-1,43
 1037 861 1037 861 997.5 796.5 c 128,-1,44
 958 732 958 732 927.5 682.5 c 128,-1,45
 897 633 897 633 885 615 c 1,46,-1
 885 240 l 2,47,48
 885 188 885 188 894 153 c 128,-1,49
 903 118 903 118 924.5 96.5 c 128,-1,50
 946 75 946 75 983 65.5 c 128,-1,51
 1020 56 1020 56 1075 54 c 1,52,-1
 1075 0 l 1,53,-1
 392 0 l 1,54,-1
 392 54 l 1,55,56
 500 57 500 57 538 93 c 0,57,58
 559 114 559 114 570.5 150 c 128,-1,59
 582 186 582 186 581 240 c 2,60,-1
 579 540 l 1,61,62
 571 555 571 555 552.5 589 c 128,-1,63
 534 623 534 623 508.5 669 c 128,-1,64
 483 715 483 715 453.5 769 c 128,-1,65
 424 823 424 823 393 879.5 c 128,-1,66
 362 936 362 936 332 990 c 128,-1,67
 302 1044 302 1044 277 1090 c 128,-1,68
 252 1136 252 1136 233 1170 c 128,-1,69
 214 1204 214 1204 206 1219 c 1,70,-1
 206 1218 l 1,71,72
 177 1266 177 1266 134 1296.5 c 128,-1,73
 91 1327 91 1327 44 1329 c 1,74,-1
 44 1384 l 1,75,-1
 700 1384 l 1,0,-1
EndSplineSet
Substitution2: "<17016,16016> Urdu Swash lookup 75 subtable" Y
PairPos2: "'kern' Horizontal Kerning in Arabic lookup 0 subtable" afii57509 dx=0 dy=0 dh=0 dv=0 dx=0 dy=0 dh=250 dv=0
PairPos2: "'kern' Horizontal Kerning in Arabic lookup 0 subtable" uni06AB dx=0 dy=0 dh=0 dv=0 dx=0 dy=0 dh=250 dv=0
PairPos2: "'kern' Horizontal Kerning in Arabic lookup 0 subtable" uni06A9 dx=0 dy=0 dh=0 dv=0 dx=0 dy=0 dh=250 dv=0
PairPos2: "'kern' Horizontal Kerning in Arabic lookup 0 subtable" uniFB94 dx=0 dy=0 dh=0 dv=0 dx=0 dy=0 dh=250 dv=0
PairPos2: "'kern' Horizontal Kerning in Arabic lookup 0 subtable" uniFBD5 dx=0 dy=0 dh=0 dv=0 dx=0 dy=0 dh=250 dv=0
PairPos2: "'kern' Horizontal Kerning in Arabic lookup 0 subtable" uni06AB.ini dx=0 dy=0 dh=0 dv=0 dx=0 dy=0 dh=250 dv=0
PairPos2: "'kern' Horizontal Kerning in Arabic lookup 0 subtable" uniFB90 dx=0 dy=0 dh=0 dv=0 dx=0 dy=0 dh=250 dv=0
PairPos2: "'kern' Horizontal Kerning in Arabic lookup 0 subtable" uniFEDB dx=0 dy=0 dh=0 dv=0 dx=0 dy=0 dh=250 dv=0
PairPos2: "'kern' Horizontal Kerning in Arabic lookup 0 subtable" uni0671 dx=0 dy=0 dh=0 dv=0 dx=0 dy=0 dh=200 dv=0
PairPos2: "'kern' Horizontal Kerning in Arabic lookup 0 subtable" afii57410 dx=0 dy=0 dh=0 dv=0 dx=0 dy=0 dh=200 dv=0
PairPos2: "'kern' Horizontal Kerning in Arabic lookup 0 subtable" afii57415 dx=0 dy=0 dh=0 dv=0 dx=0 dy=0 dh=50 dv=0
EndChar

StartChar: Z
Encoding: 90 90 61
Width: 1366
GlyphClass: 2
Flags: W
LayerCount: 2
Fore
SplineSet
70 38 m 1,0,-1
 849 1311 l 1,1,-1
 838 1311 l 2,2,3
 725 1311 725 1311 655 1309.5 c 128,-1,4
 585 1308 585 1308 559 1306 c 0,5,6
 459 1296 459 1296 387.5 1263 c 128,-1,7
 316 1230 316 1230 266 1170 c 0,8,9
 243 1138 243 1138 216.5 1085 c 128,-1,10
 190 1032 190 1032 164 961 c 1,11,-1
 134 961 l 1,12,-1
 177 1384 l 1,13,-1
 1221 1384 l 1,14,-1
 1221 1346 l 1,15,-1
 447 73 l 1,16,-1
 458 73 l 2,17,18
 882 73 882 73 1026 137 c 0,19,20
 1103 172 1103 172 1160.5 260 c 128,-1,21
 1218 348 1218 348 1256 494 c 1,22,-1
 1282 494 l 1,23,-1
 1228 0 l 1,24,-1
 70 0 l 1,25,-1
 70 38 l 1,0,-1
EndSplineSet
Substitution2: "<17016,16016> Urdu Swash lookup 75 subtable" Z
PairPos2: "'kern' Horizontal Kerning in Arabic lookup 0 subtable" afii57509 dx=0 dy=0 dh=0 dv=0 dx=0 dy=0 dh=250 dv=0
PairPos2: "'kern' Horizontal Kerning in Arabic lookup 0 subtable" uni06AB dx=0 dy=0 dh=0 dv=0 dx=0 dy=0 dh=250 dv=0
PairPos2: "'kern' Horizontal Kerning in Arabic lookup 0 subtable" uni06A9 dx=0 dy=0 dh=0 dv=0 dx=0 dy=0 dh=250 dv=0
PairPos2: "'kern' Horizontal Kerning in Arabic lookup 0 subtable" uniFB94 dx=0 dy=0 dh=0 dv=0 dx=0 dy=0 dh=250 dv=0
PairPos2: "'kern' Horizontal Kerning in Arabic lookup 0 subtable" uniFBD5 dx=0 dy=0 dh=0 dv=0 dx=0 dy=0 dh=250 dv=0
PairPos2: "'kern' Horizontal Kerning in Arabic lookup 0 subtable" uni06AB.ini dx=0 dy=0 dh=0 dv=0 dx=0 dy=0 dh=250 dv=0
PairPos2: "'kern' Horizontal Kerning in Arabic lookup 0 subtable" uniFB90 dx=0 dy=0 dh=0 dv=0 dx=0 dy=0 dh=250 dv=0
PairPos2: "'kern' Horizontal Kerning in Arabic lookup 0 subtable" uniFEDB dx=0 dy=0 dh=0 dv=0 dx=0 dy=0 dh=250 dv=0
PairPos2: "'kern' Horizontal Kerning in Arabic lookup 0 subtable" uni0671 dx=0 dy=0 dh=0 dv=0 dx=0 dy=0 dh=200 dv=0
PairPos2: "'kern' Horizontal Kerning in Arabic lookup 0 subtable" afii57410 dx=0 dy=0 dh=0 dv=0 dx=0 dy=0 dh=200 dv=0
PairPos2: "'kern' Horizontal Kerning in Arabic lookup 0 subtable" afii57415 dx=0 dy=0 dh=0 dv=0 dx=0 dy=0 dh=50 dv=0
EndChar

StartChar: bracketleft
Encoding: 91 91 62
Width: 652
GlyphClass: 2
Flags: W
LayerCount: 2
Fore
SplineSet
100 -550 m 1,0,-1
 100 1485 l 1,1,-1
 552 1485 l 1,2,-1
 552 1320 l 1,3,-1
 273 1320 l 1,4,-1
 273 -383 l 1,5,-1
 552 -383 l 1,6,-1
 552 -550 l 1,7,-1
 100 -550 l 1,0,-1
EndSplineSet
Substitution2: "<17016,16016> Urdu Swash lookup 75 subtable" bracketleft
PairPos2: "'kern' Horizontal Kerning in Arabic lookup 0 subtable" afii57509 dx=0 dy=0 dh=0 dv=0 dx=0 dy=0 dh=250 dv=0
PairPos2: "'kern' Horizontal Kerning in Arabic lookup 0 subtable" uni06AB dx=0 dy=0 dh=0 dv=0 dx=0 dy=0 dh=250 dv=0
PairPos2: "'kern' Horizontal Kerning in Arabic lookup 0 subtable" uni06A9 dx=0 dy=0 dh=0 dv=0 dx=0 dy=0 dh=250 dv=0
PairPos2: "'kern' Horizontal Kerning in Arabic lookup 0 subtable" uniFB94 dx=0 dy=0 dh=0 dv=0 dx=0 dy=0 dh=250 dv=0
PairPos2: "'kern' Horizontal Kerning in Arabic lookup 0 subtable" uniFBD5 dx=0 dy=0 dh=0 dv=0 dx=0 dy=0 dh=250 dv=0
PairPos2: "'kern' Horizontal Kerning in Arabic lookup 0 subtable" uni06AB.ini dx=0 dy=0 dh=0 dv=0 dx=0 dy=0 dh=250 dv=0
PairPos2: "'kern' Horizontal Kerning in Arabic lookup 0 subtable" uniFB90 dx=0 dy=0 dh=0 dv=0 dx=0 dy=0 dh=250 dv=0
PairPos2: "'kern' Horizontal Kerning in Arabic lookup 0 subtable" uniFEDB dx=0 dy=0 dh=0 dv=0 dx=0 dy=0 dh=250 dv=0
PairPos2: "'kern' Horizontal Kerning in Arabic lookup 0 subtable" uni0671 dx=0 dy=0 dh=0 dv=0 dx=0 dy=0 dh=200 dv=0
PairPos2: "'kern' Horizontal Kerning in Arabic lookup 0 subtable" afii57410 dx=0 dy=0 dh=0 dv=0 dx=0 dy=0 dh=200 dv=0
PairPos2: "'kern' Horizontal Kerning in Arabic lookup 0 subtable" afii57415 dx=0 dy=0 dh=0 dv=0 dx=0 dy=0 dh=50 dv=0
EndChar

StartChar: backslash
Encoding: 92 92 63
Width: 569
GlyphClass: 2
Flags: W
LayerCount: 2
Fore
SplineSet
79 1415 m 1,0,-1
 649 0 l 1,1,-1
 488 0 l 1,2,-1
 -85 1415 l 1,3,-1
 79 1415 l 1,0,-1
EndSplineSet
Substitution2: "<17016,16016> Urdu Swash lookup 75 subtable" backslash
PairPos2: "'kern' Horizontal Kerning in Arabic lookup 0 subtable" afii57509 dx=0 dy=0 dh=0 dv=0 dx=0 dy=0 dh=250 dv=0
PairPos2: "'kern' Horizontal Kerning in Arabic lookup 0 subtable" uni06AB dx=0 dy=0 dh=0 dv=0 dx=0 dy=0 dh=250 dv=0
PairPos2: "'kern' Horizontal Kerning in Arabic lookup 0 subtable" uni06A9 dx=0 dy=0 dh=0 dv=0 dx=0 dy=0 dh=250 dv=0
PairPos2: "'kern' Horizontal Kerning in Arabic lookup 0 subtable" uniFB94 dx=0 dy=0 dh=0 dv=0 dx=0 dy=0 dh=250 dv=0
PairPos2: "'kern' Horizontal Kerning in Arabic lookup 0 subtable" uniFBD5 dx=0 dy=0 dh=0 dv=0 dx=0 dy=0 dh=250 dv=0
PairPos2: "'kern' Horizontal Kerning in Arabic lookup 0 subtable" uni06AB.ini dx=0 dy=0 dh=0 dv=0 dx=0 dy=0 dh=250 dv=0
PairPos2: "'kern' Horizontal Kerning in Arabic lookup 0 subtable" uniFB90 dx=0 dy=0 dh=0 dv=0 dx=0 dy=0 dh=250 dv=0
PairPos2: "'kern' Horizontal Kerning in Arabic lookup 0 subtable" uniFEDB dx=0 dy=0 dh=0 dv=0 dx=0 dy=0 dh=250 dv=0
PairPos2: "'kern' Horizontal Kerning in Arabic lookup 0 subtable" uni0671 dx=0 dy=0 dh=0 dv=0 dx=0 dy=0 dh=200 dv=0
PairPos2: "'kern' Horizontal Kerning in Arabic lookup 0 subtable" afii57410 dx=0 dy=0 dh=0 dv=0 dx=0 dy=0 dh=200 dv=0
PairPos2: "'kern' Horizontal Kerning in Arabic lookup 0 subtable" afii57415 dx=0 dy=0 dh=0 dv=0 dx=0 dy=0 dh=50 dv=0
EndChar

StartChar: bracketright
Encoding: 93 93 64
Width: 752
GlyphClass: 2
Flags: W
LayerCount: 2
Fore
SplineSet
100 -550 m 1,0,-1
 100 -383 l 1,1,-1
 377 -383 l 1,2,-1
 377 1320 l 1,3,-1
 100 1320 l 1,4,-1
 100 1485 l 1,5,-1
 552 1485 l 1,6,-1
 552 -550 l 1,7,-1
 100 -550 l 1,0,-1
EndSplineSet
Substitution2: "<17016,16016> Urdu Swash lookup 75 subtable" bracketright
PairPos2: "'kern' Horizontal Kerning in Arabic lookup 0 subtable" afii57509 dx=0 dy=0 dh=0 dv=0 dx=0 dy=0 dh=250 dv=0
PairPos2: "'kern' Horizontal Kerning in Arabic lookup 0 subtable" uni06AB dx=0 dy=0 dh=0 dv=0 dx=0 dy=0 dh=250 dv=0
PairPos2: "'kern' Horizontal Kerning in Arabic lookup 0 subtable" uni06A9 dx=0 dy=0 dh=0 dv=0 dx=0 dy=0 dh=250 dv=0
PairPos2: "'kern' Horizontal Kerning in Arabic lookup 0 subtable" uniFB94 dx=0 dy=0 dh=0 dv=0 dx=0 dy=0 dh=250 dv=0
PairPos2: "'kern' Horizontal Kerning in Arabic lookup 0 subtable" uniFBD5 dx=0 dy=0 dh=0 dv=0 dx=0 dy=0 dh=250 dv=0
PairPos2: "'kern' Horizontal Kerning in Arabic lookup 0 subtable" uni06AB.ini dx=0 dy=0 dh=0 dv=0 dx=0 dy=0 dh=250 dv=0
PairPos2: "'kern' Horizontal Kerning in Arabic lookup 0 subtable" uniFB90 dx=0 dy=0 dh=0 dv=0 dx=0 dy=0 dh=250 dv=0
PairPos2: "'kern' Horizontal Kerning in Arabic lookup 0 subtable" uniFEDB dx=0 dy=0 dh=0 dv=0 dx=0 dy=0 dh=250 dv=0
PairPos2: "'kern' Horizontal Kerning in Arabic lookup 0 subtable" uni0671 dx=0 dy=0 dh=0 dv=0 dx=0 dy=0 dh=200 dv=0
PairPos2: "'kern' Horizontal Kerning in Arabic lookup 0 subtable" afii57410 dx=0 dy=0 dh=0 dv=0 dx=0 dy=0 dh=200 dv=0
PairPos2: "'kern' Horizontal Kerning in Arabic lookup 0 subtable" afii57415 dx=0 dy=0 dh=0 dv=0 dx=0 dy=0 dh=50 dv=0
EndChar

StartChar: asciicircum
Encoding: 94 94 65
Width: 1190
GlyphClass: 2
Flags: W
LayerCount: 2
Fore
SplineSet
623 1415 m 1,0,-1
 1033 525 l 1,1,-1
 856 525 l 1,2,-1
 607 1095 l 1,3,-1
 581 1095 l 1,4,5
 574 1078 574 1078 554.5 1034 c 128,-1,6
 535 990 535 990 510 932.5 c 128,-1,7
 485 875 485 875 457.5 810.5 c 128,-1,8
 430 746 430 746 405 688.5 c 128,-1,9
 380 631 380 631 361 586.5 c 128,-1,10
 342 542 342 542 335 525 c 1,11,-1
 157 525 l 1,12,-1
 566 1415 l 1,13,-1
 623 1415 l 1,0,-1
EndSplineSet
Substitution2: "<17016,16016> Urdu Swash lookup 75 subtable" asciicircum
PairPos2: "'kern' Horizontal Kerning in Arabic lookup 0 subtable" afii57509 dx=0 dy=0 dh=0 dv=0 dx=0 dy=0 dh=250 dv=0
PairPos2: "'kern' Horizontal Kerning in Arabic lookup 0 subtable" uni06AB dx=0 dy=0 dh=0 dv=0 dx=0 dy=0 dh=250 dv=0
PairPos2: "'kern' Horizontal Kerning in Arabic lookup 0 subtable" uni06A9 dx=0 dy=0 dh=0 dv=0 dx=0 dy=0 dh=250 dv=0
PairPos2: "'kern' Horizontal Kerning in Arabic lookup 0 subtable" uniFB94 dx=0 dy=0 dh=0 dv=0 dx=0 dy=0 dh=250 dv=0
PairPos2: "'kern' Horizontal Kerning in Arabic lookup 0 subtable" uniFBD5 dx=0 dy=0 dh=0 dv=0 dx=0 dy=0 dh=250 dv=0
PairPos2: "'kern' Horizontal Kerning in Arabic lookup 0 subtable" uni06AB.ini dx=0 dy=0 dh=0 dv=0 dx=0 dy=0 dh=250 dv=0
PairPos2: "'kern' Horizontal Kerning in Arabic lookup 0 subtable" uniFB90 dx=0 dy=0 dh=0 dv=0 dx=0 dy=0 dh=250 dv=0
PairPos2: "'kern' Horizontal Kerning in Arabic lookup 0 subtable" uniFEDB dx=0 dy=0 dh=0 dv=0 dx=0 dy=0 dh=250 dv=0
PairPos2: "'kern' Horizontal Kerning in Arabic lookup 0 subtable" uni0671 dx=0 dy=0 dh=0 dv=0 dx=0 dy=0 dh=200 dv=0
PairPos2: "'kern' Horizontal Kerning in Arabic lookup 0 subtable" afii57410 dx=0 dy=0 dh=0 dv=0 dx=0 dy=0 dh=200 dv=0
PairPos2: "'kern' Horizontal Kerning in Arabic lookup 0 subtable" afii57415 dx=0 dy=0 dh=0 dv=0 dx=0 dy=0 dh=50 dv=0
EndChar

StartChar: underscore
Encoding: 95 95 66
Width: 1024
GlyphClass: 2
Flags: W
LayerCount: 2
Fore
SplineSet
14 -275 m 1,0,-1
 14 -134 l 1,1,-1
 1009 -134 l 1,2,-1
 1009 -275 l 1,3,-1
 14 -275 l 1,0,-1
EndSplineSet
Substitution2: "<17016,16016> Urdu Swash lookup 75 subtable" underscore
PairPos2: "'kern' Horizontal Kerning in Arabic lookup 0 subtable" afii57509 dx=0 dy=0 dh=0 dv=0 dx=0 dy=0 dh=250 dv=0
PairPos2: "'kern' Horizontal Kerning in Arabic lookup 0 subtable" uni06AB dx=0 dy=0 dh=0 dv=0 dx=0 dy=0 dh=250 dv=0
PairPos2: "'kern' Horizontal Kerning in Arabic lookup 0 subtable" uni06A9 dx=0 dy=0 dh=0 dv=0 dx=0 dy=0 dh=250 dv=0
PairPos2: "'kern' Horizontal Kerning in Arabic lookup 0 subtable" uniFB94 dx=0 dy=0 dh=0 dv=0 dx=0 dy=0 dh=250 dv=0
PairPos2: "'kern' Horizontal Kerning in Arabic lookup 0 subtable" uniFBD5 dx=0 dy=0 dh=0 dv=0 dx=0 dy=0 dh=250 dv=0
PairPos2: "'kern' Horizontal Kerning in Arabic lookup 0 subtable" uni06AB.ini dx=0 dy=0 dh=0 dv=0 dx=0 dy=0 dh=250 dv=0
PairPos2: "'kern' Horizontal Kerning in Arabic lookup 0 subtable" uniFB90 dx=0 dy=0 dh=0 dv=0 dx=0 dy=0 dh=250 dv=0
PairPos2: "'kern' Horizontal Kerning in Arabic lookup 0 subtable" uniFEDB dx=0 dy=0 dh=0 dv=0 dx=0 dy=0 dh=250 dv=0
PairPos2: "'kern' Horizontal Kerning in Arabic lookup 0 subtable" uni0671 dx=0 dy=0 dh=0 dv=0 dx=0 dy=0 dh=200 dv=0
PairPos2: "'kern' Horizontal Kerning in Arabic lookup 0 subtable" afii57410 dx=0 dy=0 dh=0 dv=0 dx=0 dy=0 dh=200 dv=0
PairPos2: "'kern' Horizontal Kerning in Arabic lookup 0 subtable" afii57415 dx=0 dy=0 dh=0 dv=0 dx=0 dy=0 dh=50 dv=0
EndChar

StartChar: grave
Encoding: 96 96 67
Width: 682
GlyphClass: 2
Flags: W
LayerCount: 2
Fore
SplineSet
111 1460 m 0,0,1
 140 1460 140 1460 166 1444.5 c 128,-1,2
 192 1429 192 1429 215 1403 c 0,3,4
 222 1395 222 1395 244 1370 c 128,-1,5
 266 1345 266 1345 294.5 1311.5 c 128,-1,6
 323 1278 323 1278 355.5 1240.5 c 128,-1,7
 388 1203 388 1203 417 1169.5 c 128,-1,8
 446 1136 446 1136 467.5 1111 c 128,-1,9
 489 1086 489 1086 496 1078 c 1,10,-1
 397 1078 l 1,11,-1
 106 1259 l 2,12,13
 88 1270 88 1270 74 1281 c 128,-1,14
 60 1292 60 1292 50 1304.5 c 128,-1,15
 40 1317 40 1317 35 1332.5 c 128,-1,16
 30 1348 30 1348 30 1369 c 0,17,18
 30 1411 30 1411 54 1435.5 c 128,-1,19
 78 1460 78 1460 111 1460 c 0,0,1
EndSplineSet
Substitution2: "<17016,16016> Urdu Swash lookup 75 subtable" grave
PairPos2: "'kern' Horizontal Kerning in Arabic lookup 0 subtable" afii57509 dx=0 dy=0 dh=0 dv=0 dx=0 dy=0 dh=250 dv=0
PairPos2: "'kern' Horizontal Kerning in Arabic lookup 0 subtable" uni06AB dx=0 dy=0 dh=0 dv=0 dx=0 dy=0 dh=250 dv=0
PairPos2: "'kern' Horizontal Kerning in Arabic lookup 0 subtable" uni06A9 dx=0 dy=0 dh=0 dv=0 dx=0 dy=0 dh=250 dv=0
PairPos2: "'kern' Horizontal Kerning in Arabic lookup 0 subtable" uniFB94 dx=0 dy=0 dh=0 dv=0 dx=0 dy=0 dh=250 dv=0
PairPos2: "'kern' Horizontal Kerning in Arabic lookup 0 subtable" uniFBD5 dx=0 dy=0 dh=0 dv=0 dx=0 dy=0 dh=250 dv=0
PairPos2: "'kern' Horizontal Kerning in Arabic lookup 0 subtable" uni06AB.ini dx=0 dy=0 dh=0 dv=0 dx=0 dy=0 dh=250 dv=0
PairPos2: "'kern' Horizontal Kerning in Arabic lookup 0 subtable" uniFB90 dx=0 dy=0 dh=0 dv=0 dx=0 dy=0 dh=250 dv=0
PairPos2: "'kern' Horizontal Kerning in Arabic lookup 0 subtable" uniFEDB dx=0 dy=0 dh=0 dv=0 dx=0 dy=0 dh=250 dv=0
PairPos2: "'kern' Horizontal Kerning in Arabic lookup 0 subtable" uni0671 dx=0 dy=0 dh=0 dv=0 dx=0 dy=0 dh=200 dv=0
PairPos2: "'kern' Horizontal Kerning in Arabic lookup 0 subtable" afii57410 dx=0 dy=0 dh=0 dv=0 dx=0 dy=0 dh=200 dv=0
PairPos2: "'kern' Horizontal Kerning in Arabic lookup 0 subtable" afii57415 dx=0 dy=0 dh=0 dv=0 dx=0 dy=0 dh=50 dv=0
EndChar

StartChar: a
Encoding: 97 97 68
Width: 1024
GlyphClass: 2
Flags: W
LayerCount: 2
Fore
SplineSet
549 149 m 0,0,1
 564 160 564 160 579 174 c 128,-1,2
 594 188 594 188 608 205 c 1,3,-1
 612 205 l 1,4,-1
 612 501 l 1,5,-1
 595 501 l 1,6,7
 464 467 464 467 400 400.5 c 128,-1,8
 336 334 336 334 336 254 c 0,9,10
 336 221 336 221 345.5 196 c 128,-1,11
 355 171 355 171 370.5 153.5 c 128,-1,12
 386 136 386 136 406 127.5 c 128,-1,13
 426 119 426 119 448 119 c 0,14,15
 506 119 506 119 549 149 c 0,0,1
615 722 m 2,16,17
 615 767 615 767 605.5 800.5 c 128,-1,18
 596 834 596 834 573.5 855.5 c 128,-1,19
 551 877 551 877 515 888 c 128,-1,20
 479 899 479 899 426 899 c 0,21,22
 366 899 366 899 326.5 878.5 c 128,-1,23
 287 858 287 858 287 828 c 0,24,25
 287 819 287 819 293.5 808.5 c 128,-1,26
 300 798 300 798 313 784 c 0,27,28
 346 748 346 748 346 696 c 0,29,30
 346 667 346 667 337 644 c 128,-1,31
 328 621 328 621 312 605.5 c 128,-1,32
 296 590 296 590 275.5 582 c 128,-1,33
 255 574 255 574 232 574 c 0,34,35
 178 574 178 574 141 609 c 128,-1,36
 104 644 104 644 104 711 c 0,37,38
 104 776 104 776 135 824 c 128,-1,39
 166 872 166 872 217.5 904 c 128,-1,40
 269 936 269 936 335.5 952 c 128,-1,41
 402 968 402 968 473 968 c 0,42,43
 642 968 642 968 758 901 c 0,44,45
 866 838 866 838 866 650 c 2,46,-1
 866 155 l 2,47,48
 866 134 866 134 881.5 118.5 c 128,-1,49
 897 103 897 103 917 103 c 0,50,51
 934 103 934 103 944 105.5 c 128,-1,52
 954 108 954 108 966 120 c 1,53,-1
 989 87 l 1,54,55
 936 24 936 24 880.5 -2.5 c 128,-1,56
 825 -29 825 -29 769 -29 c 0,57,58
 730 -29 730 -29 699 -15 c 128,-1,59
 668 -1 668 -1 647 24 c 0,60,61
 637 36 637 36 628.5 61 c 128,-1,62
 620 86 620 86 615 113 c 1,63,-1
 591 113 l 1,64,65
 519 43 519 43 437.5 7 c 128,-1,66
 356 -29 356 -29 282 -29 c 0,67,68
 207 -29 207 -29 133 24 c 0,69,70
 66 73 66 73 66 192 c 0,71,72
 66 335 66 335 192 411 c 0,73,74
 328 493 328 493 605 574 c 1,75,-1
 615 574 l 1,76,-1
 615 722 l 2,16,17
EndSplineSet
Substitution2: "<17016,16016> Urdu Swash lookup 75 subtable" a
PairPos2: "'kern' Horizontal Kerning in Arabic lookup 0 subtable" afii57509 dx=0 dy=0 dh=0 dv=0 dx=0 dy=0 dh=250 dv=0
PairPos2: "'kern' Horizontal Kerning in Arabic lookup 0 subtable" uni06AB dx=0 dy=0 dh=0 dv=0 dx=0 dy=0 dh=250 dv=0
PairPos2: "'kern' Horizontal Kerning in Arabic lookup 0 subtable" uni06A9 dx=0 dy=0 dh=0 dv=0 dx=0 dy=0 dh=250 dv=0
PairPos2: "'kern' Horizontal Kerning in Arabic lookup 0 subtable" uniFB94 dx=0 dy=0 dh=0 dv=0 dx=0 dy=0 dh=250 dv=0
PairPos2: "'kern' Horizontal Kerning in Arabic lookup 0 subtable" uniFBD5 dx=0 dy=0 dh=0 dv=0 dx=0 dy=0 dh=250 dv=0
PairPos2: "'kern' Horizontal Kerning in Arabic lookup 0 subtable" uni06AB.ini dx=0 dy=0 dh=0 dv=0 dx=0 dy=0 dh=250 dv=0
PairPos2: "'kern' Horizontal Kerning in Arabic lookup 0 subtable" uniFB90 dx=0 dy=0 dh=0 dv=0 dx=0 dy=0 dh=250 dv=0
PairPos2: "'kern' Horizontal Kerning in Arabic lookup 0 subtable" uniFEDB dx=0 dy=0 dh=0 dv=0 dx=0 dy=0 dh=250 dv=0
PairPos2: "'kern' Horizontal Kerning in Arabic lookup 0 subtable" uni0671 dx=0 dy=0 dh=0 dv=0 dx=0 dy=0 dh=200 dv=0
PairPos2: "'kern' Horizontal Kerning in Arabic lookup 0 subtable" afii57410 dx=0 dy=0 dh=0 dv=0 dx=0 dy=0 dh=200 dv=0
PairPos2: "'kern' Horizontal Kerning in Arabic lookup 0 subtable" afii57415 dx=0 dy=0 dh=0 dv=0 dx=0 dy=0 dh=50 dv=0
EndChar

StartChar: b
Encoding: 98 98 69
Width: 1139
GlyphClass: 2
Flags: W
LayerCount: 2
Fore
SplineSet
440 108 m 0,0,1
 475 39 475 39 572 39 c 0,2,3
 630 39 630 39 670.5 68 c 128,-1,4
 711 97 711 97 733 149 c 0,5,6
 742 177 742 177 750 213 c 128,-1,7
 758 249 758 249 764.5 290 c 128,-1,8
 771 331 771 331 774.5 375 c 128,-1,9
 778 419 778 419 778 462 c 0,10,11
 778 622 778 622 738 739 c 0,12,13
 700 854 700 854 575 854 c 0,14,15
 498 854 498 854 458 805 c 0,16,17
 416 753 416 753 416 737 c 2,18,-1
 416 200 l 2,19,20
 418 174 418 174 423.5 151 c 128,-1,21
 429 128 429 128 440 108 c 0,0,1
416 1384 m 1,22,-1
 416 854 l 1,23,-1
 439 854 l 1,24,25
 474 888 474 888 504 910 c 128,-1,26
 534 932 534 932 563 945 c 128,-1,27
 592 958 592 958 620.5 963 c 128,-1,28
 649 968 649 968 681 968 c 0,29,30
 761 968 761 968 828.5 932.5 c 128,-1,31
 896 897 896 897 945.5 834 c 128,-1,32
 995 771 995 771 1023 685.5 c 128,-1,33
 1051 600 1051 600 1051 500 c 0,34,35
 1051 373 1051 373 1017 274 c 128,-1,36
 983 175 983 175 920 108 c 1,37,38
 854 45 854 45 771 8 c 128,-1,39
 688 -29 688 -29 596 -29 c 0,40,41
 520 -29 520 -29 458.5 3.5 c 128,-1,42
 397 36 397 36 343 87 c 1,43,-1
 326 87 l 1,44,45
 288 58 288 58 246.5 28.5 c 128,-1,46
 205 -1 205 -1 165 -29 c 1,47,-1
 158 -29 l 1,48,-1
 158 1215 l 2,49,50
 158 1241 158 1241 154 1260.5 c 128,-1,51
 150 1280 150 1280 138 1294 c 128,-1,52
 126 1308 126 1308 104.5 1316.5 c 128,-1,53
 83 1325 83 1325 49 1330 c 1,54,-1
 49 1384 l 1,55,-1
 416 1384 l 1,22,-1
EndSplineSet
Substitution2: "<17016,16016> Urdu Swash lookup 75 subtable" b
PairPos2: "'kern' Horizontal Kerning in Arabic lookup 0 subtable" afii57509 dx=0 dy=0 dh=0 dv=0 dx=0 dy=0 dh=250 dv=0
PairPos2: "'kern' Horizontal Kerning in Arabic lookup 0 subtable" uni06AB dx=0 dy=0 dh=0 dv=0 dx=0 dy=0 dh=250 dv=0
PairPos2: "'kern' Horizontal Kerning in Arabic lookup 0 subtable" uni06A9 dx=0 dy=0 dh=0 dv=0 dx=0 dy=0 dh=250 dv=0
PairPos2: "'kern' Horizontal Kerning in Arabic lookup 0 subtable" uniFB94 dx=0 dy=0 dh=0 dv=0 dx=0 dy=0 dh=250 dv=0
PairPos2: "'kern' Horizontal Kerning in Arabic lookup 0 subtable" uniFBD5 dx=0 dy=0 dh=0 dv=0 dx=0 dy=0 dh=250 dv=0
PairPos2: "'kern' Horizontal Kerning in Arabic lookup 0 subtable" uni06AB.ini dx=0 dy=0 dh=0 dv=0 dx=0 dy=0 dh=250 dv=0
PairPos2: "'kern' Horizontal Kerning in Arabic lookup 0 subtable" uniFB90 dx=0 dy=0 dh=0 dv=0 dx=0 dy=0 dh=250 dv=0
PairPos2: "'kern' Horizontal Kerning in Arabic lookup 0 subtable" uniFEDB dx=0 dy=0 dh=0 dv=0 dx=0 dy=0 dh=250 dv=0
PairPos2: "'kern' Horizontal Kerning in Arabic lookup 0 subtable" uni0671 dx=0 dy=0 dh=0 dv=0 dx=0 dy=0 dh=200 dv=0
PairPos2: "'kern' Horizontal Kerning in Arabic lookup 0 subtable" afii57410 dx=0 dy=0 dh=0 dv=0 dx=0 dy=0 dh=200 dv=0
PairPos2: "'kern' Horizontal Kerning in Arabic lookup 0 subtable" afii57415 dx=0 dy=0 dh=0 dv=0 dx=0 dy=0 dh=50 dv=0
EndChar

StartChar: c
Encoding: 99 99 70
AltUni2: 00217d.ffffffff.0
Width: 909
GlyphClass: 2
Flags: W
LayerCount: 2
Fore
SplineSet
831 744 m 0,0,1
 831 713 831 713 820.5 688.5 c 128,-1,2
 810 664 810 664 793 647 c 128,-1,3
 776 630 776 630 755 621 c 128,-1,4
 734 612 734 612 712 612 c 0,5,6
 677 612 677 612 650 630 c 1,7,-1
 651 630 l 1,8,9
 603 656 603 656 603 747 c 2,10,-1
 603 755 l 2,11,12
 603 766 603 766 604 780 c 128,-1,13
 605 794 605 794 605 811 c 0,14,15
 605 856 605 856 579 880 c 128,-1,16
 553 904 553 904 507 904 c 0,17,18
 400 904 400 904 359 800 c 0,19,20
 319 695 319 695 319 561 c 0,21,22
 319 375 319 375 396 241 c 0,23,24
 472 111 472 111 613 111 c 0,25,26
 691 111 691 111 743 138.5 c 128,-1,27
 795 166 795 166 837 214 c 1,28,-1
 864 189 l 1,29,30
 759 44 759 44 634 -4 c 0,31,32
 564 -31 564 -31 488 -31 c 0,33,34
 397 -31 397 -31 318 5.5 c 128,-1,35
 239 42 239 42 181 107 c 128,-1,36
 123 172 123 172 89.5 260.5 c 128,-1,37
 56 349 56 349 56 454 c 0,38,39
 56 566 56 566 91 660.5 c 128,-1,40
 126 755 126 755 189 824 c 128,-1,41
 252 893 252 893 338.5 931.5 c 128,-1,42
 425 970 425 970 527 970 c 0,43,44
 583 970 583 970 637.5 955 c 128,-1,45
 692 940 692 940 735 911 c 128,-1,46
 778 882 778 882 804.5 840 c 128,-1,47
 831 798 831 798 831 744 c 0,0,1
EndSplineSet
Substitution2: "<17016,16016> Urdu Swash lookup 75 subtable" c
PairPos2: "'kern' Horizontal Kerning in Arabic lookup 0 subtable" afii57509 dx=0 dy=0 dh=0 dv=0 dx=0 dy=0 dh=250 dv=0
PairPos2: "'kern' Horizontal Kerning in Arabic lookup 0 subtable" uni06AB dx=0 dy=0 dh=0 dv=0 dx=0 dy=0 dh=250 dv=0
PairPos2: "'kern' Horizontal Kerning in Arabic lookup 0 subtable" uni06A9 dx=0 dy=0 dh=0 dv=0 dx=0 dy=0 dh=250 dv=0
PairPos2: "'kern' Horizontal Kerning in Arabic lookup 0 subtable" uniFB94 dx=0 dy=0 dh=0 dv=0 dx=0 dy=0 dh=250 dv=0
PairPos2: "'kern' Horizontal Kerning in Arabic lookup 0 subtable" uniFBD5 dx=0 dy=0 dh=0 dv=0 dx=0 dy=0 dh=250 dv=0
PairPos2: "'kern' Horizontal Kerning in Arabic lookup 0 subtable" uni06AB.ini dx=0 dy=0 dh=0 dv=0 dx=0 dy=0 dh=250 dv=0
PairPos2: "'kern' Horizontal Kerning in Arabic lookup 0 subtable" uniFB90 dx=0 dy=0 dh=0 dv=0 dx=0 dy=0 dh=250 dv=0
PairPos2: "'kern' Horizontal Kerning in Arabic lookup 0 subtable" uniFEDB dx=0 dy=0 dh=0 dv=0 dx=0 dy=0 dh=250 dv=0
PairPos2: "'kern' Horizontal Kerning in Arabic lookup 0 subtable" uni0671 dx=0 dy=0 dh=0 dv=0 dx=0 dy=0 dh=200 dv=0
PairPos2: "'kern' Horizontal Kerning in Arabic lookup 0 subtable" afii57410 dx=0 dy=0 dh=0 dv=0 dx=0 dy=0 dh=200 dv=0
PairPos2: "'kern' Horizontal Kerning in Arabic lookup 0 subtable" afii57415 dx=0 dy=0 dh=0 dv=0 dx=0 dy=0 dh=50 dv=0
EndChar

StartChar: d
Encoding: 100 100 71
AltUni2: 00217e.ffffffff.0
Width: 1139
GlyphClass: 2
Flags: W
LayerCount: 2
Fore
SplineSet
700 727 m 2,0,1
 700 747 700 747 651 800 c 0,2,3
 606 849 606 849 522 849 c 0,4,5
 473 849 473 849 438.5 827.5 c 128,-1,6
 404 806 404 806 382 760 c 128,-1,7
 360 714 360 714 350 642 c 128,-1,8
 340 570 340 570 340 470 c 0,9,10
 340 397 340 397 345.5 335 c 128,-1,11
 351 273 351 273 359 233 c 0,12,13
 369 202 369 202 384.5 176 c 128,-1,14
 400 150 400 150 420 130.5 c 128,-1,15
 440 111 440 111 464 100 c 128,-1,16
 488 89 488 89 515 89 c 0,17,18
 590 89 590 89 643 148 c 0,19,20
 700 211 700 211 700 230 c 2,21,-1
 700 727 l 2,0,1
444 968 m 0,22,23
 479 968 479 968 515 957 c 128,-1,24
 551 946 551 946 581 928 c 0,25,26
 596 919 596 919 621.5 895.5 c 128,-1,27
 647 872 647 872 676 842 c 1,28,-1
 700 842 l 1,29,-1
 700 1215 l 2,30,31
 700 1247 700 1247 694.5 1268.5 c 128,-1,32
 689 1290 689 1290 672.5 1303 c 128,-1,33
 656 1316 656 1316 626 1322 c 128,-1,34
 596 1328 596 1328 546 1331 c 1,35,-1
 546 1384 l 1,36,-1
 959 1384 l 1,37,-1
 959 207 l 2,38,39
 959 181 959 181 963.5 161 c 128,-1,40
 968 141 968 141 980.5 126 c 128,-1,41
 993 111 993 111 1016 102 c 128,-1,42
 1039 93 1039 93 1076 90 c 1,43,-1
 1076 39 l 1,44,45
 998 31 998 31 945.5 25 c 128,-1,46
 893 19 893 19 867 14 c 0,47,48
 839 9 839 9 799.5 -0.5 c 128,-1,49
 760 -10 760 -10 707 -24 c 1,50,-1
 707 106 l 1,51,-1
 683 106 l 1,52,53
 645 67 645 67 612.5 41 c 128,-1,54
 580 15 580 15 549 -0.5 c 128,-1,55
 518 -16 518 -16 487.5 -22.5 c 128,-1,56
 457 -29 457 -29 423 -29 c 0,57,58
 357 -29 357 -29 292 5.5 c 128,-1,59
 227 40 227 40 173 98 c 1,60,61
 121 160 121 160 93.5 246.5 c 128,-1,62
 66 333 66 333 66 443 c 0,63,64
 66 567 66 567 94.5 663 c 128,-1,65
 123 759 123 759 178 827 c 0,66,67
 234 891 234 891 303 929.5 c 128,-1,68
 372 968 372 968 444 968 c 0,22,23
EndSplineSet
Substitution2: "<17016,16016> Urdu Swash lookup 75 subtable" d
PairPos2: "'kern' Horizontal Kerning in Arabic lookup 0 subtable" afii57509 dx=0 dy=0 dh=0 dv=0 dx=0 dy=0 dh=250 dv=0
PairPos2: "'kern' Horizontal Kerning in Arabic lookup 0 subtable" uni06AB dx=0 dy=0 dh=0 dv=0 dx=0 dy=0 dh=250 dv=0
PairPos2: "'kern' Horizontal Kerning in Arabic lookup 0 subtable" uni06A9 dx=0 dy=0 dh=0 dv=0 dx=0 dy=0 dh=250 dv=0
PairPos2: "'kern' Horizontal Kerning in Arabic lookup 0 subtable" uniFB94 dx=0 dy=0 dh=0 dv=0 dx=0 dy=0 dh=250 dv=0
PairPos2: "'kern' Horizontal Kerning in Arabic lookup 0 subtable" uniFBD5 dx=0 dy=0 dh=0 dv=0 dx=0 dy=0 dh=250 dv=0
PairPos2: "'kern' Horizontal Kerning in Arabic lookup 0 subtable" uni06AB.ini dx=0 dy=0 dh=0 dv=0 dx=0 dy=0 dh=250 dv=0
PairPos2: "'kern' Horizontal Kerning in Arabic lookup 0 subtable" uniFB90 dx=0 dy=0 dh=0 dv=0 dx=0 dy=0 dh=250 dv=0
PairPos2: "'kern' Horizontal Kerning in Arabic lookup 0 subtable" uniFEDB dx=0 dy=0 dh=0 dv=0 dx=0 dy=0 dh=250 dv=0
PairPos2: "'kern' Horizontal Kerning in Arabic lookup 0 subtable" uni0671 dx=0 dy=0 dh=0 dv=0 dx=0 dy=0 dh=200 dv=0
PairPos2: "'kern' Horizontal Kerning in Arabic lookup 0 subtable" afii57410 dx=0 dy=0 dh=0 dv=0 dx=0 dy=0 dh=200 dv=0
PairPos2: "'kern' Horizontal Kerning in Arabic lookup 0 subtable" afii57415 dx=0 dy=0 dh=0 dv=0 dx=0 dy=0 dh=50 dv=0
EndChar

StartChar: e
Encoding: 101 101 72
Width: 909
GlyphClass: 2
Flags: W
LayerCount: 2
Fore
SplineSet
351 820 m 0,0,1
 337 777 337 777 328 714 c 128,-1,2
 319 651 319 651 317 579 c 1,3,-1
 619 579 l 1,4,5
 618 664 618 664 610 728.5 c 128,-1,6
 602 793 602 793 590 831 c 0,7,8
 577 865 577 865 547 883.5 c 128,-1,9
 517 902 517 902 473 902 c 256,10,11
 429 902 429 902 397.5 879.5 c 128,-1,12
 366 857 366 857 351 820 c 0,0,1
473 968 m 0,13,14
 517 968 517 968 561.5 956.5 c 128,-1,15
 606 945 606 945 647.5 920 c 128,-1,16
 689 895 689 895 725 857.5 c 128,-1,17
 761 820 761 820 788 767 c 0,18,19
 799 746 799 746 809 712.5 c 128,-1,20
 819 679 819 679 826.5 641.5 c 128,-1,21
 834 604 834 604 838.5 567 c 128,-1,22
 843 530 843 530 843 501 c 1,23,-1
 322 501 l 1,24,25
 328 412 328 412 345.5 341.5 c 128,-1,26
 363 271 363 271 395.5 222.5 c 128,-1,27
 428 174 428 174 475 148 c 128,-1,28
 522 122 522 122 586 122 c 0,29,30
 620 122 620 122 650 129.5 c 128,-1,31
 680 137 680 137 708 152.5 c 128,-1,32
 736 168 736 168 764 193 c 128,-1,33
 792 218 792 218 823 252 c 1,34,-1
 856 230 l 1,35,36
 758 69 758 69 639 10 c 0,37,38
 598 -10 598 -10 553.5 -19.5 c 128,-1,39
 509 -29 509 -29 460 -29 c 0,40,41
 390 -29 390 -29 321 2 c 128,-1,42
 252 33 252 33 187 90 c 1,43,44
 129 148 129 148 94.5 245.5 c 128,-1,45
 60 343 60 343 60 470 c 0,46,47
 60 710 60 710 181 837 c 0,48,49
 307 968 307 968 473 968 c 0,13,14
EndSplineSet
Substitution2: "<17016,16016> Urdu Swash lookup 75 subtable" e
PairPos2: "'kern' Horizontal Kerning in Arabic lookup 0 subtable" afii57509 dx=0 dy=0 dh=0 dv=0 dx=0 dy=0 dh=250 dv=0
PairPos2: "'kern' Horizontal Kerning in Arabic lookup 0 subtable" uni06AB dx=0 dy=0 dh=0 dv=0 dx=0 dy=0 dh=250 dv=0
PairPos2: "'kern' Horizontal Kerning in Arabic lookup 0 subtable" uni06A9 dx=0 dy=0 dh=0 dv=0 dx=0 dy=0 dh=250 dv=0
PairPos2: "'kern' Horizontal Kerning in Arabic lookup 0 subtable" uniFB94 dx=0 dy=0 dh=0 dv=0 dx=0 dy=0 dh=250 dv=0
PairPos2: "'kern' Horizontal Kerning in Arabic lookup 0 subtable" uniFBD5 dx=0 dy=0 dh=0 dv=0 dx=0 dy=0 dh=250 dv=0
PairPos2: "'kern' Horizontal Kerning in Arabic lookup 0 subtable" uni06AB.ini dx=0 dy=0 dh=0 dv=0 dx=0 dy=0 dh=250 dv=0
PairPos2: "'kern' Horizontal Kerning in Arabic lookup 0 subtable" uniFB90 dx=0 dy=0 dh=0 dv=0 dx=0 dy=0 dh=250 dv=0
PairPos2: "'kern' Horizontal Kerning in Arabic lookup 0 subtable" uniFEDB dx=0 dy=0 dh=0 dv=0 dx=0 dy=0 dh=250 dv=0
PairPos2: "'kern' Horizontal Kerning in Arabic lookup 0 subtable" uni0671 dx=0 dy=0 dh=0 dv=0 dx=0 dy=0 dh=200 dv=0
PairPos2: "'kern' Horizontal Kerning in Arabic lookup 0 subtable" afii57410 dx=0 dy=0 dh=0 dv=0 dx=0 dy=0 dh=200 dv=0
PairPos2: "'kern' Horizontal Kerning in Arabic lookup 0 subtable" afii57415 dx=0 dy=0 dh=0 dv=0 dx=0 dy=0 dh=50 dv=0
EndChar

StartChar: f
Encoding: 102 102 73
Width: 682
GlyphClass: 2
Flags: W
LayerCount: 2
Fore
SplineSet
42 52 m 1,0,1
 108 57 108 57 134 84.5 c 128,-1,2
 160 112 160 112 160 174 c 2,3,-1
 160 838 l 1,4,-1
 42 838 l 1,5,-1
 42 930 l 1,6,-1
 160 930 l 1,7,-1
 160 1005 l 2,8,9
 160 1108 160 1108 183.5 1184.5 c 128,-1,10
 207 1261 207 1261 251.5 1311.5 c 128,-1,11
 296 1362 296 1362 359.5 1387 c 128,-1,12
 423 1412 423 1412 504 1412 c 0,13,14
 556 1412 556 1412 606 1399.5 c 128,-1,15
 656 1387 656 1387 695 1361.5 c 128,-1,16
 734 1336 734 1336 757.5 1298 c 128,-1,17
 781 1260 781 1260 781 1209 c 0,18,19
 781 1151 781 1151 750 1116 c 128,-1,20
 719 1081 719 1081 665 1081 c 0,21,22
 647 1081 647 1081 628.5 1088 c 128,-1,23
 610 1095 610 1095 595 1108.5 c 128,-1,24
 580 1122 580 1122 570 1143 c 128,-1,25
 560 1164 560 1164 560 1191 c 0,26,27
 560 1210 560 1210 567 1230.5 c 128,-1,28
 574 1251 574 1251 582.5 1267.5 c 128,-1,29
 591 1284 591 1284 598 1295.5 c 128,-1,30
 605 1307 605 1307 605 1308 c 0,31,32
 605 1320 605 1320 599 1327.5 c 128,-1,33
 593 1335 593 1335 583 1339 c 128,-1,34
 573 1343 573 1343 560 1344.5 c 128,-1,35
 547 1346 547 1346 534 1346 c 0,36,37
 471 1346 471 1346 443.5 1312.5 c 128,-1,38
 416 1279 416 1279 416 1193 c 2,39,-1
 416 930 l 1,40,-1
 594 930 l 1,41,-1
 594 838 l 1,42,-1
 416 838 l 1,43,-1
 416 211 l 2,44,45
 416 162 416 162 425.5 129 c 128,-1,46
 435 96 435 96 452 82 c 0,47,48
 487 60 487 60 582 52 c 1,49,-1
 582 0 l 1,50,-1
 42 0 l 1,51,-1
 42 52 l 1,0,1
EndSplineSet
Substitution2: "<17016,16016> Urdu Swash lookup 75 subtable" f
PairPos2: "'kern' Horizontal Kerning in Arabic lookup 0 subtable" afii57509 dx=0 dy=0 dh=0 dv=0 dx=0 dy=0 dh=250 dv=0
PairPos2: "'kern' Horizontal Kerning in Arabic lookup 0 subtable" uni06AB dx=0 dy=0 dh=0 dv=0 dx=0 dy=0 dh=250 dv=0
PairPos2: "'kern' Horizontal Kerning in Arabic lookup 0 subtable" uni06A9 dx=0 dy=0 dh=0 dv=0 dx=0 dy=0 dh=250 dv=0
PairPos2: "'kern' Horizontal Kerning in Arabic lookup 0 subtable" uniFB94 dx=0 dy=0 dh=0 dv=0 dx=0 dy=0 dh=250 dv=0
PairPos2: "'kern' Horizontal Kerning in Arabic lookup 0 subtable" uniFBD5 dx=0 dy=0 dh=0 dv=0 dx=0 dy=0 dh=250 dv=0
PairPos2: "'kern' Horizontal Kerning in Arabic lookup 0 subtable" uni06AB.ini dx=0 dy=0 dh=0 dv=0 dx=0 dy=0 dh=250 dv=0
PairPos2: "'kern' Horizontal Kerning in Arabic lookup 0 subtable" uniFB90 dx=0 dy=0 dh=0 dv=0 dx=0 dy=0 dh=250 dv=0
PairPos2: "'kern' Horizontal Kerning in Arabic lookup 0 subtable" uniFEDB dx=0 dy=0 dh=0 dv=0 dx=0 dy=0 dh=250 dv=0
PairPos2: "'kern' Horizontal Kerning in Arabic lookup 0 subtable" uni0671 dx=0 dy=0 dh=0 dv=0 dx=0 dy=0 dh=200 dv=0
PairPos2: "'kern' Horizontal Kerning in Arabic lookup 0 subtable" afii57410 dx=0 dy=0 dh=0 dv=0 dx=0 dy=0 dh=200 dv=0
PairPos2: "'kern' Horizontal Kerning in Arabic lookup 0 subtable" afii57415 dx=0 dy=0 dh=0 dv=0 dx=0 dy=0 dh=50 dv=0
EndChar

